<?xml version="1.0" encoding="UTF-8" standalone="no"?>
<!-- Created with Inkscape (http://www.inkscape.org/) -->

<svg
   width="125.35059mm"
   height="181.50766mm"
   viewBox="0 0 125.35059 181.50766"
   version="1.1"
   id="svg8"
   inkscape:version="1.1 (c68e22c387, 2021-05-23)"
   sodipodi:docname="MOLA - Copie.svg"
   xmlns:inkscape="http://www.inkscape.org/namespaces/inkscape"
   xmlns:sodipodi="http://sodipodi.sourceforge.net/DTD/sodipodi-0.dtd"
   xmlns:xlink="http://www.w3.org/1999/xlink"
   xmlns="http://www.w3.org/2000/svg"
   xmlns:svg="http://www.w3.org/2000/svg"
   xmlns:rdf="http://www.w3.org/1999/02/22-rdf-syntax-ns#"
   xmlns:cc="http://creativecommons.org/ns#"
   xmlns:dc="http://purl.org/dc/elements/1.1/">
  <defs
     id="defs2">
    <linearGradient
       inkscape:collect="always"
       id="linearGradient893">
      <stop
         id="stop891"
         offset="0"
         style="stop-color:#97cff1;stop-opacity:1" />
      <stop
         id="stop889"
         offset="1"
         style="stop-color:#1f77b4;stop-opacity:1;" />
    </linearGradient>
    <radialGradient
       inkscape:collect="always"
       xlink:href="#linearGradient893"
       id="radialGradient897"
       cx="76.704811"
       cy="130.56483"
       fx="76.704811"
       fy="130.56483"
       r="63.172432"
       gradientTransform="matrix(0.85404593,-0.3339027,0.22084005,0.56485776,8.4190251,71.235108)"
       gradientUnits="userSpaceOnUse" />
  </defs>
  <sodipodi:namedview
     id="base"
     pagecolor="#ffffff"
     bordercolor="#666666"
     borderopacity="1.0"
     inkscape:pageopacity="0.0"
     inkscape:pageshadow="2"
     inkscape:zoom="1.4"
     inkscape:cx="297.14286"
     inkscape:cy="349.28571"
     inkscape:document-units="mm"
     inkscape:current-layer="g915"
     showgrid="false"
     fit-margin-top="0"
     fit-margin-left="0"
     fit-margin-right="0"
     fit-margin-bottom="0"
     inkscape:window-width="2304"
     inkscape:window-height="1202"
     inkscape:window-x="-11"
     inkscape:window-y="-11"
     inkscape:window-maximized="1"
     inkscape:pagecheckerboard="0" />
  <metadata
     id="metadata5">
    <rdf:RDF>
      <cc:Work
         rdf:about="">
        <dc:format>image/svg+xml</dc:format>
        <dc:type
           rdf:resource="http://purl.org/dc/dcmitype/StillImage" />
      </cc:Work>
    </rdf:RDF>
  </metadata>
  <g
     inkscape:label="Calque 1"
     inkscape:groupmode="layer"
     id="layer1"
     transform="translate(-164.97363,-282.10569)">
    <g
       id="g915"
       transform="translate(124.24974,256.88759)">
      <path
         sodipodi:nodetypes="zssssssssccssssz"
         inkscape:connector-curvature="0"
         id="path830"
         d="M 164.41964,99.696428 C 163.4663,83.113796 111.85691,74.314364 104.6994,73.61607 89.20238,72.104165 87.312499,81.175594 81.642856,76.261904 75.973214,71.348213 72.949405,59.630952 70.303572,47.157737 67.657738,34.684522 65.767857,25.991071 63.499999,26.747023 61.232142,27.502977 60.098214,23.723214 59.34226,45.267856 58.586308,66.812498 60.854166,84.577379 58.208333,88.357143 55.562499,92.136903 38.175594,106.5 43.089284,129.93452 c 4.913691,23.43453 23.434524,34.77381 38.931548,38.55357 15.497024,3.77976 24.190478,16.63095 29.860118,21.54465 5.66964,4.91369 20.41071,15.875 22.67857,15.11904 2.26786,-0.75595 5.29167,-5.29166 -6.04762,-18.14285 -11.33928,-12.85119 -17.3869,-17.38691 -16.25297,-21.54465 1.13393,-4.15773 10.58333,-2.26785 21.92262,-10.9613 11.33928,-8.69346 21.90336,-22.19152 24.94642,-28.7262 2.81189,-6.03826 6.24501,-9.49772 5.29167,-26.080352 z"
         style="fill:url(#radialGradient897);fill-opacity:1;fill-rule:evenodd;stroke:#1f77b4;stroke-width:3;stroke-linecap:butt;stroke-linejoin:miter;stroke-miterlimit:4;stroke-dasharray:none;stroke-opacity:1" />
      <ellipse
         ry="3.4017856"
         rx="2.6458333"
         cy="121.06545"
         cx="135.70001"
         id="path832"
         style="fill:#ff7f0e;fill-opacity:1;stroke:none;stroke-width:1;stroke-linecap:round;stroke-linejoin:round;stroke-miterlimit:4;stroke-dasharray:none;stroke-dashoffset:0;stroke-opacity:1"
         transform="rotate(-10.185575)" />
    </g>
  </g>
</svg>
