<?xml version="1.0" encoding="utf-8" standalone="no"?>
<!DOCTYPE svg PUBLIC "-//W3C//DTD SVG 1.1//EN"
  "http://www.w3.org/Graphics/SVG/1.1/DTD/svg11.dtd">
<!-- Created with matplotlib (http://matplotlib.org/) -->
<svg height="576pt" version="1.1" viewBox="0 0 576 576" width="576pt" xmlns="http://www.w3.org/2000/svg" xmlns:xlink="http://www.w3.org/1999/xlink">
 <defs>
  <style type="text/css">
*{stroke-linecap:butt;stroke-linejoin:round;}
  </style>
 </defs>
 <g id="figure_1">
  <g id="patch_1">
   <path d="M 0 576 
L 576 576 
L 576 0 
L 0 0 
z
" style="fill:#ffffff;"/>
  </g>
  <g id="axes_1">
   <g id="patch_2">
    <path d="M 39.85 532.6 
L 279.594565 532.6 
L 279.594565 25.8 
L 39.85 25.8 
z
" style="fill:#ffffff;"/>
   </g>
   <g id="matplotlib.axis_1">
    <g id="xtick_1">
     <g id="line2d_1">
      <path clip-path="url(#pb8f2b07de4)" d="M 50.74748 532.6 
L 50.74748 25.8 
" style="fill:none;stroke:#b0b0b0;stroke-linecap:square;stroke-width:0.8;"/>
     </g>
     <g id="line2d_2">
      <defs>
       <path d="M 0 0 
L 0 3.5 
" id="mc9c4c33098" style="stroke:#000000;stroke-width:0.8;"/>
      </defs>
      <g>
       <use style="stroke:#000000;stroke-width:0.8;" x="50.74748" xlink:href="#mc9c4c33098" y="532.6"/>
      </g>
     </g>
     <g id="text_1">
      <!-- 0 -->
      <defs>
       <path d="M 31.78125 66.40625 
Q 24.171875 66.40625 20.328125 58.90625 
Q 16.5 51.421875 16.5 36.375 
Q 16.5 21.390625 20.328125 13.890625 
Q 24.171875 6.390625 31.78125 6.390625 
Q 39.453125 6.390625 43.28125 13.890625 
Q 47.125 21.390625 47.125 36.375 
Q 47.125 51.421875 43.28125 58.90625 
Q 39.453125 66.40625 31.78125 66.40625 
z
M 31.78125 74.21875 
Q 44.046875 74.21875 50.515625 64.515625 
Q 56.984375 54.828125 56.984375 36.375 
Q 56.984375 17.96875 50.515625 8.265625 
Q 44.046875 -1.421875 31.78125 -1.421875 
Q 19.53125 -1.421875 13.0625 8.265625 
Q 6.59375 17.96875 6.59375 36.375 
Q 6.59375 54.828125 13.0625 64.515625 
Q 19.53125 74.21875 31.78125 74.21875 
z
" id="DejaVuSans-30"/>
      </defs>
      <g transform="translate(47.56623 547.198437)scale(0.1 -0.1)">
       <use xlink:href="#DejaVuSans-30"/>
      </g>
     </g>
    </g>
    <g id="xtick_2">
     <g id="line2d_3">
      <path clip-path="url(#pb8f2b07de4)" d="M 89.667053 532.6 
L 89.667053 25.8 
" style="fill:none;stroke:#b0b0b0;stroke-linecap:square;stroke-width:0.8;"/>
     </g>
     <g id="line2d_4">
      <g>
       <use style="stroke:#000000;stroke-width:0.8;" x="89.667053" xlink:href="#mc9c4c33098" y="532.6"/>
      </g>
     </g>
     <g id="text_2">
      <!-- 1000 -->
      <defs>
       <path d="M 12.40625 8.296875 
L 28.515625 8.296875 
L 28.515625 63.921875 
L 10.984375 60.40625 
L 10.984375 69.390625 
L 28.421875 72.90625 
L 38.28125 72.90625 
L 38.28125 8.296875 
L 54.390625 8.296875 
L 54.390625 0 
L 12.40625 0 
z
" id="DejaVuSans-31"/>
      </defs>
      <g transform="translate(76.942053 547.198437)scale(0.1 -0.1)">
       <use xlink:href="#DejaVuSans-31"/>
       <use x="63.623047" xlink:href="#DejaVuSans-30"/>
       <use x="127.246094" xlink:href="#DejaVuSans-30"/>
       <use x="190.869141" xlink:href="#DejaVuSans-30"/>
      </g>
     </g>
    </g>
    <g id="xtick_3">
     <g id="line2d_5">
      <path clip-path="url(#pb8f2b07de4)" d="M 128.586625 532.6 
L 128.586625 25.8 
" style="fill:none;stroke:#b0b0b0;stroke-linecap:square;stroke-width:0.8;"/>
     </g>
     <g id="line2d_6">
      <g>
       <use style="stroke:#000000;stroke-width:0.8;" x="128.586625" xlink:href="#mc9c4c33098" y="532.6"/>
      </g>
     </g>
     <g id="text_3">
      <!-- 2000 -->
      <defs>
       <path d="M 19.1875 8.296875 
L 53.609375 8.296875 
L 53.609375 0 
L 7.328125 0 
L 7.328125 8.296875 
Q 12.9375 14.109375 22.625 23.890625 
Q 32.328125 33.6875 34.8125 36.53125 
Q 39.546875 41.84375 41.421875 45.53125 
Q 43.3125 49.21875 43.3125 52.78125 
Q 43.3125 58.59375 39.234375 62.25 
Q 35.15625 65.921875 28.609375 65.921875 
Q 23.96875 65.921875 18.8125 64.3125 
Q 13.671875 62.703125 7.8125 59.421875 
L 7.8125 69.390625 
Q 13.765625 71.78125 18.9375 73 
Q 24.125 74.21875 28.421875 74.21875 
Q 39.75 74.21875 46.484375 68.546875 
Q 53.21875 62.890625 53.21875 53.421875 
Q 53.21875 48.921875 51.53125 44.890625 
Q 49.859375 40.875 45.40625 35.40625 
Q 44.1875 33.984375 37.640625 27.21875 
Q 31.109375 20.453125 19.1875 8.296875 
z
" id="DejaVuSans-32"/>
      </defs>
      <g transform="translate(115.861625 547.198437)scale(0.1 -0.1)">
       <use xlink:href="#DejaVuSans-32"/>
       <use x="63.623047" xlink:href="#DejaVuSans-30"/>
       <use x="127.246094" xlink:href="#DejaVuSans-30"/>
       <use x="190.869141" xlink:href="#DejaVuSans-30"/>
      </g>
     </g>
    </g>
    <g id="xtick_4">
     <g id="line2d_7">
      <path clip-path="url(#pb8f2b07de4)" d="M 167.506197 532.6 
L 167.506197 25.8 
" style="fill:none;stroke:#b0b0b0;stroke-linecap:square;stroke-width:0.8;"/>
     </g>
     <g id="line2d_8">
      <g>
       <use style="stroke:#000000;stroke-width:0.8;" x="167.506197" xlink:href="#mc9c4c33098" y="532.6"/>
      </g>
     </g>
     <g id="text_4">
      <!-- 3000 -->
      <defs>
       <path d="M 40.578125 39.3125 
Q 47.65625 37.796875 51.625 33 
Q 55.609375 28.21875 55.609375 21.1875 
Q 55.609375 10.40625 48.1875 4.484375 
Q 40.765625 -1.421875 27.09375 -1.421875 
Q 22.515625 -1.421875 17.65625 -0.515625 
Q 12.796875 0.390625 7.625 2.203125 
L 7.625 11.71875 
Q 11.71875 9.328125 16.59375 8.109375 
Q 21.484375 6.890625 26.8125 6.890625 
Q 36.078125 6.890625 40.9375 10.546875 
Q 45.796875 14.203125 45.796875 21.1875 
Q 45.796875 27.640625 41.28125 31.265625 
Q 36.765625 34.90625 28.71875 34.90625 
L 20.21875 34.90625 
L 20.21875 43.015625 
L 29.109375 43.015625 
Q 36.375 43.015625 40.234375 45.921875 
Q 44.09375 48.828125 44.09375 54.296875 
Q 44.09375 59.90625 40.109375 62.90625 
Q 36.140625 65.921875 28.71875 65.921875 
Q 24.65625 65.921875 20.015625 65.03125 
Q 15.375 64.15625 9.8125 62.3125 
L 9.8125 71.09375 
Q 15.4375 72.65625 20.34375 73.4375 
Q 25.25 74.21875 29.59375 74.21875 
Q 40.828125 74.21875 47.359375 69.109375 
Q 53.90625 64.015625 53.90625 55.328125 
Q 53.90625 49.265625 50.4375 45.09375 
Q 46.96875 40.921875 40.578125 39.3125 
z
" id="DejaVuSans-33"/>
      </defs>
      <g transform="translate(154.781197 547.198437)scale(0.1 -0.1)">
       <use xlink:href="#DejaVuSans-33"/>
       <use x="63.623047" xlink:href="#DejaVuSans-30"/>
       <use x="127.246094" xlink:href="#DejaVuSans-30"/>
       <use x="190.869141" xlink:href="#DejaVuSans-30"/>
      </g>
     </g>
    </g>
    <g id="xtick_5">
     <g id="line2d_9">
      <path clip-path="url(#pb8f2b07de4)" d="M 206.425769 532.6 
L 206.425769 25.8 
" style="fill:none;stroke:#b0b0b0;stroke-linecap:square;stroke-width:0.8;"/>
     </g>
     <g id="line2d_10">
      <g>
       <use style="stroke:#000000;stroke-width:0.8;" x="206.425769" xlink:href="#mc9c4c33098" y="532.6"/>
      </g>
     </g>
     <g id="text_5">
      <!-- 4000 -->
      <defs>
       <path d="M 37.796875 64.3125 
L 12.890625 25.390625 
L 37.796875 25.390625 
z
M 35.203125 72.90625 
L 47.609375 72.90625 
L 47.609375 25.390625 
L 58.015625 25.390625 
L 58.015625 17.1875 
L 47.609375 17.1875 
L 47.609375 0 
L 37.796875 0 
L 37.796875 17.1875 
L 4.890625 17.1875 
L 4.890625 26.703125 
z
" id="DejaVuSans-34"/>
      </defs>
      <g transform="translate(193.700769 547.198437)scale(0.1 -0.1)">
       <use xlink:href="#DejaVuSans-34"/>
       <use x="63.623047" xlink:href="#DejaVuSans-30"/>
       <use x="127.246094" xlink:href="#DejaVuSans-30"/>
       <use x="190.869141" xlink:href="#DejaVuSans-30"/>
      </g>
     </g>
    </g>
    <g id="xtick_6">
     <g id="line2d_11">
      <path clip-path="url(#pb8f2b07de4)" d="M 245.345342 532.6 
L 245.345342 25.8 
" style="fill:none;stroke:#b0b0b0;stroke-linecap:square;stroke-width:0.8;"/>
     </g>
     <g id="line2d_12">
      <g>
       <use style="stroke:#000000;stroke-width:0.8;" x="245.345342" xlink:href="#mc9c4c33098" y="532.6"/>
      </g>
     </g>
     <g id="text_6">
      <!-- 5000 -->
      <defs>
       <path d="M 10.796875 72.90625 
L 49.515625 72.90625 
L 49.515625 64.59375 
L 19.828125 64.59375 
L 19.828125 46.734375 
Q 21.96875 47.46875 24.109375 47.828125 
Q 26.265625 48.1875 28.421875 48.1875 
Q 40.625 48.1875 47.75 41.5 
Q 54.890625 34.8125 54.890625 23.390625 
Q 54.890625 11.625 47.5625 5.09375 
Q 40.234375 -1.421875 26.90625 -1.421875 
Q 22.3125 -1.421875 17.546875 -0.640625 
Q 12.796875 0.140625 7.71875 1.703125 
L 7.71875 11.625 
Q 12.109375 9.234375 16.796875 8.0625 
Q 21.484375 6.890625 26.703125 6.890625 
Q 35.15625 6.890625 40.078125 11.328125 
Q 45.015625 15.765625 45.015625 23.390625 
Q 45.015625 31 40.078125 35.4375 
Q 35.15625 39.890625 26.703125 39.890625 
Q 22.75 39.890625 18.8125 39.015625 
Q 14.890625 38.140625 10.796875 36.28125 
z
" id="DejaVuSans-35"/>
      </defs>
      <g transform="translate(232.620342 547.198437)scale(0.1 -0.1)">
       <use xlink:href="#DejaVuSans-35"/>
       <use x="63.623047" xlink:href="#DejaVuSans-30"/>
       <use x="127.246094" xlink:href="#DejaVuSans-30"/>
       <use x="190.869141" xlink:href="#DejaVuSans-30"/>
      </g>
     </g>
    </g>
    <g id="xtick_7">
     <g id="line2d_13">
      <path clip-path="url(#pb8f2b07de4)" d="M 42.963566 532.6 
L 42.963566 25.8 
" style="fill:none;stroke:#b0b0b0;stroke-dasharray:0.8,1.32;stroke-dashoffset:0;stroke-width:0.8;"/>
     </g>
     <g id="line2d_14">
      <defs>
       <path d="M 0 0 
L 0 2 
" id="m39cdb6b494" style="stroke:#000000;stroke-width:0.6;"/>
      </defs>
      <g>
       <use style="stroke:#000000;stroke-width:0.6;" x="42.963566" xlink:href="#m39cdb6b494" y="532.6"/>
      </g>
     </g>
    </g>
    <g id="xtick_8">
     <g id="line2d_15">
      <path clip-path="url(#pb8f2b07de4)" d="M 58.531395 532.6 
L 58.531395 25.8 
" style="fill:none;stroke:#b0b0b0;stroke-dasharray:0.8,1.32;stroke-dashoffset:0;stroke-width:0.8;"/>
     </g>
     <g id="line2d_16">
      <g>
       <use style="stroke:#000000;stroke-width:0.6;" x="58.531395" xlink:href="#m39cdb6b494" y="532.6"/>
      </g>
     </g>
    </g>
    <g id="xtick_9">
     <g id="line2d_17">
      <path clip-path="url(#pb8f2b07de4)" d="M 66.315309 532.6 
L 66.315309 25.8 
" style="fill:none;stroke:#b0b0b0;stroke-dasharray:0.8,1.32;stroke-dashoffset:0;stroke-width:0.8;"/>
     </g>
     <g id="line2d_18">
      <g>
       <use style="stroke:#000000;stroke-width:0.6;" x="66.315309" xlink:href="#m39cdb6b494" y="532.6"/>
      </g>
     </g>
    </g>
    <g id="xtick_10">
     <g id="line2d_19">
      <path clip-path="url(#pb8f2b07de4)" d="M 74.099224 532.6 
L 74.099224 25.8 
" style="fill:none;stroke:#b0b0b0;stroke-dasharray:0.8,1.32;stroke-dashoffset:0;stroke-width:0.8;"/>
     </g>
     <g id="line2d_20">
      <g>
       <use style="stroke:#000000;stroke-width:0.6;" x="74.099224" xlink:href="#m39cdb6b494" y="532.6"/>
      </g>
     </g>
    </g>
    <g id="xtick_11">
     <g id="line2d_21">
      <path clip-path="url(#pb8f2b07de4)" d="M 81.883138 532.6 
L 81.883138 25.8 
" style="fill:none;stroke:#b0b0b0;stroke-dasharray:0.8,1.32;stroke-dashoffset:0;stroke-width:0.8;"/>
     </g>
     <g id="line2d_22">
      <g>
       <use style="stroke:#000000;stroke-width:0.6;" x="81.883138" xlink:href="#m39cdb6b494" y="532.6"/>
      </g>
     </g>
    </g>
    <g id="xtick_12">
     <g id="line2d_23">
      <path clip-path="url(#pb8f2b07de4)" d="M 97.450967 532.6 
L 97.450967 25.8 
" style="fill:none;stroke:#b0b0b0;stroke-dasharray:0.8,1.32;stroke-dashoffset:0;stroke-width:0.8;"/>
     </g>
     <g id="line2d_24">
      <g>
       <use style="stroke:#000000;stroke-width:0.6;" x="97.450967" xlink:href="#m39cdb6b494" y="532.6"/>
      </g>
     </g>
    </g>
    <g id="xtick_13">
     <g id="line2d_25">
      <path clip-path="url(#pb8f2b07de4)" d="M 105.234881 532.6 
L 105.234881 25.8 
" style="fill:none;stroke:#b0b0b0;stroke-dasharray:0.8,1.32;stroke-dashoffset:0;stroke-width:0.8;"/>
     </g>
     <g id="line2d_26">
      <g>
       <use style="stroke:#000000;stroke-width:0.6;" x="105.234881" xlink:href="#m39cdb6b494" y="532.6"/>
      </g>
     </g>
    </g>
    <g id="xtick_14">
     <g id="line2d_27">
      <path clip-path="url(#pb8f2b07de4)" d="M 113.018796 532.6 
L 113.018796 25.8 
" style="fill:none;stroke:#b0b0b0;stroke-dasharray:0.8,1.32;stroke-dashoffset:0;stroke-width:0.8;"/>
     </g>
     <g id="line2d_28">
      <g>
       <use style="stroke:#000000;stroke-width:0.6;" x="113.018796" xlink:href="#m39cdb6b494" y="532.6"/>
      </g>
     </g>
    </g>
    <g id="xtick_15">
     <g id="line2d_29">
      <path clip-path="url(#pb8f2b07de4)" d="M 120.80271 532.6 
L 120.80271 25.8 
" style="fill:none;stroke:#b0b0b0;stroke-dasharray:0.8,1.32;stroke-dashoffset:0;stroke-width:0.8;"/>
     </g>
     <g id="line2d_30">
      <g>
       <use style="stroke:#000000;stroke-width:0.6;" x="120.80271" xlink:href="#m39cdb6b494" y="532.6"/>
      </g>
     </g>
    </g>
    <g id="xtick_16">
     <g id="line2d_31">
      <path clip-path="url(#pb8f2b07de4)" d="M 136.370539 532.6 
L 136.370539 25.8 
" style="fill:none;stroke:#b0b0b0;stroke-dasharray:0.8,1.32;stroke-dashoffset:0;stroke-width:0.8;"/>
     </g>
     <g id="line2d_32">
      <g>
       <use style="stroke:#000000;stroke-width:0.6;" x="136.370539" xlink:href="#m39cdb6b494" y="532.6"/>
      </g>
     </g>
    </g>
    <g id="xtick_17">
     <g id="line2d_33">
      <path clip-path="url(#pb8f2b07de4)" d="M 144.154454 532.6 
L 144.154454 25.8 
" style="fill:none;stroke:#b0b0b0;stroke-dasharray:0.8,1.32;stroke-dashoffset:0;stroke-width:0.8;"/>
     </g>
     <g id="line2d_34">
      <g>
       <use style="stroke:#000000;stroke-width:0.6;" x="144.154454" xlink:href="#m39cdb6b494" y="532.6"/>
      </g>
     </g>
    </g>
    <g id="xtick_18">
     <g id="line2d_35">
      <path clip-path="url(#pb8f2b07de4)" d="M 151.938368 532.6 
L 151.938368 25.8 
" style="fill:none;stroke:#b0b0b0;stroke-dasharray:0.8,1.32;stroke-dashoffset:0;stroke-width:0.8;"/>
     </g>
     <g id="line2d_36">
      <g>
       <use style="stroke:#000000;stroke-width:0.6;" x="151.938368" xlink:href="#m39cdb6b494" y="532.6"/>
      </g>
     </g>
    </g>
    <g id="xtick_19">
     <g id="line2d_37">
      <path clip-path="url(#pb8f2b07de4)" d="M 159.722283 532.6 
L 159.722283 25.8 
" style="fill:none;stroke:#b0b0b0;stroke-dasharray:0.8,1.32;stroke-dashoffset:0;stroke-width:0.8;"/>
     </g>
     <g id="line2d_38">
      <g>
       <use style="stroke:#000000;stroke-width:0.6;" x="159.722283" xlink:href="#m39cdb6b494" y="532.6"/>
      </g>
     </g>
    </g>
    <g id="xtick_20">
     <g id="line2d_39">
      <path clip-path="url(#pb8f2b07de4)" d="M 175.290112 532.6 
L 175.290112 25.8 
" style="fill:none;stroke:#b0b0b0;stroke-dasharray:0.8,1.32;stroke-dashoffset:0;stroke-width:0.8;"/>
     </g>
     <g id="line2d_40">
      <g>
       <use style="stroke:#000000;stroke-width:0.6;" x="175.290112" xlink:href="#m39cdb6b494" y="532.6"/>
      </g>
     </g>
    </g>
    <g id="xtick_21">
     <g id="line2d_41">
      <path clip-path="url(#pb8f2b07de4)" d="M 183.074026 532.6 
L 183.074026 25.8 
" style="fill:none;stroke:#b0b0b0;stroke-dasharray:0.8,1.32;stroke-dashoffset:0;stroke-width:0.8;"/>
     </g>
     <g id="line2d_42">
      <g>
       <use style="stroke:#000000;stroke-width:0.6;" x="183.074026" xlink:href="#m39cdb6b494" y="532.6"/>
      </g>
     </g>
    </g>
    <g id="xtick_22">
     <g id="line2d_43">
      <path clip-path="url(#pb8f2b07de4)" d="M 190.857941 532.6 
L 190.857941 25.8 
" style="fill:none;stroke:#b0b0b0;stroke-dasharray:0.8,1.32;stroke-dashoffset:0;stroke-width:0.8;"/>
     </g>
     <g id="line2d_44">
      <g>
       <use style="stroke:#000000;stroke-width:0.6;" x="190.857941" xlink:href="#m39cdb6b494" y="532.6"/>
      </g>
     </g>
    </g>
    <g id="xtick_23">
     <g id="line2d_45">
      <path clip-path="url(#pb8f2b07de4)" d="M 198.641855 532.6 
L 198.641855 25.8 
" style="fill:none;stroke:#b0b0b0;stroke-dasharray:0.8,1.32;stroke-dashoffset:0;stroke-width:0.8;"/>
     </g>
     <g id="line2d_46">
      <g>
       <use style="stroke:#000000;stroke-width:0.6;" x="198.641855" xlink:href="#m39cdb6b494" y="532.6"/>
      </g>
     </g>
    </g>
    <g id="xtick_24">
     <g id="line2d_47">
      <path clip-path="url(#pb8f2b07de4)" d="M 214.209684 532.6 
L 214.209684 25.8 
" style="fill:none;stroke:#b0b0b0;stroke-dasharray:0.8,1.32;stroke-dashoffset:0;stroke-width:0.8;"/>
     </g>
     <g id="line2d_48">
      <g>
       <use style="stroke:#000000;stroke-width:0.6;" x="214.209684" xlink:href="#m39cdb6b494" y="532.6"/>
      </g>
     </g>
    </g>
    <g id="xtick_25">
     <g id="line2d_49">
      <path clip-path="url(#pb8f2b07de4)" d="M 221.993598 532.6 
L 221.993598 25.8 
" style="fill:none;stroke:#b0b0b0;stroke-dasharray:0.8,1.32;stroke-dashoffset:0;stroke-width:0.8;"/>
     </g>
     <g id="line2d_50">
      <g>
       <use style="stroke:#000000;stroke-width:0.6;" x="221.993598" xlink:href="#m39cdb6b494" y="532.6"/>
      </g>
     </g>
    </g>
    <g id="xtick_26">
     <g id="line2d_51">
      <path clip-path="url(#pb8f2b07de4)" d="M 229.777513 532.6 
L 229.777513 25.8 
" style="fill:none;stroke:#b0b0b0;stroke-dasharray:0.8,1.32;stroke-dashoffset:0;stroke-width:0.8;"/>
     </g>
     <g id="line2d_52">
      <g>
       <use style="stroke:#000000;stroke-width:0.6;" x="229.777513" xlink:href="#m39cdb6b494" y="532.6"/>
      </g>
     </g>
    </g>
    <g id="xtick_27">
     <g id="line2d_53">
      <path clip-path="url(#pb8f2b07de4)" d="M 237.561427 532.6 
L 237.561427 25.8 
" style="fill:none;stroke:#b0b0b0;stroke-dasharray:0.8,1.32;stroke-dashoffset:0;stroke-width:0.8;"/>
     </g>
     <g id="line2d_54">
      <g>
       <use style="stroke:#000000;stroke-width:0.6;" x="237.561427" xlink:href="#m39cdb6b494" y="532.6"/>
      </g>
     </g>
    </g>
    <g id="xtick_28">
     <g id="line2d_55">
      <path clip-path="url(#pb8f2b07de4)" d="M 253.129256 532.6 
L 253.129256 25.8 
" style="fill:none;stroke:#b0b0b0;stroke-dasharray:0.8,1.32;stroke-dashoffset:0;stroke-width:0.8;"/>
     </g>
     <g id="line2d_56">
      <g>
       <use style="stroke:#000000;stroke-width:0.6;" x="253.129256" xlink:href="#m39cdb6b494" y="532.6"/>
      </g>
     </g>
    </g>
    <g id="xtick_29">
     <g id="line2d_57">
      <path clip-path="url(#pb8f2b07de4)" d="M 260.913171 532.6 
L 260.913171 25.8 
" style="fill:none;stroke:#b0b0b0;stroke-dasharray:0.8,1.32;stroke-dashoffset:0;stroke-width:0.8;"/>
     </g>
     <g id="line2d_58">
      <g>
       <use style="stroke:#000000;stroke-width:0.6;" x="260.913171" xlink:href="#m39cdb6b494" y="532.6"/>
      </g>
     </g>
    </g>
    <g id="xtick_30">
     <g id="line2d_59">
      <path clip-path="url(#pb8f2b07de4)" d="M 268.697085 532.6 
L 268.697085 25.8 
" style="fill:none;stroke:#b0b0b0;stroke-dasharray:0.8,1.32;stroke-dashoffset:0;stroke-width:0.8;"/>
     </g>
     <g id="line2d_60">
      <g>
       <use style="stroke:#000000;stroke-width:0.6;" x="268.697085" xlink:href="#m39cdb6b494" y="532.6"/>
      </g>
     </g>
    </g>
    <g id="xtick_31">
     <g id="line2d_61">
      <path clip-path="url(#pb8f2b07de4)" d="M 276.481 532.6 
L 276.481 25.8 
" style="fill:none;stroke:#b0b0b0;stroke-dasharray:0.8,1.32;stroke-dashoffset:0;stroke-width:0.8;"/>
     </g>
     <g id="line2d_62">
      <g>
       <use style="stroke:#000000;stroke-width:0.6;" x="276.481" xlink:href="#m39cdb6b494" y="532.6"/>
      </g>
     </g>
    </g>
    <g id="text_7">
     <!-- iteration -->
     <defs>
      <path d="M 9.421875 54.6875 
L 18.40625 54.6875 
L 18.40625 0 
L 9.421875 0 
z
M 9.421875 75.984375 
L 18.40625 75.984375 
L 18.40625 64.59375 
L 9.421875 64.59375 
z
" id="DejaVuSans-69"/>
      <path d="M 18.3125 70.21875 
L 18.3125 54.6875 
L 36.8125 54.6875 
L 36.8125 47.703125 
L 18.3125 47.703125 
L 18.3125 18.015625 
Q 18.3125 11.328125 20.140625 9.421875 
Q 21.96875 7.515625 27.59375 7.515625 
L 36.8125 7.515625 
L 36.8125 0 
L 27.59375 0 
Q 17.1875 0 13.234375 3.875 
Q 9.28125 7.765625 9.28125 18.015625 
L 9.28125 47.703125 
L 2.6875 47.703125 
L 2.6875 54.6875 
L 9.28125 54.6875 
L 9.28125 70.21875 
z
" id="DejaVuSans-74"/>
      <path d="M 56.203125 29.59375 
L 56.203125 25.203125 
L 14.890625 25.203125 
Q 15.484375 15.921875 20.484375 11.0625 
Q 25.484375 6.203125 34.421875 6.203125 
Q 39.59375 6.203125 44.453125 7.46875 
Q 49.3125 8.734375 54.109375 11.28125 
L 54.109375 2.78125 
Q 49.265625 0.734375 44.1875 -0.34375 
Q 39.109375 -1.421875 33.890625 -1.421875 
Q 20.796875 -1.421875 13.15625 6.1875 
Q 5.515625 13.8125 5.515625 26.8125 
Q 5.515625 40.234375 12.765625 48.109375 
Q 20.015625 56 32.328125 56 
Q 43.359375 56 49.78125 48.890625 
Q 56.203125 41.796875 56.203125 29.59375 
z
M 47.21875 32.234375 
Q 47.125 39.59375 43.09375 43.984375 
Q 39.0625 48.390625 32.421875 48.390625 
Q 24.90625 48.390625 20.390625 44.140625 
Q 15.875 39.890625 15.1875 32.171875 
z
" id="DejaVuSans-65"/>
      <path d="M 41.109375 46.296875 
Q 39.59375 47.171875 37.8125 47.578125 
Q 36.03125 48 33.890625 48 
Q 26.265625 48 22.1875 43.046875 
Q 18.109375 38.09375 18.109375 28.8125 
L 18.109375 0 
L 9.078125 0 
L 9.078125 54.6875 
L 18.109375 54.6875 
L 18.109375 46.1875 
Q 20.953125 51.171875 25.484375 53.578125 
Q 30.03125 56 36.53125 56 
Q 37.453125 56 38.578125 55.875 
Q 39.703125 55.765625 41.0625 55.515625 
z
" id="DejaVuSans-72"/>
      <path d="M 34.28125 27.484375 
Q 23.390625 27.484375 19.1875 25 
Q 14.984375 22.515625 14.984375 16.5 
Q 14.984375 11.71875 18.140625 8.90625 
Q 21.296875 6.109375 26.703125 6.109375 
Q 34.1875 6.109375 38.703125 11.40625 
Q 43.21875 16.703125 43.21875 25.484375 
L 43.21875 27.484375 
z
M 52.203125 31.203125 
L 52.203125 0 
L 43.21875 0 
L 43.21875 8.296875 
Q 40.140625 3.328125 35.546875 0.953125 
Q 30.953125 -1.421875 24.3125 -1.421875 
Q 15.921875 -1.421875 10.953125 3.296875 
Q 6 8.015625 6 15.921875 
Q 6 25.140625 12.171875 29.828125 
Q 18.359375 34.515625 30.609375 34.515625 
L 43.21875 34.515625 
L 43.21875 35.40625 
Q 43.21875 41.609375 39.140625 45 
Q 35.0625 48.390625 27.6875 48.390625 
Q 23 48.390625 18.546875 47.265625 
Q 14.109375 46.140625 10.015625 43.890625 
L 10.015625 52.203125 
Q 14.9375 54.109375 19.578125 55.046875 
Q 24.21875 56 28.609375 56 
Q 40.484375 56 46.34375 49.84375 
Q 52.203125 43.703125 52.203125 31.203125 
z
" id="DejaVuSans-61"/>
      <path d="M 30.609375 48.390625 
Q 23.390625 48.390625 19.1875 42.75 
Q 14.984375 37.109375 14.984375 27.296875 
Q 14.984375 17.484375 19.15625 11.84375 
Q 23.34375 6.203125 30.609375 6.203125 
Q 37.796875 6.203125 41.984375 11.859375 
Q 46.1875 17.53125 46.1875 27.296875 
Q 46.1875 37.015625 41.984375 42.703125 
Q 37.796875 48.390625 30.609375 48.390625 
z
M 30.609375 56 
Q 42.328125 56 49.015625 48.375 
Q 55.71875 40.765625 55.71875 27.296875 
Q 55.71875 13.875 49.015625 6.21875 
Q 42.328125 -1.421875 30.609375 -1.421875 
Q 18.84375 -1.421875 12.171875 6.21875 
Q 5.515625 13.875 5.515625 27.296875 
Q 5.515625 40.765625 12.171875 48.375 
Q 18.84375 56 30.609375 56 
z
" id="DejaVuSans-6f"/>
      <path d="M 54.890625 33.015625 
L 54.890625 0 
L 45.90625 0 
L 45.90625 32.71875 
Q 45.90625 40.484375 42.875 44.328125 
Q 39.84375 48.1875 33.796875 48.1875 
Q 26.515625 48.1875 22.3125 43.546875 
Q 18.109375 38.921875 18.109375 30.90625 
L 18.109375 0 
L 9.078125 0 
L 9.078125 54.6875 
L 18.109375 54.6875 
L 18.109375 46.1875 
Q 21.34375 51.125 25.703125 53.5625 
Q 30.078125 56 35.796875 56 
Q 45.21875 56 50.046875 50.171875 
Q 54.890625 44.34375 54.890625 33.015625 
z
" id="DejaVuSans-6e"/>
     </defs>
     <g transform="translate(138.599626 560.876562)scale(0.1 -0.1)">
      <use xlink:href="#DejaVuSans-69"/>
      <use x="27.783203" xlink:href="#DejaVuSans-74"/>
      <use x="66.992188" xlink:href="#DejaVuSans-65"/>
      <use x="128.515625" xlink:href="#DejaVuSans-72"/>
      <use x="169.628906" xlink:href="#DejaVuSans-61"/>
      <use x="230.908203" xlink:href="#DejaVuSans-74"/>
      <use x="270.117188" xlink:href="#DejaVuSans-69"/>
      <use x="297.900391" xlink:href="#DejaVuSans-6f"/>
      <use x="359.082031" xlink:href="#DejaVuSans-6e"/>
     </g>
    </g>
   </g>
   <g id="matplotlib.axis_2">
    <g id="ytick_1">
     <g id="line2d_63">
      <defs>
       <path d="M 0 0 
L -3.5 0 
" id="mbd87aa84a2" style="stroke:#000000;stroke-width:0.8;"/>
      </defs>
      <g>
       <use style="stroke:#000000;stroke-width:0.8;" x="39.85" xlink:href="#mbd87aa84a2" y="459.725329"/>
      </g>
     </g>
     <g id="text_8">
      <!-- 0.50 -->
      <defs>
       <path d="M 10.6875 12.40625 
L 21 12.40625 
L 21 0 
L 10.6875 0 
z
" id="DejaVuSans-2e"/>
      </defs>
      <g transform="translate(10.584375 463.524548)scale(0.1 -0.1)">
       <use xlink:href="#DejaVuSans-30"/>
       <use x="63.623047" xlink:href="#DejaVuSans-2e"/>
       <use x="95.410156" xlink:href="#DejaVuSans-35"/>
       <use x="159.033203" xlink:href="#DejaVuSans-30"/>
      </g>
     </g>
    </g>
    <g id="ytick_2">
     <g id="line2d_64">
      <g>
       <use style="stroke:#000000;stroke-width:0.8;" x="39.85" xlink:href="#mbd87aa84a2" y="350.169272"/>
      </g>
     </g>
     <g id="text_9">
      <!-- 0.55 -->
      <g transform="translate(10.584375 353.968491)scale(0.1 -0.1)">
       <use xlink:href="#DejaVuSans-30"/>
       <use x="63.623047" xlink:href="#DejaVuSans-2e"/>
       <use x="95.410156" xlink:href="#DejaVuSans-35"/>
       <use x="159.033203" xlink:href="#DejaVuSans-35"/>
      </g>
     </g>
    </g>
    <g id="ytick_3">
     <g id="line2d_65">
      <g>
       <use style="stroke:#000000;stroke-width:0.8;" x="39.85" xlink:href="#mbd87aa84a2" y="240.613216"/>
      </g>
     </g>
     <g id="text_10">
      <!-- 0.60 -->
      <defs>
       <path d="M 33.015625 40.375 
Q 26.375 40.375 22.484375 35.828125 
Q 18.609375 31.296875 18.609375 23.390625 
Q 18.609375 15.53125 22.484375 10.953125 
Q 26.375 6.390625 33.015625 6.390625 
Q 39.65625 6.390625 43.53125 10.953125 
Q 47.40625 15.53125 47.40625 23.390625 
Q 47.40625 31.296875 43.53125 35.828125 
Q 39.65625 40.375 33.015625 40.375 
z
M 52.59375 71.296875 
L 52.59375 62.3125 
Q 48.875 64.0625 45.09375 64.984375 
Q 41.3125 65.921875 37.59375 65.921875 
Q 27.828125 65.921875 22.671875 59.328125 
Q 17.53125 52.734375 16.796875 39.40625 
Q 19.671875 43.65625 24.015625 45.921875 
Q 28.375 48.1875 33.59375 48.1875 
Q 44.578125 48.1875 50.953125 41.515625 
Q 57.328125 34.859375 57.328125 23.390625 
Q 57.328125 12.15625 50.6875 5.359375 
Q 44.046875 -1.421875 33.015625 -1.421875 
Q 20.359375 -1.421875 13.671875 8.265625 
Q 6.984375 17.96875 6.984375 36.375 
Q 6.984375 53.65625 15.1875 63.9375 
Q 23.390625 74.21875 37.203125 74.21875 
Q 40.921875 74.21875 44.703125 73.484375 
Q 48.484375 72.75 52.59375 71.296875 
z
" id="DejaVuSans-36"/>
      </defs>
      <g transform="translate(10.584375 244.412434)scale(0.1 -0.1)">
       <use xlink:href="#DejaVuSans-30"/>
       <use x="63.623047" xlink:href="#DejaVuSans-2e"/>
       <use x="95.410156" xlink:href="#DejaVuSans-36"/>
       <use x="159.033203" xlink:href="#DejaVuSans-30"/>
      </g>
     </g>
    </g>
    <g id="ytick_4">
     <g id="line2d_66">
      <g>
       <use style="stroke:#000000;stroke-width:0.8;" x="39.85" xlink:href="#mbd87aa84a2" y="131.057159"/>
      </g>
     </g>
     <g id="text_11">
      <!-- 0.65 -->
      <g transform="translate(10.584375 134.856378)scale(0.1 -0.1)">
       <use xlink:href="#DejaVuSans-30"/>
       <use x="63.623047" xlink:href="#DejaVuSans-2e"/>
       <use x="95.410156" xlink:href="#DejaVuSans-36"/>
       <use x="159.033203" xlink:href="#DejaVuSans-35"/>
      </g>
     </g>
    </g>
    <g id="ytick_5">
     <g id="line2d_67">
      <defs>
       <path d="M 0 0 
L -2 0 
" id="m19f595016a" style="stroke:#000000;stroke-width:0.6;"/>
      </defs>
      <g>
       <use style="stroke:#000000;stroke-width:0.6;" x="39.85" xlink:href="#m19f595016a" y="525.458963"/>
      </g>
     </g>
    </g>
    <g id="ytick_6">
     <g id="line2d_68">
      <g>
       <use style="stroke:#000000;stroke-width:0.6;" x="39.85" xlink:href="#m19f595016a" y="503.547752"/>
      </g>
     </g>
    </g>
    <g id="ytick_7">
     <g id="line2d_69">
      <g>
       <use style="stroke:#000000;stroke-width:0.6;" x="39.85" xlink:href="#m19f595016a" y="481.63654"/>
      </g>
     </g>
    </g>
    <g id="ytick_8">
     <g id="line2d_70">
      <g>
       <use style="stroke:#000000;stroke-width:0.6;" x="39.85" xlink:href="#m19f595016a" y="437.814118"/>
      </g>
     </g>
    </g>
    <g id="ytick_9">
     <g id="line2d_71">
      <g>
       <use style="stroke:#000000;stroke-width:0.6;" x="39.85" xlink:href="#m19f595016a" y="415.902906"/>
      </g>
     </g>
    </g>
    <g id="ytick_10">
     <g id="line2d_72">
      <g>
       <use style="stroke:#000000;stroke-width:0.6;" x="39.85" xlink:href="#m19f595016a" y="393.991695"/>
      </g>
     </g>
    </g>
    <g id="ytick_11">
     <g id="line2d_73">
      <g>
       <use style="stroke:#000000;stroke-width:0.6;" x="39.85" xlink:href="#m19f595016a" y="372.080484"/>
      </g>
     </g>
    </g>
    <g id="ytick_12">
     <g id="line2d_74">
      <g>
       <use style="stroke:#000000;stroke-width:0.6;" x="39.85" xlink:href="#m19f595016a" y="328.258061"/>
      </g>
     </g>
    </g>
    <g id="ytick_13">
     <g id="line2d_75">
      <g>
       <use style="stroke:#000000;stroke-width:0.6;" x="39.85" xlink:href="#m19f595016a" y="306.34685"/>
      </g>
     </g>
    </g>
    <g id="ytick_14">
     <g id="line2d_76">
      <g>
       <use style="stroke:#000000;stroke-width:0.6;" x="39.85" xlink:href="#m19f595016a" y="284.435638"/>
      </g>
     </g>
    </g>
    <g id="ytick_15">
     <g id="line2d_77">
      <g>
       <use style="stroke:#000000;stroke-width:0.6;" x="39.85" xlink:href="#m19f595016a" y="262.524427"/>
      </g>
     </g>
    </g>
    <g id="ytick_16">
     <g id="line2d_78">
      <g>
       <use style="stroke:#000000;stroke-width:0.6;" x="39.85" xlink:href="#m19f595016a" y="218.702004"/>
      </g>
     </g>
    </g>
    <g id="ytick_17">
     <g id="line2d_79">
      <g>
       <use style="stroke:#000000;stroke-width:0.6;" x="39.85" xlink:href="#m19f595016a" y="196.790793"/>
      </g>
     </g>
    </g>
    <g id="ytick_18">
     <g id="line2d_80">
      <g>
       <use style="stroke:#000000;stroke-width:0.6;" x="39.85" xlink:href="#m19f595016a" y="174.879582"/>
      </g>
     </g>
    </g>
    <g id="ytick_19">
     <g id="line2d_81">
      <g>
       <use style="stroke:#000000;stroke-width:0.6;" x="39.85" xlink:href="#m19f595016a" y="152.96837"/>
      </g>
     </g>
    </g>
    <g id="ytick_20">
     <g id="line2d_82">
      <g>
       <use style="stroke:#000000;stroke-width:0.6;" x="39.85" xlink:href="#m19f595016a" y="109.145948"/>
      </g>
     </g>
    </g>
    <g id="ytick_21">
     <g id="line2d_83">
      <g>
       <use style="stroke:#000000;stroke-width:0.6;" x="39.85" xlink:href="#m19f595016a" y="87.234736"/>
      </g>
     </g>
    </g>
    <g id="ytick_22">
     <g id="line2d_84">
      <g>
       <use style="stroke:#000000;stroke-width:0.6;" x="39.85" xlink:href="#m19f595016a" y="65.323525"/>
      </g>
     </g>
    </g>
    <g id="ytick_23">
     <g id="line2d_85">
      <g>
       <use style="stroke:#000000;stroke-width:0.6;" x="39.85" xlink:href="#m19f595016a" y="43.412313"/>
      </g>
     </g>
    </g>
   </g>
   <g id="line2d_86">
    <path clip-path="url(#pb8f2b07de4)" d="M 50.74748 509.562038 
L 56.001623 509.462384 
L 56.19622 509.193651 
L 56.390818 508.46613 
L 56.624336 506.456302 
L 56.935692 501.334627 
L 57.597325 489.90058 
L 57.986521 487.1159 
L 58.414636 484.072672 
L 58.803832 479.293415 
L 59.309786 469.731896 
L 59.85466 455.021322 
L 60.438454 432.365527 
L 61.139006 396.011693 
L 61.800639 350.297388 
L 62.423352 291.49789 
L 63.785537 151.100177 
L 63.863376 150.502341 
L 63.902296 150.663086 
L 64.019054 152.707605 
L 64.602848 168.520967 
L 64.641768 168.291427 
L 64.758526 166.058031 
L 64.992044 155.597142 
L 65.692596 119.47041 
L 65.926113 116.228144 
L 66.393148 113.413586 
L 66.587746 108.54 
L 66.860183 95.239914 
L 67.677494 48.928508 
L 67.716414 48.836364 
L 67.794253 49.617395 
L 67.949931 54.924937 
L 68.222368 73.782536 
L 69.467795 171.532218 
L 70.285106 218.931193 
L 70.518623 223.489006 
L 70.557543 223.62296 
L 70.596462 223.588041 
L 70.713221 222.576034 
L 71.024577 216.299127 
L 71.258095 213.366168 
L 71.297014 213.363509 
L 71.374854 213.866086 
L 71.530532 216.88368 
L 72.192165 236.045275 
L 72.270004 235.543696 
L 72.425682 231.392943 
L 72.698119 214.979279 
L 73.55435 154.726266 
L 73.787867 150.473929 
L 73.865706 150.33065 
L 73.904626 150.466158 
L 74.060304 152.218298 
L 74.332741 158.995675 
L 74.760856 176.394703 
L 77.13495 286.561586 
L 77.485226 293.429969 
L 77.679824 294.510117 
L 77.757663 294.446107 
L 77.913342 293.531023 
L 78.146859 290.289013 
L 78.497135 281.356775 
L 79.00309 261.189415 
L 79.976079 221.443357 
L 80.404194 212.750468 
L 80.715551 210.051226 
L 80.949068 209.521924 
L 81.065827 209.662697 
L 81.260425 210.482353 
L 81.532862 212.954106 
L 81.883138 218.650142 
L 82.466932 232.92008 
L 83.089645 246.524392 
L 83.51776 251.597157 
L 83.829117 253.205946 
L 83.984795 253.371629 
L 84.101554 253.208286 
L 84.296152 252.393998 
L 84.607508 249.847856 
L 85.191302 242.622375 
L 85.930774 230.722356 
L 86.787004 216.942106 
L 87.059441 215.17092 
L 87.1762 214.991413 
L 87.21512 215.008371 
L 87.331878 215.279031 
L 87.565396 216.683449 
L 88.616224 224.708188 
L 88.849742 224.902602 
L 89.238937 224.994764 
L 89.472455 225.470577 
L 89.822731 226.872603 
L 90.756801 231.836329 
L 91.72979 237.592272 
L 91.846549 237.625086 
L 91.963307 237.397132 
L 92.157905 236.419147 
L 92.469262 233.442078 
L 93.636849 220.51402 
L 93.831447 220.150028 
L 93.948206 220.254775 
L 94.142803 220.893243 
L 94.49308 223.069439 
L 95.777425 231.858112 
L 97.295289 239.641662 
L 97.645565 240.389967 
L 97.840163 240.470383 
L 98.034761 240.278698 
L 98.268278 239.666147 
L 98.618554 237.993085 
L 99.358026 232.886687 
L 99.9029 229.893931 
L 100.292096 228.817242 
L 100.564533 228.569056 
L 100.79805 228.63095 
L 101.070487 228.969058 
L 101.459683 229.883171 
L 101.926718 231.627925 
L 102.588351 235.141639 
L 103.327822 238.763635 
L 103.639179 239.362614 
L 103.794857 239.354299 
L 103.989455 239.043374 
L 104.261892 238.086808 
L 104.728927 235.437581 
L 105.662997 230.070403 
L 106.052192 228.968558 
L 106.32463 228.693091 
L 106.558147 228.743897 
L 106.830584 229.076116 
L 107.258699 230.017558 
L 108.270608 233.013033 
L 109.087919 235.071279 
L 109.554954 235.714528 
L 109.866311 235.828693 
L 110.138748 235.704212 
L 110.489024 235.256883 
L 110.994978 234.186594 
L 112.512842 230.749301 
L 113.018796 230.190852 
L 113.369072 230.080911 
L 113.680429 230.197755 
L 114.030705 230.573298 
L 114.536659 231.489561 
L 115.626407 233.563272 
L 115.976683 233.806054 
L 116.28804 233.757777 
L 116.638316 233.423339 
L 117.144271 232.55519 
L 118.428616 230.191759 
L 118.895651 229.790314 
L 119.323767 229.707123 
L 119.751882 229.873462 
L 120.257836 230.331162 
L 122.203815 232.390072 
L 122.63193 232.3898 
L 123.060046 232.143074 
L 123.60492 231.533357 
L 125.317381 229.391531 
L 125.784416 229.249055 
L 126.212531 229.350165 
L 126.796325 229.753152 
L 128.08067 230.717675 
L 128.586625 230.796182 
L 129.092579 230.644467 
L 129.754212 230.17928 
L 131.349915 228.942421 
L 131.933708 228.809035 
L 132.517502 228.91478 
L 133.256974 229.303093 
L 134.580239 230.024804 
L 135.164033 230.080818 
L 135.747826 229.908266 
L 136.526218 229.409517 
L 137.849483 228.548258 
L 138.511116 228.401954 
L 139.211668 228.491426 
L 141.624682 229.039034 
L 142.480912 228.831906 
L 144.621489 228.18806 
L 145.516639 228.246809 
L 147.890733 228.561069 
L 148.863722 228.345448 
L 150.88754 227.829907 
L 151.938368 227.857469 
L 154.662738 228.069172 
L 156.491958 227.784138 
L 157.893063 227.690647 
L 161.668261 227.636303 
L 163.847757 227.451393 
L 169.218658 227.387071 
L 171.203557 227.330029 
L 174.900916 227.299143 
L 178.014482 227.246075 
L 181.711841 227.191983 
L 186.226511 227.142533 
L 217.128652 226.944303 
L 240.830671 226.881286 
L 268.697085 226.839769 
L 268.697085 226.839769 
" style="fill:none;stroke:#000000;stroke-linecap:square;stroke-width:1.5;"/>
   </g>
   <g id="line2d_87">
    <path clip-path="url(#pb8f2b07de4)" d="M 50.74748 249.981371 
L 75.30573 249.870624 
L 100.564533 249.420011 
L 109.710632 249.158733 
L 113.369072 249.020607 
L 116.28804 248.972076 
L 119.129169 248.94146 
L 122.203815 248.927305 
L 126.095772 248.889414 
L 128.586625 248.71197 
L 131.700191 248.729979 
L 133.256974 248.288433 
L 134.385641 248.085933 
L 135.39755 248.132106 
L 136.448378 248.416847 
L 137.732724 248.750369 
L 141.469003 249.061624 
L 142.247395 249.49147 
L 144.54365 251.004353 
L 145.750156 251.492312 
L 147.773974 251.926229 
L 148.435607 251.707399 
L 149.252918 251.192206 
L 150.342666 250.220034 
L 151.938368 248.454172 
L 154.584899 245.173044 
L 167.739715 228.29311 
L 169.491095 226.422967 
L 170.580843 225.554731 
L 171.398154 225.158186 
L 172.059787 225.075172 
L 172.760339 225.240587 
L 175.40687 226.275111 
L 176.457699 226.945646 
L 177.819884 227.89155 
L 178.676114 228.165572 
L 179.649104 228.236665 
L 182.373474 228.393172 
L 184.55297 228.939823 
L 185.564879 228.875566 
L 186.771385 228.555548 
L 188.250329 228.210964 
L 189.378997 228.205301 
L 192.103367 228.272844 
L 195.839646 228.033618 
L 199.498086 228.10153 
L 212.536142 227.780694 
L 216.272421 227.679344 
L 225.418521 227.436015 
L 234.720299 227.263549 
L 268.191131 227.038893 
L 268.697085 227.038914 
L 268.697085 227.038914 
" style="fill:none;stroke:#1f77b4;stroke-linecap:square;stroke-width:1.5;"/>
   </g>
   <g id="patch_3">
    <path d="M 39.85 532.6 
L 39.85 25.8 
" style="fill:none;stroke:#000000;stroke-linecap:square;stroke-linejoin:miter;stroke-width:0.8;"/>
   </g>
   <g id="patch_4">
    <path d="M 279.594565 532.6 
L 279.594565 25.8 
" style="fill:none;stroke:#000000;stroke-linecap:square;stroke-linejoin:miter;stroke-width:0.8;"/>
   </g>
   <g id="patch_5">
    <path d="M 39.85 532.6 
L 279.594565 532.6 
" style="fill:none;stroke:#000000;stroke-linecap:square;stroke-linejoin:miter;stroke-width:0.8;"/>
   </g>
   <g id="patch_6">
    <path d="M 39.85 25.8 
L 279.594565 25.8 
" style="fill:none;stroke:#000000;stroke-linecap:square;stroke-linejoin:miter;stroke-width:0.8;"/>
   </g>
   <g id="text_12">
    <!-- AIRFOIL -->
    <defs>
     <path d="M 34.1875 63.1875 
L 20.796875 26.90625 
L 47.609375 26.90625 
z
M 28.609375 72.90625 
L 39.796875 72.90625 
L 67.578125 0 
L 57.328125 0 
L 50.6875 18.703125 
L 17.828125 18.703125 
L 11.1875 0 
L 0.78125 0 
z
" id="DejaVuSans-41"/>
     <path d="M 9.8125 72.90625 
L 19.671875 72.90625 
L 19.671875 0 
L 9.8125 0 
z
" id="DejaVuSans-49"/>
     <path d="M 44.390625 34.1875 
Q 47.5625 33.109375 50.5625 29.59375 
Q 53.5625 26.078125 56.59375 19.921875 
L 66.609375 0 
L 56 0 
L 46.6875 18.703125 
Q 43.0625 26.03125 39.671875 28.421875 
Q 36.28125 30.8125 30.421875 30.8125 
L 19.671875 30.8125 
L 19.671875 0 
L 9.8125 0 
L 9.8125 72.90625 
L 32.078125 72.90625 
Q 44.578125 72.90625 50.734375 67.671875 
Q 56.890625 62.453125 56.890625 51.90625 
Q 56.890625 45.015625 53.6875 40.46875 
Q 50.484375 35.9375 44.390625 34.1875 
z
M 19.671875 64.796875 
L 19.671875 38.921875 
L 32.078125 38.921875 
Q 39.203125 38.921875 42.84375 42.21875 
Q 46.484375 45.515625 46.484375 51.90625 
Q 46.484375 58.296875 42.84375 61.546875 
Q 39.203125 64.796875 32.078125 64.796875 
z
" id="DejaVuSans-52"/>
     <path d="M 9.8125 72.90625 
L 51.703125 72.90625 
L 51.703125 64.59375 
L 19.671875 64.59375 
L 19.671875 43.109375 
L 48.578125 43.109375 
L 48.578125 34.8125 
L 19.671875 34.8125 
L 19.671875 0 
L 9.8125 0 
z
" id="DejaVuSans-46"/>
     <path d="M 39.40625 66.21875 
Q 28.65625 66.21875 22.328125 58.203125 
Q 16.015625 50.203125 16.015625 36.375 
Q 16.015625 22.609375 22.328125 14.59375 
Q 28.65625 6.59375 39.40625 6.59375 
Q 50.140625 6.59375 56.421875 14.59375 
Q 62.703125 22.609375 62.703125 36.375 
Q 62.703125 50.203125 56.421875 58.203125 
Q 50.140625 66.21875 39.40625 66.21875 
z
M 39.40625 74.21875 
Q 54.734375 74.21875 63.90625 63.9375 
Q 73.09375 53.65625 73.09375 36.375 
Q 73.09375 19.140625 63.90625 8.859375 
Q 54.734375 -1.421875 39.40625 -1.421875 
Q 24.03125 -1.421875 14.8125 8.828125 
Q 5.609375 19.09375 5.609375 36.375 
Q 5.609375 53.65625 14.8125 63.9375 
Q 24.03125 74.21875 39.40625 74.21875 
z
" id="DejaVuSans-4f"/>
     <path d="M 9.8125 72.90625 
L 19.671875 72.90625 
L 19.671875 8.296875 
L 55.171875 8.296875 
L 55.171875 0 
L 9.8125 0 
z
" id="DejaVuSans-4c"/>
    </defs>
    <g transform="translate(136.391658 19.8)scale(0.12 -0.12)">
     <use xlink:href="#DejaVuSans-41"/>
     <use x="68.408203" xlink:href="#DejaVuSans-49"/>
     <use x="97.900391" xlink:href="#DejaVuSans-52"/>
     <use x="167.382812" xlink:href="#DejaVuSans-46"/>
     <use x="224.902344" xlink:href="#DejaVuSans-4f"/>
     <use x="303.613281" xlink:href="#DejaVuSans-49"/>
     <use x="333.105469" xlink:href="#DejaVuSans-4c"/>
    </g>
   </g>
   <g id="legend_1">
    <g id="patch_7">
     <path d="M 183.921128 63.15625 
L 272.594565 63.15625 
Q 274.594565 63.15625 274.594565 61.15625 
L 274.594565 32.8 
Q 274.594565 30.8 272.594565 30.8 
L 183.921128 30.8 
Q 181.921128 30.8 181.921128 32.8 
L 181.921128 61.15625 
Q 181.921128 63.15625 183.921128 63.15625 
z
" style="fill:#ffffff;opacity:0.8;stroke:#cccccc;stroke-linejoin:miter;"/>
    </g>
    <g id="line2d_88">
     <path d="M 185.921128 38.898437 
L 205.921128 38.898437 
" style="fill:none;stroke:#000000;stroke-linecap:square;stroke-width:1.5;"/>
    </g>
    <g id="line2d_89"/>
    <g id="text_13">
     <!-- CL -->
     <defs>
      <path d="M 64.40625 67.28125 
L 64.40625 56.890625 
Q 59.421875 61.53125 53.78125 63.8125 
Q 48.140625 66.109375 41.796875 66.109375 
Q 29.296875 66.109375 22.65625 58.46875 
Q 16.015625 50.828125 16.015625 36.375 
Q 16.015625 21.96875 22.65625 14.328125 
Q 29.296875 6.6875 41.796875 6.6875 
Q 48.140625 6.6875 53.78125 8.984375 
Q 59.421875 11.28125 64.40625 15.921875 
L 64.40625 5.609375 
Q 59.234375 2.09375 53.4375 0.328125 
Q 47.65625 -1.421875 41.21875 -1.421875 
Q 24.65625 -1.421875 15.125 8.703125 
Q 5.609375 18.84375 5.609375 36.375 
Q 5.609375 53.953125 15.125 64.078125 
Q 24.65625 74.21875 41.21875 74.21875 
Q 47.75 74.21875 53.53125 72.484375 
Q 59.328125 70.75 64.40625 67.28125 
z
" id="DejaVuSans-43"/>
     </defs>
     <g transform="translate(213.921128 42.398437)scale(0.1 -0.1)">
      <use xlink:href="#DejaVuSans-43"/>
      <use x="69.824219" xlink:href="#DejaVuSans-4c"/>
     </g>
    </g>
    <g id="line2d_90">
     <path d="M 185.921128 53.576562 
L 205.921128 53.576562 
" style="fill:none;stroke:#1f77b4;stroke-linecap:square;stroke-width:1.5;"/>
    </g>
    <g id="line2d_91"/>
    <g id="text_14">
     <!-- average CL -->
     <defs>
      <path d="M 2.984375 54.6875 
L 12.5 54.6875 
L 29.59375 8.796875 
L 46.6875 54.6875 
L 56.203125 54.6875 
L 35.6875 0 
L 23.484375 0 
z
" id="DejaVuSans-76"/>
      <path d="M 45.40625 27.984375 
Q 45.40625 37.75 41.375 43.109375 
Q 37.359375 48.484375 30.078125 48.484375 
Q 22.859375 48.484375 18.828125 43.109375 
Q 14.796875 37.75 14.796875 27.984375 
Q 14.796875 18.265625 18.828125 12.890625 
Q 22.859375 7.515625 30.078125 7.515625 
Q 37.359375 7.515625 41.375 12.890625 
Q 45.40625 18.265625 45.40625 27.984375 
z
M 54.390625 6.78125 
Q 54.390625 -7.171875 48.1875 -13.984375 
Q 42 -20.796875 29.203125 -20.796875 
Q 24.46875 -20.796875 20.265625 -20.09375 
Q 16.0625 -19.390625 12.109375 -17.921875 
L 12.109375 -9.1875 
Q 16.0625 -11.328125 19.921875 -12.34375 
Q 23.78125 -13.375 27.78125 -13.375 
Q 36.625 -13.375 41.015625 -8.765625 
Q 45.40625 -4.15625 45.40625 5.171875 
L 45.40625 9.625 
Q 42.625 4.78125 38.28125 2.390625 
Q 33.9375 0 27.875 0 
Q 17.828125 0 11.671875 7.65625 
Q 5.515625 15.328125 5.515625 27.984375 
Q 5.515625 40.671875 11.671875 48.328125 
Q 17.828125 56 27.875 56 
Q 33.9375 56 38.28125 53.609375 
Q 42.625 51.21875 45.40625 46.390625 
L 45.40625 54.6875 
L 54.390625 54.6875 
z
" id="DejaVuSans-67"/>
      <path id="DejaVuSans-20"/>
     </defs>
     <g transform="translate(213.921128 57.076562)scale(0.1 -0.1)">
      <use xlink:href="#DejaVuSans-61"/>
      <use x="61.279297" xlink:href="#DejaVuSans-76"/>
      <use x="120.458984" xlink:href="#DejaVuSans-65"/>
      <use x="181.982422" xlink:href="#DejaVuSans-72"/>
      <use x="223.095703" xlink:href="#DejaVuSans-61"/>
      <use x="284.375" xlink:href="#DejaVuSans-67"/>
      <use x="347.851562" xlink:href="#DejaVuSans-65"/>
      <use x="409.375" xlink:href="#DejaVuSans-20"/>
      <use x="441.162109" xlink:href="#DejaVuSans-43"/>
      <use x="510.986328" xlink:href="#DejaVuSans-4c"/>
     </g>
    </g>
   </g>
  </g>
  <g id="axes_2">
   <g id="patch_8">
    <path d="M 323.355435 532.6 
L 563.1 532.6 
L 563.1 25.8 
L 323.355435 25.8 
z
" style="fill:#ffffff;"/>
   </g>
   <g id="matplotlib.axis_3">
    <g id="xtick_32">
     <g id="line2d_92">
      <path clip-path="url(#p98445775dd)" d="M 334.252915 532.6 
L 334.252915 25.8 
" style="fill:none;stroke:#b0b0b0;stroke-linecap:square;stroke-width:0.8;"/>
     </g>
     <g id="line2d_93">
      <g>
       <use style="stroke:#000000;stroke-width:0.8;" x="334.252915" xlink:href="#mc9c4c33098" y="532.6"/>
      </g>
     </g>
     <g id="text_15">
      <!-- 0 -->
      <g transform="translate(331.071665 547.198437)scale(0.1 -0.1)">
       <use xlink:href="#DejaVuSans-30"/>
      </g>
     </g>
    </g>
    <g id="xtick_33">
     <g id="line2d_94">
      <path clip-path="url(#p98445775dd)" d="M 373.172487 532.6 
L 373.172487 25.8 
" style="fill:none;stroke:#b0b0b0;stroke-linecap:square;stroke-width:0.8;"/>
     </g>
     <g id="line2d_95">
      <g>
       <use style="stroke:#000000;stroke-width:0.8;" x="373.172487" xlink:href="#mc9c4c33098" y="532.6"/>
      </g>
     </g>
     <g id="text_16">
      <!-- 1000 -->
      <g transform="translate(360.447487 547.198437)scale(0.1 -0.1)">
       <use xlink:href="#DejaVuSans-31"/>
       <use x="63.623047" xlink:href="#DejaVuSans-30"/>
       <use x="127.246094" xlink:href="#DejaVuSans-30"/>
       <use x="190.869141" xlink:href="#DejaVuSans-30"/>
      </g>
     </g>
    </g>
    <g id="xtick_34">
     <g id="line2d_96">
      <path clip-path="url(#p98445775dd)" d="M 412.092059 532.6 
L 412.092059 25.8 
" style="fill:none;stroke:#b0b0b0;stroke-linecap:square;stroke-width:0.8;"/>
     </g>
     <g id="line2d_97">
      <g>
       <use style="stroke:#000000;stroke-width:0.8;" x="412.092059" xlink:href="#mc9c4c33098" y="532.6"/>
      </g>
     </g>
     <g id="text_17">
      <!-- 2000 -->
      <g transform="translate(399.367059 547.198437)scale(0.1 -0.1)">
       <use xlink:href="#DejaVuSans-32"/>
       <use x="63.623047" xlink:href="#DejaVuSans-30"/>
       <use x="127.246094" xlink:href="#DejaVuSans-30"/>
       <use x="190.869141" xlink:href="#DejaVuSans-30"/>
      </g>
     </g>
    </g>
    <g id="xtick_35">
     <g id="line2d_98">
      <path clip-path="url(#p98445775dd)" d="M 451.011632 532.6 
L 451.011632 25.8 
" style="fill:none;stroke:#b0b0b0;stroke-linecap:square;stroke-width:0.8;"/>
     </g>
     <g id="line2d_99">
      <g>
       <use style="stroke:#000000;stroke-width:0.8;" x="451.011632" xlink:href="#mc9c4c33098" y="532.6"/>
      </g>
     </g>
     <g id="text_18">
      <!-- 3000 -->
      <g transform="translate(438.286632 547.198437)scale(0.1 -0.1)">
       <use xlink:href="#DejaVuSans-33"/>
       <use x="63.623047" xlink:href="#DejaVuSans-30"/>
       <use x="127.246094" xlink:href="#DejaVuSans-30"/>
       <use x="190.869141" xlink:href="#DejaVuSans-30"/>
      </g>
     </g>
    </g>
    <g id="xtick_36">
     <g id="line2d_100">
      <path clip-path="url(#p98445775dd)" d="M 489.931204 532.6 
L 489.931204 25.8 
" style="fill:none;stroke:#b0b0b0;stroke-linecap:square;stroke-width:0.8;"/>
     </g>
     <g id="line2d_101">
      <g>
       <use style="stroke:#000000;stroke-width:0.8;" x="489.931204" xlink:href="#mc9c4c33098" y="532.6"/>
      </g>
     </g>
     <g id="text_19">
      <!-- 4000 -->
      <g transform="translate(477.206204 547.198437)scale(0.1 -0.1)">
       <use xlink:href="#DejaVuSans-34"/>
       <use x="63.623047" xlink:href="#DejaVuSans-30"/>
       <use x="127.246094" xlink:href="#DejaVuSans-30"/>
       <use x="190.869141" xlink:href="#DejaVuSans-30"/>
      </g>
     </g>
    </g>
    <g id="xtick_37">
     <g id="line2d_102">
      <path clip-path="url(#p98445775dd)" d="M 528.850776 532.6 
L 528.850776 25.8 
" style="fill:none;stroke:#b0b0b0;stroke-linecap:square;stroke-width:0.8;"/>
     </g>
     <g id="line2d_103">
      <g>
       <use style="stroke:#000000;stroke-width:0.8;" x="528.850776" xlink:href="#mc9c4c33098" y="532.6"/>
      </g>
     </g>
     <g id="text_20">
      <!-- 5000 -->
      <g transform="translate(516.125776 547.198437)scale(0.1 -0.1)">
       <use xlink:href="#DejaVuSans-35"/>
       <use x="63.623047" xlink:href="#DejaVuSans-30"/>
       <use x="127.246094" xlink:href="#DejaVuSans-30"/>
       <use x="190.869141" xlink:href="#DejaVuSans-30"/>
      </g>
     </g>
    </g>
    <g id="xtick_38">
     <g id="line2d_104">
      <path clip-path="url(#p98445775dd)" d="M 326.469 532.6 
L 326.469 25.8 
" style="fill:none;stroke:#b0b0b0;stroke-dasharray:0.8,1.32;stroke-dashoffset:0;stroke-width:0.8;"/>
     </g>
     <g id="line2d_105">
      <g>
       <use style="stroke:#000000;stroke-width:0.6;" x="326.469" xlink:href="#m39cdb6b494" y="532.6"/>
      </g>
     </g>
    </g>
    <g id="xtick_39">
     <g id="line2d_106">
      <path clip-path="url(#p98445775dd)" d="M 342.036829 532.6 
L 342.036829 25.8 
" style="fill:none;stroke:#b0b0b0;stroke-dasharray:0.8,1.32;stroke-dashoffset:0;stroke-width:0.8;"/>
     </g>
     <g id="line2d_107">
      <g>
       <use style="stroke:#000000;stroke-width:0.6;" x="342.036829" xlink:href="#m39cdb6b494" y="532.6"/>
      </g>
     </g>
    </g>
    <g id="xtick_40">
     <g id="line2d_108">
      <path clip-path="url(#p98445775dd)" d="M 349.820744 532.6 
L 349.820744 25.8 
" style="fill:none;stroke:#b0b0b0;stroke-dasharray:0.8,1.32;stroke-dashoffset:0;stroke-width:0.8;"/>
     </g>
     <g id="line2d_109">
      <g>
       <use style="stroke:#000000;stroke-width:0.6;" x="349.820744" xlink:href="#m39cdb6b494" y="532.6"/>
      </g>
     </g>
    </g>
    <g id="xtick_41">
     <g id="line2d_110">
      <path clip-path="url(#p98445775dd)" d="M 357.604658 532.6 
L 357.604658 25.8 
" style="fill:none;stroke:#b0b0b0;stroke-dasharray:0.8,1.32;stroke-dashoffset:0;stroke-width:0.8;"/>
     </g>
     <g id="line2d_111">
      <g>
       <use style="stroke:#000000;stroke-width:0.6;" x="357.604658" xlink:href="#m39cdb6b494" y="532.6"/>
      </g>
     </g>
    </g>
    <g id="xtick_42">
     <g id="line2d_112">
      <path clip-path="url(#p98445775dd)" d="M 365.388573 532.6 
L 365.388573 25.8 
" style="fill:none;stroke:#b0b0b0;stroke-dasharray:0.8,1.32;stroke-dashoffset:0;stroke-width:0.8;"/>
     </g>
     <g id="line2d_113">
      <g>
       <use style="stroke:#000000;stroke-width:0.6;" x="365.388573" xlink:href="#m39cdb6b494" y="532.6"/>
      </g>
     </g>
    </g>
    <g id="xtick_43">
     <g id="line2d_114">
      <path clip-path="url(#p98445775dd)" d="M 380.956402 532.6 
L 380.956402 25.8 
" style="fill:none;stroke:#b0b0b0;stroke-dasharray:0.8,1.32;stroke-dashoffset:0;stroke-width:0.8;"/>
     </g>
     <g id="line2d_115">
      <g>
       <use style="stroke:#000000;stroke-width:0.6;" x="380.956402" xlink:href="#m39cdb6b494" y="532.6"/>
      </g>
     </g>
    </g>
    <g id="xtick_44">
     <g id="line2d_116">
      <path clip-path="url(#p98445775dd)" d="M 388.740316 532.6 
L 388.740316 25.8 
" style="fill:none;stroke:#b0b0b0;stroke-dasharray:0.8,1.32;stroke-dashoffset:0;stroke-width:0.8;"/>
     </g>
     <g id="line2d_117">
      <g>
       <use style="stroke:#000000;stroke-width:0.6;" x="388.740316" xlink:href="#m39cdb6b494" y="532.6"/>
      </g>
     </g>
    </g>
    <g id="xtick_45">
     <g id="line2d_118">
      <path clip-path="url(#p98445775dd)" d="M 396.524231 532.6 
L 396.524231 25.8 
" style="fill:none;stroke:#b0b0b0;stroke-dasharray:0.8,1.32;stroke-dashoffset:0;stroke-width:0.8;"/>
     </g>
     <g id="line2d_119">
      <g>
       <use style="stroke:#000000;stroke-width:0.6;" x="396.524231" xlink:href="#m39cdb6b494" y="532.6"/>
      </g>
     </g>
    </g>
    <g id="xtick_46">
     <g id="line2d_120">
      <path clip-path="url(#p98445775dd)" d="M 404.308145 532.6 
L 404.308145 25.8 
" style="fill:none;stroke:#b0b0b0;stroke-dasharray:0.8,1.32;stroke-dashoffset:0;stroke-width:0.8;"/>
     </g>
     <g id="line2d_121">
      <g>
       <use style="stroke:#000000;stroke-width:0.6;" x="404.308145" xlink:href="#m39cdb6b494" y="532.6"/>
      </g>
     </g>
    </g>
    <g id="xtick_47">
     <g id="line2d_122">
      <path clip-path="url(#p98445775dd)" d="M 419.875974 532.6 
L 419.875974 25.8 
" style="fill:none;stroke:#b0b0b0;stroke-dasharray:0.8,1.32;stroke-dashoffset:0;stroke-width:0.8;"/>
     </g>
     <g id="line2d_123">
      <g>
       <use style="stroke:#000000;stroke-width:0.6;" x="419.875974" xlink:href="#m39cdb6b494" y="532.6"/>
      </g>
     </g>
    </g>
    <g id="xtick_48">
     <g id="line2d_124">
      <path clip-path="url(#p98445775dd)" d="M 427.659888 532.6 
L 427.659888 25.8 
" style="fill:none;stroke:#b0b0b0;stroke-dasharray:0.8,1.32;stroke-dashoffset:0;stroke-width:0.8;"/>
     </g>
     <g id="line2d_125">
      <g>
       <use style="stroke:#000000;stroke-width:0.6;" x="427.659888" xlink:href="#m39cdb6b494" y="532.6"/>
      </g>
     </g>
    </g>
    <g id="xtick_49">
     <g id="line2d_126">
      <path clip-path="url(#p98445775dd)" d="M 435.443803 532.6 
L 435.443803 25.8 
" style="fill:none;stroke:#b0b0b0;stroke-dasharray:0.8,1.32;stroke-dashoffset:0;stroke-width:0.8;"/>
     </g>
     <g id="line2d_127">
      <g>
       <use style="stroke:#000000;stroke-width:0.6;" x="435.443803" xlink:href="#m39cdb6b494" y="532.6"/>
      </g>
     </g>
    </g>
    <g id="xtick_50">
     <g id="line2d_128">
      <path clip-path="url(#p98445775dd)" d="M 443.227717 532.6 
L 443.227717 25.8 
" style="fill:none;stroke:#b0b0b0;stroke-dasharray:0.8,1.32;stroke-dashoffset:0;stroke-width:0.8;"/>
     </g>
     <g id="line2d_129">
      <g>
       <use style="stroke:#000000;stroke-width:0.6;" x="443.227717" xlink:href="#m39cdb6b494" y="532.6"/>
      </g>
     </g>
    </g>
    <g id="xtick_51">
     <g id="line2d_130">
      <path clip-path="url(#p98445775dd)" d="M 458.795546 532.6 
L 458.795546 25.8 
" style="fill:none;stroke:#b0b0b0;stroke-dasharray:0.8,1.32;stroke-dashoffset:0;stroke-width:0.8;"/>
     </g>
     <g id="line2d_131">
      <g>
       <use style="stroke:#000000;stroke-width:0.6;" x="458.795546" xlink:href="#m39cdb6b494" y="532.6"/>
      </g>
     </g>
    </g>
    <g id="xtick_52">
     <g id="line2d_132">
      <path clip-path="url(#p98445775dd)" d="M 466.579461 532.6 
L 466.579461 25.8 
" style="fill:none;stroke:#b0b0b0;stroke-dasharray:0.8,1.32;stroke-dashoffset:0;stroke-width:0.8;"/>
     </g>
     <g id="line2d_133">
      <g>
       <use style="stroke:#000000;stroke-width:0.6;" x="466.579461" xlink:href="#m39cdb6b494" y="532.6"/>
      </g>
     </g>
    </g>
    <g id="xtick_53">
     <g id="line2d_134">
      <path clip-path="url(#p98445775dd)" d="M 474.363375 532.6 
L 474.363375 25.8 
" style="fill:none;stroke:#b0b0b0;stroke-dasharray:0.8,1.32;stroke-dashoffset:0;stroke-width:0.8;"/>
     </g>
     <g id="line2d_135">
      <g>
       <use style="stroke:#000000;stroke-width:0.6;" x="474.363375" xlink:href="#m39cdb6b494" y="532.6"/>
      </g>
     </g>
    </g>
    <g id="xtick_54">
     <g id="line2d_136">
      <path clip-path="url(#p98445775dd)" d="M 482.14729 532.6 
L 482.14729 25.8 
" style="fill:none;stroke:#b0b0b0;stroke-dasharray:0.8,1.32;stroke-dashoffset:0;stroke-width:0.8;"/>
     </g>
     <g id="line2d_137">
      <g>
       <use style="stroke:#000000;stroke-width:0.6;" x="482.14729" xlink:href="#m39cdb6b494" y="532.6"/>
      </g>
     </g>
    </g>
    <g id="xtick_55">
     <g id="line2d_138">
      <path clip-path="url(#p98445775dd)" d="M 497.715119 532.6 
L 497.715119 25.8 
" style="fill:none;stroke:#b0b0b0;stroke-dasharray:0.8,1.32;stroke-dashoffset:0;stroke-width:0.8;"/>
     </g>
     <g id="line2d_139">
      <g>
       <use style="stroke:#000000;stroke-width:0.6;" x="497.715119" xlink:href="#m39cdb6b494" y="532.6"/>
      </g>
     </g>
    </g>
    <g id="xtick_56">
     <g id="line2d_140">
      <path clip-path="url(#p98445775dd)" d="M 505.499033 532.6 
L 505.499033 25.8 
" style="fill:none;stroke:#b0b0b0;stroke-dasharray:0.8,1.32;stroke-dashoffset:0;stroke-width:0.8;"/>
     </g>
     <g id="line2d_141">
      <g>
       <use style="stroke:#000000;stroke-width:0.6;" x="505.499033" xlink:href="#m39cdb6b494" y="532.6"/>
      </g>
     </g>
    </g>
    <g id="xtick_57">
     <g id="line2d_142">
      <path clip-path="url(#p98445775dd)" d="M 513.282947 532.6 
L 513.282947 25.8 
" style="fill:none;stroke:#b0b0b0;stroke-dasharray:0.8,1.32;stroke-dashoffset:0;stroke-width:0.8;"/>
     </g>
     <g id="line2d_143">
      <g>
       <use style="stroke:#000000;stroke-width:0.6;" x="513.282947" xlink:href="#m39cdb6b494" y="532.6"/>
      </g>
     </g>
    </g>
    <g id="xtick_58">
     <g id="line2d_144">
      <path clip-path="url(#p98445775dd)" d="M 521.066862 532.6 
L 521.066862 25.8 
" style="fill:none;stroke:#b0b0b0;stroke-dasharray:0.8,1.32;stroke-dashoffset:0;stroke-width:0.8;"/>
     </g>
     <g id="line2d_145">
      <g>
       <use style="stroke:#000000;stroke-width:0.6;" x="521.066862" xlink:href="#m39cdb6b494" y="532.6"/>
      </g>
     </g>
    </g>
    <g id="xtick_59">
     <g id="line2d_146">
      <path clip-path="url(#p98445775dd)" d="M 536.634691 532.6 
L 536.634691 25.8 
" style="fill:none;stroke:#b0b0b0;stroke-dasharray:0.8,1.32;stroke-dashoffset:0;stroke-width:0.8;"/>
     </g>
     <g id="line2d_147">
      <g>
       <use style="stroke:#000000;stroke-width:0.6;" x="536.634691" xlink:href="#m39cdb6b494" y="532.6"/>
      </g>
     </g>
    </g>
    <g id="xtick_60">
     <g id="line2d_148">
      <path clip-path="url(#p98445775dd)" d="M 544.418605 532.6 
L 544.418605 25.8 
" style="fill:none;stroke:#b0b0b0;stroke-dasharray:0.8,1.32;stroke-dashoffset:0;stroke-width:0.8;"/>
     </g>
     <g id="line2d_149">
      <g>
       <use style="stroke:#000000;stroke-width:0.6;" x="544.418605" xlink:href="#m39cdb6b494" y="532.6"/>
      </g>
     </g>
    </g>
    <g id="xtick_61">
     <g id="line2d_150">
      <path clip-path="url(#p98445775dd)" d="M 552.20252 532.6 
L 552.20252 25.8 
" style="fill:none;stroke:#b0b0b0;stroke-dasharray:0.8,1.32;stroke-dashoffset:0;stroke-width:0.8;"/>
     </g>
     <g id="line2d_151">
      <g>
       <use style="stroke:#000000;stroke-width:0.6;" x="552.20252" xlink:href="#m39cdb6b494" y="532.6"/>
      </g>
     </g>
    </g>
    <g id="xtick_62">
     <g id="line2d_152">
      <path clip-path="url(#p98445775dd)" d="M 559.986434 532.6 
L 559.986434 25.8 
" style="fill:none;stroke:#b0b0b0;stroke-dasharray:0.8,1.32;stroke-dashoffset:0;stroke-width:0.8;"/>
     </g>
     <g id="line2d_153">
      <g>
       <use style="stroke:#000000;stroke-width:0.6;" x="559.986434" xlink:href="#m39cdb6b494" y="532.6"/>
      </g>
     </g>
    </g>
    <g id="text_21">
     <!-- iteration -->
     <g transform="translate(422.105061 560.876562)scale(0.1 -0.1)">
      <use xlink:href="#DejaVuSans-69"/>
      <use x="27.783203" xlink:href="#DejaVuSans-74"/>
      <use x="66.992188" xlink:href="#DejaVuSans-65"/>
      <use x="128.515625" xlink:href="#DejaVuSans-72"/>
      <use x="169.628906" xlink:href="#DejaVuSans-61"/>
      <use x="230.908203" xlink:href="#DejaVuSans-74"/>
      <use x="270.117188" xlink:href="#DejaVuSans-69"/>
      <use x="297.900391" xlink:href="#DejaVuSans-6f"/>
      <use x="359.082031" xlink:href="#DejaVuSans-6e"/>
     </g>
    </g>
   </g>
   <g id="matplotlib.axis_4">
    <g id="ytick_24">
     <g id="line2d_154">
      <g>
       <use style="stroke:#000000;stroke-width:0.8;" x="323.355435" xlink:href="#mbd87aa84a2" y="507.509337"/>
      </g>
     </g>
     <g id="text_22">
      <!-- $\mathdefault{10^{-4}}$ -->
      <defs>
       <path d="M 10.59375 35.5 
L 73.1875 35.5 
L 73.1875 27.203125 
L 10.59375 27.203125 
z
" id="DejaVuSans-2212"/>
      </defs>
      <g transform="translate(292.855435 511.308556)scale(0.1 -0.1)">
       <use transform="translate(0 0.684375)" xlink:href="#DejaVuSans-31"/>
       <use transform="translate(63.623047 0.684375)" xlink:href="#DejaVuSans-30"/>
       <use transform="translate(128.203125 38.965625)scale(0.7)" xlink:href="#DejaVuSans-2212"/>
       <use transform="translate(186.855469 38.965625)scale(0.7)" xlink:href="#DejaVuSans-34"/>
      </g>
     </g>
    </g>
    <g id="ytick_25">
     <g id="line2d_155">
      <g>
       <use style="stroke:#000000;stroke-width:0.8;" x="323.355435" xlink:href="#mbd87aa84a2" y="330.667762"/>
      </g>
     </g>
     <g id="text_23">
      <!-- $\mathdefault{10^{-3}}$ -->
      <g transform="translate(292.855435 334.466981)scale(0.1 -0.1)">
       <use transform="translate(0 0.765625)" xlink:href="#DejaVuSans-31"/>
       <use transform="translate(63.623047 0.765625)" xlink:href="#DejaVuSans-30"/>
       <use transform="translate(128.203125 39.046875)scale(0.7)" xlink:href="#DejaVuSans-2212"/>
       <use transform="translate(186.855469 39.046875)scale(0.7)" xlink:href="#DejaVuSans-33"/>
      </g>
     </g>
    </g>
    <g id="ytick_26">
     <g id="line2d_156">
      <g>
       <use style="stroke:#000000;stroke-width:0.8;" x="323.355435" xlink:href="#mbd87aa84a2" y="153.826186"/>
      </g>
     </g>
     <g id="text_24">
      <!-- $\mathdefault{10^{-2}}$ -->
      <g transform="translate(292.855435 157.625405)scale(0.1 -0.1)">
       <use transform="translate(0 0.765625)" xlink:href="#DejaVuSans-31"/>
       <use transform="translate(63.623047 0.765625)" xlink:href="#DejaVuSans-30"/>
       <use transform="translate(128.203125 39.046875)scale(0.7)" xlink:href="#DejaVuSans-2212"/>
       <use transform="translate(186.855469 39.046875)scale(0.7)" xlink:href="#DejaVuSans-32"/>
      </g>
     </g>
    </g>
    <g id="ytick_27">
     <g id="line2d_157">
      <g>
       <use style="stroke:#000000;stroke-width:0.6;" x="323.355435" xlink:href="#m19f595016a" y="524.647057"/>
      </g>
     </g>
    </g>
    <g id="ytick_28">
     <g id="line2d_158">
      <g>
       <use style="stroke:#000000;stroke-width:0.6;" x="323.355435" xlink:href="#m19f595016a" y="515.601164"/>
      </g>
     </g>
    </g>
    <g id="ytick_29">
     <g id="line2d_159">
      <g>
       <use style="stroke:#000000;stroke-width:0.6;" x="323.355435" xlink:href="#m19f595016a" y="454.274718"/>
      </g>
     </g>
    </g>
    <g id="ytick_30">
     <g id="line2d_160">
      <g>
       <use style="stroke:#000000;stroke-width:0.6;" x="323.355435" xlink:href="#m19f595016a" y="423.134463"/>
      </g>
     </g>
    </g>
    <g id="ytick_31">
     <g id="line2d_161">
      <g>
       <use style="stroke:#000000;stroke-width:0.6;" x="323.355435" xlink:href="#m19f595016a" y="401.0401"/>
      </g>
     </g>
    </g>
    <g id="ytick_32">
     <g id="line2d_162">
      <g>
       <use style="stroke:#000000;stroke-width:0.6;" x="323.355435" xlink:href="#m19f595016a" y="383.90238"/>
      </g>
     </g>
    </g>
    <g id="ytick_33">
     <g id="line2d_163">
      <g>
       <use style="stroke:#000000;stroke-width:0.6;" x="323.355435" xlink:href="#m19f595016a" y="369.899844"/>
      </g>
     </g>
    </g>
    <g id="ytick_34">
     <g id="line2d_164">
      <g>
       <use style="stroke:#000000;stroke-width:0.6;" x="323.355435" xlink:href="#m19f595016a" y="358.060868"/>
      </g>
     </g>
    </g>
    <g id="ytick_35">
     <g id="line2d_165">
      <g>
       <use style="stroke:#000000;stroke-width:0.6;" x="323.355435" xlink:href="#m19f595016a" y="347.805481"/>
      </g>
     </g>
    </g>
    <g id="ytick_36">
     <g id="line2d_166">
      <g>
       <use style="stroke:#000000;stroke-width:0.6;" x="323.355435" xlink:href="#m19f595016a" y="338.759588"/>
      </g>
     </g>
    </g>
    <g id="ytick_37">
     <g id="line2d_167">
      <g>
       <use style="stroke:#000000;stroke-width:0.6;" x="323.355435" xlink:href="#m19f595016a" y="277.433143"/>
      </g>
     </g>
    </g>
    <g id="ytick_38">
     <g id="line2d_168">
      <g>
       <use style="stroke:#000000;stroke-width:0.6;" x="323.355435" xlink:href="#m19f595016a" y="246.292887"/>
      </g>
     </g>
    </g>
    <g id="ytick_39">
     <g id="line2d_169">
      <g>
       <use style="stroke:#000000;stroke-width:0.6;" x="323.355435" xlink:href="#m19f595016a" y="224.198524"/>
      </g>
     </g>
    </g>
    <g id="ytick_40">
     <g id="line2d_170">
      <g>
       <use style="stroke:#000000;stroke-width:0.6;" x="323.355435" xlink:href="#m19f595016a" y="207.060805"/>
      </g>
     </g>
    </g>
    <g id="ytick_41">
     <g id="line2d_171">
      <g>
       <use style="stroke:#000000;stroke-width:0.6;" x="323.355435" xlink:href="#m19f595016a" y="193.058269"/>
      </g>
     </g>
    </g>
    <g id="ytick_42">
     <g id="line2d_172">
      <g>
       <use style="stroke:#000000;stroke-width:0.6;" x="323.355435" xlink:href="#m19f595016a" y="181.219293"/>
      </g>
     </g>
    </g>
    <g id="ytick_43">
     <g id="line2d_173">
      <g>
       <use style="stroke:#000000;stroke-width:0.6;" x="323.355435" xlink:href="#m19f595016a" y="170.963906"/>
      </g>
     </g>
    </g>
    <g id="ytick_44">
     <g id="line2d_174">
      <g>
       <use style="stroke:#000000;stroke-width:0.6;" x="323.355435" xlink:href="#m19f595016a" y="161.918013"/>
      </g>
     </g>
    </g>
    <g id="ytick_45">
     <g id="line2d_175">
      <g>
       <use style="stroke:#000000;stroke-width:0.6;" x="323.355435" xlink:href="#m19f595016a" y="100.591568"/>
      </g>
     </g>
    </g>
    <g id="ytick_46">
     <g id="line2d_176">
      <g>
       <use style="stroke:#000000;stroke-width:0.6;" x="323.355435" xlink:href="#m19f595016a" y="69.451312"/>
      </g>
     </g>
    </g>
    <g id="ytick_47">
     <g id="line2d_177">
      <g>
       <use style="stroke:#000000;stroke-width:0.6;" x="323.355435" xlink:href="#m19f595016a" y="47.356949"/>
      </g>
     </g>
    </g>
    <g id="ytick_48">
     <g id="line2d_178">
      <g>
       <use style="stroke:#000000;stroke-width:0.6;" x="323.355435" xlink:href="#m19f595016a" y="30.21923"/>
      </g>
     </g>
    </g>
   </g>
   <g id="line2d_179">
    <path clip-path="url(#p98445775dd)" d="M 334.252915 49.05967 
L 382.668863 48.948645 
L 413.726681 48.872742 
L 419.875974 49.070282 
L 421.354918 49.275329 
L 424.81876 49.392741 
L 425.519312 49.659838 
L 426.142025 50.158621 
L 427.153934 50.995108 
L 428.43828 51.587597 
L 429.33343 51.816528 
L 432.95295 52.498692 
L 433.692422 53.068213 
L 434.548653 54.027525 
L 435.67732 55.663745 
L 437.039505 58.027731 
L 438.362771 60.871785 
L 440.153071 65.219807 
L 441.826613 69.871605 
L 443.383396 74.858028 
L 444.82342 80.214389 
L 446.146685 85.980693 
L 447.392112 92.421165 
L 448.520779 99.454639 
L 449.727286 108.512796 
L 450.933793 118.949984 
L 452.10138 131.265261 
L 453.813841 149.455155 
L 454.397635 153.381159 
L 454.82575 154.909373 
L 455.137106 155.34147 
L 455.448463 155.415405 
L 455.837659 155.516758 
L 456.110096 155.870483 
L 457.861476 159.305575 
L 458.328511 161.452912 
L 459.145822 166.369023 
L 459.573938 170.371973 
L 459.963133 176.470815 
L 460.469088 188.579307 
L 461.247479 206.483526 
L 461.714514 212.39749 
L 462.10371 214.906148 
L 462.415066 215.720691 
L 462.687503 215.927024 
L 463.310217 215.982081 
L 463.89401 216.154912 
L 464.399965 216.223526 
L 465.295115 216.332192 
L 465.489713 216.657411 
L 465.72323 217.676502 
L 466.034587 220.387649 
L 466.579461 227.751416 
L 467.241093 235.957974 
L 467.630289 238.372043 
L 467.941646 239.054287 
L 468.214083 239.165492 
L 468.681118 239.282481 
L 468.914635 239.684784 
L 469.148152 240.587926 
L 469.420589 242.564371 
L 469.770866 246.932733 
L 470.2379 255.977953 
L 471.639005 285.965717 
L 471.911442 287.327076 
L 472.14496 287.581813 
L 472.611994 287.742209 
L 472.884431 288.293099 
L 473.273627 289.705876 
L 474.246616 293.442234 
L 474.557973 293.814969 
L 475.258525 294.150283 
L 475.492043 294.830655 
L 475.803399 296.501205 
L 476.231515 300.146647 
L 477.749378 314.578527 
L 478.099654 315.654978 
L 478.372091 315.914465 
L 479.033724 316.169842 
L 479.306161 316.820599 
L 479.773196 318.745791 
L 480.31807 320.683921 
L 480.668346 321.207752 
L 481.096461 321.424432 
L 482.302968 321.665212 
L 483.353796 321.758564 
L 483.704072 322.078017 
L 484.054349 322.744355 
L 484.988418 324.79544 
L 485.299775 324.895462 
L 485.76681 324.9844 
L 486.078166 325.36009 
L 487.128995 326.923099 
L 487.55711 326.991995 
L 488.296582 327.077162 
L 488.685778 327.391399 
L 489.036054 327.977466 
L 489.42525 329.09699 
L 489.892284 331.176336 
L 490.826354 336.737224 
L 491.371228 339.21284 
L 491.760424 340.109177 
L 492.1107 340.437322 
L 492.577735 340.544292 
L 494.406955 340.726499 
L 494.757231 341.062183 
L 495.107507 341.754985 
L 495.457783 342.984824 
L 495.885899 345.367404 
L 497.442682 355.136555 
L 497.792958 355.800583 
L 498.182153 356.070624 
L 498.804867 356.149768 
L 499.816775 356.287471 
L 500.244891 356.57275 
L 500.634086 357.095395 
L 501.062202 358.069632 
L 501.568156 359.86513 
L 502.190869 363.002395 
L 503.747652 371.318255 
L 504.292526 372.970657 
L 504.8374 373.958772 
L 505.460113 374.610216 
L 506.822298 375.858039 
L 507.250414 376.675885 
L 507.717449 378.100843 
L 508.262323 380.56052 
L 510.091543 389.600512 
L 510.636417 390.881014 
L 511.22021 391.697443 
L 512.932671 393.735061 
L 513.438626 394.924979 
L 513.9835 396.843998 
L 514.606213 399.920729 
L 516.746789 411.423765 
L 517.330583 412.943336 
L 517.953296 413.949026 
L 519.237642 415.829391 
L 519.782516 417.183522 
L 520.36631 419.292756 
L 521.183621 423.219263 
L 522.429047 429.103943 
L 523.09068 431.182668 
L 523.752312 432.54438 
L 524.958819 434.340088 
L 525.620452 435.618503 
L 526.165326 437.167767 
L 526.749119 439.519338 
L 527.488591 443.512664 
L 529.162133 452.905713 
L 529.784846 455.061504 
L 530.446479 456.566602 
L 532.470297 460.543993 
L 533.131929 462.791413 
L 534.027079 466.774158 
L 535.467104 473.162707 
L 536.245495 475.540872 
L 537.140645 477.50159 
L 538.347152 480.117025 
L 539.047704 482.268482 
L 539.826096 485.454505 
L 541.849914 494.217916 
L 542.511546 495.93388 
L 543.173179 497.066989 
L 544.107249 498.169121 
L 545.041318 499.342536 
L 545.702951 500.552493 
L 546.481343 502.485695 
L 548.466241 507.679309 
L 549.127874 508.703742 
L 549.750587 509.270729 
L 550.33438 509.514604 
L 551.034933 509.556676 
L 552.20252 509.47041 
L 552.20252 509.47041 
" style="fill:none;stroke:#ff7f0e;stroke-linecap:square;stroke-width:1.5;"/>
   </g>
   <g id="patch_9">
    <path d="M 323.355435 532.6 
L 323.355435 25.8 
" style="fill:none;stroke:#000000;stroke-linecap:square;stroke-linejoin:miter;stroke-width:0.8;"/>
   </g>
   <g id="patch_10">
    <path d="M 563.1 532.6 
L 563.1 25.8 
" style="fill:none;stroke:#000000;stroke-linecap:square;stroke-linejoin:miter;stroke-width:0.8;"/>
   </g>
   <g id="patch_11">
    <path d="M 323.355435 532.6 
L 563.1 532.6 
" style="fill:none;stroke:#000000;stroke-linecap:square;stroke-linejoin:miter;stroke-width:0.8;"/>
   </g>
   <g id="patch_12">
    <path d="M 323.355435 25.8 
L 563.1 25.8 
" style="fill:none;stroke:#000000;stroke-linecap:square;stroke-linejoin:miter;stroke-width:0.8;"/>
   </g>
   <g id="legend_2">
    <g id="patch_13">
     <path d="M 488.264063 48.478125 
L 556.1 48.478125 
Q 558.1 48.478125 558.1 46.478125 
L 558.1 32.8 
Q 558.1 30.8 556.1 30.8 
L 488.264063 30.8 
Q 486.264063 30.8 486.264063 32.8 
L 486.264063 46.478125 
Q 486.264063 48.478125 488.264063 48.478125 
z
" style="fill:#ffffff;opacity:0.8;stroke:#cccccc;stroke-linejoin:miter;"/>
    </g>
    <g id="line2d_180">
     <path d="M 490.264063 38.898438 
L 510.264063 38.898438 
" style="fill:none;stroke:#ff7f0e;stroke-linecap:square;stroke-width:1.5;"/>
    </g>
    <g id="line2d_181"/>
    <g id="text_25">
     <!-- std(CL) -->
     <defs>
      <path d="M 44.28125 53.078125 
L 44.28125 44.578125 
Q 40.484375 46.53125 36.375 47.5 
Q 32.28125 48.484375 27.875 48.484375 
Q 21.1875 48.484375 17.84375 46.4375 
Q 14.5 44.390625 14.5 40.28125 
Q 14.5 37.15625 16.890625 35.375 
Q 19.28125 33.59375 26.515625 31.984375 
L 29.59375 31.296875 
Q 39.15625 29.25 43.1875 25.515625 
Q 47.21875 21.78125 47.21875 15.09375 
Q 47.21875 7.46875 41.1875 3.015625 
Q 35.15625 -1.421875 24.609375 -1.421875 
Q 20.21875 -1.421875 15.453125 -0.5625 
Q 10.6875 0.296875 5.421875 2 
L 5.421875 11.28125 
Q 10.40625 8.6875 15.234375 7.390625 
Q 20.0625 6.109375 24.8125 6.109375 
Q 31.15625 6.109375 34.5625 8.28125 
Q 37.984375 10.453125 37.984375 14.40625 
Q 37.984375 18.0625 35.515625 20.015625 
Q 33.0625 21.96875 24.703125 23.78125 
L 21.578125 24.515625 
Q 13.234375 26.265625 9.515625 29.90625 
Q 5.8125 33.546875 5.8125 39.890625 
Q 5.8125 47.609375 11.28125 51.796875 
Q 16.75 56 26.8125 56 
Q 31.78125 56 36.171875 55.265625 
Q 40.578125 54.546875 44.28125 53.078125 
z
" id="DejaVuSans-73"/>
      <path d="M 45.40625 46.390625 
L 45.40625 75.984375 
L 54.390625 75.984375 
L 54.390625 0 
L 45.40625 0 
L 45.40625 8.203125 
Q 42.578125 3.328125 38.25 0.953125 
Q 33.9375 -1.421875 27.875 -1.421875 
Q 17.96875 -1.421875 11.734375 6.484375 
Q 5.515625 14.40625 5.515625 27.296875 
Q 5.515625 40.1875 11.734375 48.09375 
Q 17.96875 56 27.875 56 
Q 33.9375 56 38.25 53.625 
Q 42.578125 51.265625 45.40625 46.390625 
z
M 14.796875 27.296875 
Q 14.796875 17.390625 18.875 11.75 
Q 22.953125 6.109375 30.078125 6.109375 
Q 37.203125 6.109375 41.296875 11.75 
Q 45.40625 17.390625 45.40625 27.296875 
Q 45.40625 37.203125 41.296875 42.84375 
Q 37.203125 48.484375 30.078125 48.484375 
Q 22.953125 48.484375 18.875 42.84375 
Q 14.796875 37.203125 14.796875 27.296875 
z
" id="DejaVuSans-64"/>
      <path d="M 31 75.875 
Q 24.46875 64.65625 21.28125 53.65625 
Q 18.109375 42.671875 18.109375 31.390625 
Q 18.109375 20.125 21.3125 9.0625 
Q 24.515625 -2 31 -13.1875 
L 23.1875 -13.1875 
Q 15.875 -1.703125 12.234375 9.375 
Q 8.59375 20.453125 8.59375 31.390625 
Q 8.59375 42.28125 12.203125 53.3125 
Q 15.828125 64.359375 23.1875 75.875 
z
" id="DejaVuSans-28"/>
      <path d="M 8.015625 75.875 
L 15.828125 75.875 
Q 23.140625 64.359375 26.78125 53.3125 
Q 30.421875 42.28125 30.421875 31.390625 
Q 30.421875 20.453125 26.78125 9.375 
Q 23.140625 -1.703125 15.828125 -13.1875 
L 8.015625 -13.1875 
Q 14.5 -2 17.703125 9.0625 
Q 20.90625 20.125 20.90625 31.390625 
Q 20.90625 42.671875 17.703125 53.65625 
Q 14.5 64.65625 8.015625 75.875 
z
" id="DejaVuSans-29"/>
     </defs>
     <g transform="translate(518.264063 42.398438)scale(0.1 -0.1)">
      <use xlink:href="#DejaVuSans-73"/>
      <use x="52.099609" xlink:href="#DejaVuSans-74"/>
      <use x="91.308594" xlink:href="#DejaVuSans-64"/>
      <use x="154.785156" xlink:href="#DejaVuSans-28"/>
      <use x="193.798828" xlink:href="#DejaVuSans-43"/>
      <use x="263.623047" xlink:href="#DejaVuSans-4c"/>
      <use x="319.335938" xlink:href="#DejaVuSans-29"/>
     </g>
    </g>
   </g>
  </g>
 </g>
 <defs>
  <clipPath id="pb8f2b07de4">
   <rect height="506.8" width="239.744565" x="39.85" y="25.8"/>
  </clipPath>
  <clipPath id="p98445775dd">
   <rect height="506.8" width="239.744565" x="323.355435" y="25.8"/>
  </clipPath>
 </defs>
</svg>
