<?xml version="1.0" encoding="utf-8" standalone="no"?>
<!DOCTYPE svg PUBLIC "-//W3C//DTD SVG 1.1//EN"
  "http://www.w3.org/Graphics/SVG/1.1/DTD/svg11.dtd">
<!-- Created with matplotlib (http://matplotlib.org/) -->
<svg height="576pt" version="1.1" viewBox="0 0 576 576" width="576pt" xmlns="http://www.w3.org/2000/svg" xmlns:xlink="http://www.w3.org/1999/xlink">
 <defs>
  <style type="text/css">
*{stroke-linecap:butt;stroke-linejoin:round;}
  </style>
 </defs>
 <g id="figure_1">
  <g id="patch_1">
   <path d="M 0 576 
L 576 576 
L 576 0 
L 0 0 
z
" style="fill:#ffffff;"/>
  </g>
  <g id="axes_1">
   <g id="patch_2">
    <path d="M 40 532.6 
L 275.235327 532.6 
L 275.235327 25.8 
L 40 25.8 
z
" style="fill:#ffffff;"/>
   </g>
   <g id="matplotlib.axis_1">
    <g id="xtick_1">
     <g id="line2d_1">
      <path clip-path="url(#p6e3b0a7886)" d="M 50.692515 532.6 
L 50.692515 25.8 
" style="fill:none;stroke:#b0b0b0;stroke-linecap:square;stroke-width:0.8;"/>
     </g>
     <g id="line2d_2">
      <defs>
       <path d="M 0 0 
L 0 3.5 
" id="mbec904e1b8" style="stroke:#000000;stroke-width:0.8;"/>
      </defs>
      <g>
       <use style="stroke:#000000;stroke-width:0.8;" x="50.692515" xlink:href="#mbec904e1b8" y="532.6"/>
      </g>
     </g>
     <g id="text_1">
      <!-- 0 -->
      <defs>
       <path d="M 31.78125 66.40625 
Q 24.171875 66.40625 20.328125 58.90625 
Q 16.5 51.421875 16.5 36.375 
Q 16.5 21.390625 20.328125 13.890625 
Q 24.171875 6.390625 31.78125 6.390625 
Q 39.453125 6.390625 43.28125 13.890625 
Q 47.125 21.390625 47.125 36.375 
Q 47.125 51.421875 43.28125 58.90625 
Q 39.453125 66.40625 31.78125 66.40625 
z
M 31.78125 74.21875 
Q 44.046875 74.21875 50.515625 64.515625 
Q 56.984375 54.828125 56.984375 36.375 
Q 56.984375 17.96875 50.515625 8.265625 
Q 44.046875 -1.421875 31.78125 -1.421875 
Q 19.53125 -1.421875 13.0625 8.265625 
Q 6.59375 17.96875 6.59375 36.375 
Q 6.59375 54.828125 13.0625 64.515625 
Q 19.53125 74.21875 31.78125 74.21875 
z
" id="DejaVuSans-30"/>
      </defs>
      <g transform="translate(47.511265 547.198437)scale(0.1 -0.1)">
       <use xlink:href="#DejaVuSans-30"/>
      </g>
     </g>
    </g>
    <g id="xtick_2">
     <g id="line2d_3">
      <path clip-path="url(#p6e3b0a7886)" d="M 93.464285 532.6 
L 93.464285 25.8 
" style="fill:none;stroke:#b0b0b0;stroke-linecap:square;stroke-width:0.8;"/>
     </g>
     <g id="line2d_4">
      <g>
       <use style="stroke:#000000;stroke-width:0.8;" x="93.464285" xlink:href="#mbec904e1b8" y="532.6"/>
      </g>
     </g>
     <g id="text_2">
      <!-- 10000 -->
      <defs>
       <path d="M 12.40625 8.296875 
L 28.515625 8.296875 
L 28.515625 63.921875 
L 10.984375 60.40625 
L 10.984375 69.390625 
L 28.421875 72.90625 
L 38.28125 72.90625 
L 38.28125 8.296875 
L 54.390625 8.296875 
L 54.390625 0 
L 12.40625 0 
z
" id="DejaVuSans-31"/>
      </defs>
      <g transform="translate(77.558035 547.198437)scale(0.1 -0.1)">
       <use xlink:href="#DejaVuSans-31"/>
       <use x="63.623047" xlink:href="#DejaVuSans-30"/>
       <use x="127.246094" xlink:href="#DejaVuSans-30"/>
       <use x="190.869141" xlink:href="#DejaVuSans-30"/>
       <use x="254.492188" xlink:href="#DejaVuSans-30"/>
      </g>
     </g>
    </g>
    <g id="xtick_3">
     <g id="line2d_5">
      <path clip-path="url(#p6e3b0a7886)" d="M 136.236056 532.6 
L 136.236056 25.8 
" style="fill:none;stroke:#b0b0b0;stroke-linecap:square;stroke-width:0.8;"/>
     </g>
     <g id="line2d_6">
      <g>
       <use style="stroke:#000000;stroke-width:0.8;" x="136.236056" xlink:href="#mbec904e1b8" y="532.6"/>
      </g>
     </g>
     <g id="text_3">
      <!-- 20000 -->
      <defs>
       <path d="M 19.1875 8.296875 
L 53.609375 8.296875 
L 53.609375 0 
L 7.328125 0 
L 7.328125 8.296875 
Q 12.9375 14.109375 22.625 23.890625 
Q 32.328125 33.6875 34.8125 36.53125 
Q 39.546875 41.84375 41.421875 45.53125 
Q 43.3125 49.21875 43.3125 52.78125 
Q 43.3125 58.59375 39.234375 62.25 
Q 35.15625 65.921875 28.609375 65.921875 
Q 23.96875 65.921875 18.8125 64.3125 
Q 13.671875 62.703125 7.8125 59.421875 
L 7.8125 69.390625 
Q 13.765625 71.78125 18.9375 73 
Q 24.125 74.21875 28.421875 74.21875 
Q 39.75 74.21875 46.484375 68.546875 
Q 53.21875 62.890625 53.21875 53.421875 
Q 53.21875 48.921875 51.53125 44.890625 
Q 49.859375 40.875 45.40625 35.40625 
Q 44.1875 33.984375 37.640625 27.21875 
Q 31.109375 20.453125 19.1875 8.296875 
z
" id="DejaVuSans-32"/>
      </defs>
      <g transform="translate(120.329806 547.198437)scale(0.1 -0.1)">
       <use xlink:href="#DejaVuSans-32"/>
       <use x="63.623047" xlink:href="#DejaVuSans-30"/>
       <use x="127.246094" xlink:href="#DejaVuSans-30"/>
       <use x="190.869141" xlink:href="#DejaVuSans-30"/>
       <use x="254.492188" xlink:href="#DejaVuSans-30"/>
      </g>
     </g>
    </g>
    <g id="xtick_4">
     <g id="line2d_7">
      <path clip-path="url(#p6e3b0a7886)" d="M 179.007826 532.6 
L 179.007826 25.8 
" style="fill:none;stroke:#b0b0b0;stroke-linecap:square;stroke-width:0.8;"/>
     </g>
     <g id="line2d_8">
      <g>
       <use style="stroke:#000000;stroke-width:0.8;" x="179.007826" xlink:href="#mbec904e1b8" y="532.6"/>
      </g>
     </g>
     <g id="text_4">
      <!-- 30000 -->
      <defs>
       <path d="M 40.578125 39.3125 
Q 47.65625 37.796875 51.625 33 
Q 55.609375 28.21875 55.609375 21.1875 
Q 55.609375 10.40625 48.1875 4.484375 
Q 40.765625 -1.421875 27.09375 -1.421875 
Q 22.515625 -1.421875 17.65625 -0.515625 
Q 12.796875 0.390625 7.625 2.203125 
L 7.625 11.71875 
Q 11.71875 9.328125 16.59375 8.109375 
Q 21.484375 6.890625 26.8125 6.890625 
Q 36.078125 6.890625 40.9375 10.546875 
Q 45.796875 14.203125 45.796875 21.1875 
Q 45.796875 27.640625 41.28125 31.265625 
Q 36.765625 34.90625 28.71875 34.90625 
L 20.21875 34.90625 
L 20.21875 43.015625 
L 29.109375 43.015625 
Q 36.375 43.015625 40.234375 45.921875 
Q 44.09375 48.828125 44.09375 54.296875 
Q 44.09375 59.90625 40.109375 62.90625 
Q 36.140625 65.921875 28.71875 65.921875 
Q 24.65625 65.921875 20.015625 65.03125 
Q 15.375 64.15625 9.8125 62.3125 
L 9.8125 71.09375 
Q 15.4375 72.65625 20.34375 73.4375 
Q 25.25 74.21875 29.59375 74.21875 
Q 40.828125 74.21875 47.359375 69.109375 
Q 53.90625 64.015625 53.90625 55.328125 
Q 53.90625 49.265625 50.4375 45.09375 
Q 46.96875 40.921875 40.578125 39.3125 
z
" id="DejaVuSans-33"/>
      </defs>
      <g transform="translate(163.101576 547.198437)scale(0.1 -0.1)">
       <use xlink:href="#DejaVuSans-33"/>
       <use x="63.623047" xlink:href="#DejaVuSans-30"/>
       <use x="127.246094" xlink:href="#DejaVuSans-30"/>
       <use x="190.869141" xlink:href="#DejaVuSans-30"/>
       <use x="254.492188" xlink:href="#DejaVuSans-30"/>
      </g>
     </g>
    </g>
    <g id="xtick_5">
     <g id="line2d_9">
      <path clip-path="url(#p6e3b0a7886)" d="M 221.779596 532.6 
L 221.779596 25.8 
" style="fill:none;stroke:#b0b0b0;stroke-linecap:square;stroke-width:0.8;"/>
     </g>
     <g id="line2d_10">
      <g>
       <use style="stroke:#000000;stroke-width:0.8;" x="221.779596" xlink:href="#mbec904e1b8" y="532.6"/>
      </g>
     </g>
     <g id="text_5">
      <!-- 40000 -->
      <defs>
       <path d="M 37.796875 64.3125 
L 12.890625 25.390625 
L 37.796875 25.390625 
z
M 35.203125 72.90625 
L 47.609375 72.90625 
L 47.609375 25.390625 
L 58.015625 25.390625 
L 58.015625 17.1875 
L 47.609375 17.1875 
L 47.609375 0 
L 37.796875 0 
L 37.796875 17.1875 
L 4.890625 17.1875 
L 4.890625 26.703125 
z
" id="DejaVuSans-34"/>
      </defs>
      <g transform="translate(205.873346 547.198437)scale(0.1 -0.1)">
       <use xlink:href="#DejaVuSans-34"/>
       <use x="63.623047" xlink:href="#DejaVuSans-30"/>
       <use x="127.246094" xlink:href="#DejaVuSans-30"/>
       <use x="190.869141" xlink:href="#DejaVuSans-30"/>
       <use x="254.492188" xlink:href="#DejaVuSans-30"/>
      </g>
     </g>
    </g>
    <g id="xtick_6">
     <g id="line2d_11">
      <path clip-path="url(#p6e3b0a7886)" d="M 264.551367 532.6 
L 264.551367 25.8 
" style="fill:none;stroke:#b0b0b0;stroke-linecap:square;stroke-width:0.8;"/>
     </g>
     <g id="line2d_12">
      <g>
       <use style="stroke:#000000;stroke-width:0.8;" x="264.551367" xlink:href="#mbec904e1b8" y="532.6"/>
      </g>
     </g>
     <g id="text_6">
      <!-- 50000 -->
      <defs>
       <path d="M 10.796875 72.90625 
L 49.515625 72.90625 
L 49.515625 64.59375 
L 19.828125 64.59375 
L 19.828125 46.734375 
Q 21.96875 47.46875 24.109375 47.828125 
Q 26.265625 48.1875 28.421875 48.1875 
Q 40.625 48.1875 47.75 41.5 
Q 54.890625 34.8125 54.890625 23.390625 
Q 54.890625 11.625 47.5625 5.09375 
Q 40.234375 -1.421875 26.90625 -1.421875 
Q 22.3125 -1.421875 17.546875 -0.640625 
Q 12.796875 0.140625 7.71875 1.703125 
L 7.71875 11.625 
Q 12.109375 9.234375 16.796875 8.0625 
Q 21.484375 6.890625 26.703125 6.890625 
Q 35.15625 6.890625 40.078125 11.328125 
Q 45.015625 15.765625 45.015625 23.390625 
Q 45.015625 31 40.078125 35.4375 
Q 35.15625 39.890625 26.703125 39.890625 
Q 22.75 39.890625 18.8125 39.015625 
Q 14.890625 38.140625 10.796875 36.28125 
z
" id="DejaVuSans-35"/>
      </defs>
      <g transform="translate(248.645117 547.198437)scale(0.1 -0.1)">
       <use xlink:href="#DejaVuSans-35"/>
       <use x="63.623047" xlink:href="#DejaVuSans-30"/>
       <use x="127.246094" xlink:href="#DejaVuSans-30"/>
       <use x="190.869141" xlink:href="#DejaVuSans-30"/>
       <use x="254.492188" xlink:href="#DejaVuSans-30"/>
      </g>
     </g>
    </g>
    <g id="xtick_7">
     <g id="line2d_13">
      <path clip-path="url(#p6e3b0a7886)" d="M 42.138161 532.6 
L 42.138161 25.8 
" style="fill:none;stroke:#b0b0b0;stroke-dasharray:0.8,1.32;stroke-dashoffset:0;stroke-width:0.8;"/>
     </g>
     <g id="line2d_14">
      <defs>
       <path d="M 0 0 
L 0 2 
" id="m22ddb1a112" style="stroke:#000000;stroke-width:0.6;"/>
      </defs>
      <g>
       <use style="stroke:#000000;stroke-width:0.6;" x="42.138161" xlink:href="#m22ddb1a112" y="532.6"/>
      </g>
     </g>
    </g>
    <g id="xtick_8">
     <g id="line2d_15">
      <path clip-path="url(#p6e3b0a7886)" d="M 59.246869 532.6 
L 59.246869 25.8 
" style="fill:none;stroke:#b0b0b0;stroke-dasharray:0.8,1.32;stroke-dashoffset:0;stroke-width:0.8;"/>
     </g>
     <g id="line2d_16">
      <g>
       <use style="stroke:#000000;stroke-width:0.6;" x="59.246869" xlink:href="#m22ddb1a112" y="532.6"/>
      </g>
     </g>
    </g>
    <g id="xtick_9">
     <g id="line2d_17">
      <path clip-path="url(#p6e3b0a7886)" d="M 67.801223 532.6 
L 67.801223 25.8 
" style="fill:none;stroke:#b0b0b0;stroke-dasharray:0.8,1.32;stroke-dashoffset:0;stroke-width:0.8;"/>
     </g>
     <g id="line2d_18">
      <g>
       <use style="stroke:#000000;stroke-width:0.6;" x="67.801223" xlink:href="#m22ddb1a112" y="532.6"/>
      </g>
     </g>
    </g>
    <g id="xtick_10">
     <g id="line2d_19">
      <path clip-path="url(#p6e3b0a7886)" d="M 76.355577 532.6 
L 76.355577 25.8 
" style="fill:none;stroke:#b0b0b0;stroke-dasharray:0.8,1.32;stroke-dashoffset:0;stroke-width:0.8;"/>
     </g>
     <g id="line2d_20">
      <g>
       <use style="stroke:#000000;stroke-width:0.6;" x="76.355577" xlink:href="#m22ddb1a112" y="532.6"/>
      </g>
     </g>
    </g>
    <g id="xtick_11">
     <g id="line2d_21">
      <path clip-path="url(#p6e3b0a7886)" d="M 84.909931 532.6 
L 84.909931 25.8 
" style="fill:none;stroke:#b0b0b0;stroke-dasharray:0.8,1.32;stroke-dashoffset:0;stroke-width:0.8;"/>
     </g>
     <g id="line2d_22">
      <g>
       <use style="stroke:#000000;stroke-width:0.6;" x="84.909931" xlink:href="#m22ddb1a112" y="532.6"/>
      </g>
     </g>
    </g>
    <g id="xtick_12">
     <g id="line2d_23">
      <path clip-path="url(#p6e3b0a7886)" d="M 102.018639 532.6 
L 102.018639 25.8 
" style="fill:none;stroke:#b0b0b0;stroke-dasharray:0.8,1.32;stroke-dashoffset:0;stroke-width:0.8;"/>
     </g>
     <g id="line2d_24">
      <g>
       <use style="stroke:#000000;stroke-width:0.6;" x="102.018639" xlink:href="#m22ddb1a112" y="532.6"/>
      </g>
     </g>
    </g>
    <g id="xtick_13">
     <g id="line2d_25">
      <path clip-path="url(#p6e3b0a7886)" d="M 110.572993 532.6 
L 110.572993 25.8 
" style="fill:none;stroke:#b0b0b0;stroke-dasharray:0.8,1.32;stroke-dashoffset:0;stroke-width:0.8;"/>
     </g>
     <g id="line2d_26">
      <g>
       <use style="stroke:#000000;stroke-width:0.6;" x="110.572993" xlink:href="#m22ddb1a112" y="532.6"/>
      </g>
     </g>
    </g>
    <g id="xtick_14">
     <g id="line2d_27">
      <path clip-path="url(#p6e3b0a7886)" d="M 119.127347 532.6 
L 119.127347 25.8 
" style="fill:none;stroke:#b0b0b0;stroke-dasharray:0.8,1.32;stroke-dashoffset:0;stroke-width:0.8;"/>
     </g>
     <g id="line2d_28">
      <g>
       <use style="stroke:#000000;stroke-width:0.6;" x="119.127347" xlink:href="#m22ddb1a112" y="532.6"/>
      </g>
     </g>
    </g>
    <g id="xtick_15">
     <g id="line2d_29">
      <path clip-path="url(#p6e3b0a7886)" d="M 127.681701 532.6 
L 127.681701 25.8 
" style="fill:none;stroke:#b0b0b0;stroke-dasharray:0.8,1.32;stroke-dashoffset:0;stroke-width:0.8;"/>
     </g>
     <g id="line2d_30">
      <g>
       <use style="stroke:#000000;stroke-width:0.6;" x="127.681701" xlink:href="#m22ddb1a112" y="532.6"/>
      </g>
     </g>
    </g>
    <g id="xtick_16">
     <g id="line2d_31">
      <path clip-path="url(#p6e3b0a7886)" d="M 144.79041 532.6 
L 144.79041 25.8 
" style="fill:none;stroke:#b0b0b0;stroke-dasharray:0.8,1.32;stroke-dashoffset:0;stroke-width:0.8;"/>
     </g>
     <g id="line2d_32">
      <g>
       <use style="stroke:#000000;stroke-width:0.6;" x="144.79041" xlink:href="#m22ddb1a112" y="532.6"/>
      </g>
     </g>
    </g>
    <g id="xtick_17">
     <g id="line2d_33">
      <path clip-path="url(#p6e3b0a7886)" d="M 153.344764 532.6 
L 153.344764 25.8 
" style="fill:none;stroke:#b0b0b0;stroke-dasharray:0.8,1.32;stroke-dashoffset:0;stroke-width:0.8;"/>
     </g>
     <g id="line2d_34">
      <g>
       <use style="stroke:#000000;stroke-width:0.6;" x="153.344764" xlink:href="#m22ddb1a112" y="532.6"/>
      </g>
     </g>
    </g>
    <g id="xtick_18">
     <g id="line2d_35">
      <path clip-path="url(#p6e3b0a7886)" d="M 161.899118 532.6 
L 161.899118 25.8 
" style="fill:none;stroke:#b0b0b0;stroke-dasharray:0.8,1.32;stroke-dashoffset:0;stroke-width:0.8;"/>
     </g>
     <g id="line2d_36">
      <g>
       <use style="stroke:#000000;stroke-width:0.6;" x="161.899118" xlink:href="#m22ddb1a112" y="532.6"/>
      </g>
     </g>
    </g>
    <g id="xtick_19">
     <g id="line2d_37">
      <path clip-path="url(#p6e3b0a7886)" d="M 170.453472 532.6 
L 170.453472 25.8 
" style="fill:none;stroke:#b0b0b0;stroke-dasharray:0.8,1.32;stroke-dashoffset:0;stroke-width:0.8;"/>
     </g>
     <g id="line2d_38">
      <g>
       <use style="stroke:#000000;stroke-width:0.6;" x="170.453472" xlink:href="#m22ddb1a112" y="532.6"/>
      </g>
     </g>
    </g>
    <g id="xtick_20">
     <g id="line2d_39">
      <path clip-path="url(#p6e3b0a7886)" d="M 187.56218 532.6 
L 187.56218 25.8 
" style="fill:none;stroke:#b0b0b0;stroke-dasharray:0.8,1.32;stroke-dashoffset:0;stroke-width:0.8;"/>
     </g>
     <g id="line2d_40">
      <g>
       <use style="stroke:#000000;stroke-width:0.6;" x="187.56218" xlink:href="#m22ddb1a112" y="532.6"/>
      </g>
     </g>
    </g>
    <g id="xtick_21">
     <g id="line2d_41">
      <path clip-path="url(#p6e3b0a7886)" d="M 196.116534 532.6 
L 196.116534 25.8 
" style="fill:none;stroke:#b0b0b0;stroke-dasharray:0.8,1.32;stroke-dashoffset:0;stroke-width:0.8;"/>
     </g>
     <g id="line2d_42">
      <g>
       <use style="stroke:#000000;stroke-width:0.6;" x="196.116534" xlink:href="#m22ddb1a112" y="532.6"/>
      </g>
     </g>
    </g>
    <g id="xtick_22">
     <g id="line2d_43">
      <path clip-path="url(#p6e3b0a7886)" d="M 204.670888 532.6 
L 204.670888 25.8 
" style="fill:none;stroke:#b0b0b0;stroke-dasharray:0.8,1.32;stroke-dashoffset:0;stroke-width:0.8;"/>
     </g>
     <g id="line2d_44">
      <g>
       <use style="stroke:#000000;stroke-width:0.6;" x="204.670888" xlink:href="#m22ddb1a112" y="532.6"/>
      </g>
     </g>
    </g>
    <g id="xtick_23">
     <g id="line2d_45">
      <path clip-path="url(#p6e3b0a7886)" d="M 213.225242 532.6 
L 213.225242 25.8 
" style="fill:none;stroke:#b0b0b0;stroke-dasharray:0.8,1.32;stroke-dashoffset:0;stroke-width:0.8;"/>
     </g>
     <g id="line2d_46">
      <g>
       <use style="stroke:#000000;stroke-width:0.6;" x="213.225242" xlink:href="#m22ddb1a112" y="532.6"/>
      </g>
     </g>
    </g>
    <g id="xtick_24">
     <g id="line2d_47">
      <path clip-path="url(#p6e3b0a7886)" d="M 230.33395 532.6 
L 230.33395 25.8 
" style="fill:none;stroke:#b0b0b0;stroke-dasharray:0.8,1.32;stroke-dashoffset:0;stroke-width:0.8;"/>
     </g>
     <g id="line2d_48">
      <g>
       <use style="stroke:#000000;stroke-width:0.6;" x="230.33395" xlink:href="#m22ddb1a112" y="532.6"/>
      </g>
     </g>
    </g>
    <g id="xtick_25">
     <g id="line2d_49">
      <path clip-path="url(#p6e3b0a7886)" d="M 238.888304 532.6 
L 238.888304 25.8 
" style="fill:none;stroke:#b0b0b0;stroke-dasharray:0.8,1.32;stroke-dashoffset:0;stroke-width:0.8;"/>
     </g>
     <g id="line2d_50">
      <g>
       <use style="stroke:#000000;stroke-width:0.6;" x="238.888304" xlink:href="#m22ddb1a112" y="532.6"/>
      </g>
     </g>
    </g>
    <g id="xtick_26">
     <g id="line2d_51">
      <path clip-path="url(#p6e3b0a7886)" d="M 247.442658 532.6 
L 247.442658 25.8 
" style="fill:none;stroke:#b0b0b0;stroke-dasharray:0.8,1.32;stroke-dashoffset:0;stroke-width:0.8;"/>
     </g>
     <g id="line2d_52">
      <g>
       <use style="stroke:#000000;stroke-width:0.6;" x="247.442658" xlink:href="#m22ddb1a112" y="532.6"/>
      </g>
     </g>
    </g>
    <g id="xtick_27">
     <g id="line2d_53">
      <path clip-path="url(#p6e3b0a7886)" d="M 255.997013 532.6 
L 255.997013 25.8 
" style="fill:none;stroke:#b0b0b0;stroke-dasharray:0.8,1.32;stroke-dashoffset:0;stroke-width:0.8;"/>
     </g>
     <g id="line2d_54">
      <g>
       <use style="stroke:#000000;stroke-width:0.6;" x="255.997013" xlink:href="#m22ddb1a112" y="532.6"/>
      </g>
     </g>
    </g>
    <g id="xtick_28">
     <g id="line2d_55">
      <path clip-path="url(#p6e3b0a7886)" d="M 273.105721 532.6 
L 273.105721 25.8 
" style="fill:none;stroke:#b0b0b0;stroke-dasharray:0.8,1.32;stroke-dashoffset:0;stroke-width:0.8;"/>
     </g>
     <g id="line2d_56">
      <g>
       <use style="stroke:#000000;stroke-width:0.6;" x="273.105721" xlink:href="#m22ddb1a112" y="532.6"/>
      </g>
     </g>
    </g>
    <g id="text_7">
     <!-- iteration -->
     <defs>
      <path d="M 9.421875 54.6875 
L 18.40625 54.6875 
L 18.40625 0 
L 9.421875 0 
z
M 9.421875 75.984375 
L 18.40625 75.984375 
L 18.40625 64.59375 
L 9.421875 64.59375 
z
" id="DejaVuSans-69"/>
      <path d="M 18.3125 70.21875 
L 18.3125 54.6875 
L 36.8125 54.6875 
L 36.8125 47.703125 
L 18.3125 47.703125 
L 18.3125 18.015625 
Q 18.3125 11.328125 20.140625 9.421875 
Q 21.96875 7.515625 27.59375 7.515625 
L 36.8125 7.515625 
L 36.8125 0 
L 27.59375 0 
Q 17.1875 0 13.234375 3.875 
Q 9.28125 7.765625 9.28125 18.015625 
L 9.28125 47.703125 
L 2.6875 47.703125 
L 2.6875 54.6875 
L 9.28125 54.6875 
L 9.28125 70.21875 
z
" id="DejaVuSans-74"/>
      <path d="M 56.203125 29.59375 
L 56.203125 25.203125 
L 14.890625 25.203125 
Q 15.484375 15.921875 20.484375 11.0625 
Q 25.484375 6.203125 34.421875 6.203125 
Q 39.59375 6.203125 44.453125 7.46875 
Q 49.3125 8.734375 54.109375 11.28125 
L 54.109375 2.78125 
Q 49.265625 0.734375 44.1875 -0.34375 
Q 39.109375 -1.421875 33.890625 -1.421875 
Q 20.796875 -1.421875 13.15625 6.1875 
Q 5.515625 13.8125 5.515625 26.8125 
Q 5.515625 40.234375 12.765625 48.109375 
Q 20.015625 56 32.328125 56 
Q 43.359375 56 49.78125 48.890625 
Q 56.203125 41.796875 56.203125 29.59375 
z
M 47.21875 32.234375 
Q 47.125 39.59375 43.09375 43.984375 
Q 39.0625 48.390625 32.421875 48.390625 
Q 24.90625 48.390625 20.390625 44.140625 
Q 15.875 39.890625 15.1875 32.171875 
z
" id="DejaVuSans-65"/>
      <path d="M 41.109375 46.296875 
Q 39.59375 47.171875 37.8125 47.578125 
Q 36.03125 48 33.890625 48 
Q 26.265625 48 22.1875 43.046875 
Q 18.109375 38.09375 18.109375 28.8125 
L 18.109375 0 
L 9.078125 0 
L 9.078125 54.6875 
L 18.109375 54.6875 
L 18.109375 46.1875 
Q 20.953125 51.171875 25.484375 53.578125 
Q 30.03125 56 36.53125 56 
Q 37.453125 56 38.578125 55.875 
Q 39.703125 55.765625 41.0625 55.515625 
z
" id="DejaVuSans-72"/>
      <path d="M 34.28125 27.484375 
Q 23.390625 27.484375 19.1875 25 
Q 14.984375 22.515625 14.984375 16.5 
Q 14.984375 11.71875 18.140625 8.90625 
Q 21.296875 6.109375 26.703125 6.109375 
Q 34.1875 6.109375 38.703125 11.40625 
Q 43.21875 16.703125 43.21875 25.484375 
L 43.21875 27.484375 
z
M 52.203125 31.203125 
L 52.203125 0 
L 43.21875 0 
L 43.21875 8.296875 
Q 40.140625 3.328125 35.546875 0.953125 
Q 30.953125 -1.421875 24.3125 -1.421875 
Q 15.921875 -1.421875 10.953125 3.296875 
Q 6 8.015625 6 15.921875 
Q 6 25.140625 12.171875 29.828125 
Q 18.359375 34.515625 30.609375 34.515625 
L 43.21875 34.515625 
L 43.21875 35.40625 
Q 43.21875 41.609375 39.140625 45 
Q 35.0625 48.390625 27.6875 48.390625 
Q 23 48.390625 18.546875 47.265625 
Q 14.109375 46.140625 10.015625 43.890625 
L 10.015625 52.203125 
Q 14.9375 54.109375 19.578125 55.046875 
Q 24.21875 56 28.609375 56 
Q 40.484375 56 46.34375 49.84375 
Q 52.203125 43.703125 52.203125 31.203125 
z
" id="DejaVuSans-61"/>
      <path d="M 30.609375 48.390625 
Q 23.390625 48.390625 19.1875 42.75 
Q 14.984375 37.109375 14.984375 27.296875 
Q 14.984375 17.484375 19.15625 11.84375 
Q 23.34375 6.203125 30.609375 6.203125 
Q 37.796875 6.203125 41.984375 11.859375 
Q 46.1875 17.53125 46.1875 27.296875 
Q 46.1875 37.015625 41.984375 42.703125 
Q 37.796875 48.390625 30.609375 48.390625 
z
M 30.609375 56 
Q 42.328125 56 49.015625 48.375 
Q 55.71875 40.765625 55.71875 27.296875 
Q 55.71875 13.875 49.015625 6.21875 
Q 42.328125 -1.421875 30.609375 -1.421875 
Q 18.84375 -1.421875 12.171875 6.21875 
Q 5.515625 13.875 5.515625 27.296875 
Q 5.515625 40.765625 12.171875 48.375 
Q 18.84375 56 30.609375 56 
z
" id="DejaVuSans-6f"/>
      <path d="M 54.890625 33.015625 
L 54.890625 0 
L 45.90625 0 
L 45.90625 32.71875 
Q 45.90625 40.484375 42.875 44.328125 
Q 39.84375 48.1875 33.796875 48.1875 
Q 26.515625 48.1875 22.3125 43.546875 
Q 18.109375 38.921875 18.109375 30.90625 
L 18.109375 0 
L 9.078125 0 
L 9.078125 54.6875 
L 18.109375 54.6875 
L 18.109375 46.1875 
Q 21.34375 51.125 25.703125 53.5625 
Q 30.078125 56 35.796875 56 
Q 45.21875 56 50.046875 50.171875 
Q 54.890625 44.34375 54.890625 33.015625 
z
" id="DejaVuSans-6e"/>
     </defs>
     <g transform="translate(136.495007 560.876562)scale(0.1 -0.1)">
      <use xlink:href="#DejaVuSans-69"/>
      <use x="27.783203" xlink:href="#DejaVuSans-74"/>
      <use x="66.992188" xlink:href="#DejaVuSans-65"/>
      <use x="128.515625" xlink:href="#DejaVuSans-72"/>
      <use x="169.628906" xlink:href="#DejaVuSans-61"/>
      <use x="230.908203" xlink:href="#DejaVuSans-74"/>
      <use x="270.117188" xlink:href="#DejaVuSans-69"/>
      <use x="297.900391" xlink:href="#DejaVuSans-6f"/>
      <use x="359.082031" xlink:href="#DejaVuSans-6e"/>
     </g>
    </g>
   </g>
   <g id="matplotlib.axis_2">
    <g id="ytick_1">
     <g id="line2d_57">
      <defs>
       <path d="M 0 0 
L -3.5 0 
" id="m8ac65f6f30" style="stroke:#000000;stroke-width:0.8;"/>
      </defs>
      <g>
       <use style="stroke:#000000;stroke-width:0.8;" x="40" xlink:href="#m8ac65f6f30" y="478.245344"/>
      </g>
     </g>
     <g id="text_8">
      <!-- 0.90 -->
      <defs>
       <path d="M 10.6875 12.40625 
L 21 12.40625 
L 21 0 
L 10.6875 0 
z
" id="DejaVuSans-2e"/>
       <path d="M 10.984375 1.515625 
L 10.984375 10.5 
Q 14.703125 8.734375 18.5 7.8125 
Q 22.3125 6.890625 25.984375 6.890625 
Q 35.75 6.890625 40.890625 13.453125 
Q 46.046875 20.015625 46.78125 33.40625 
Q 43.953125 29.203125 39.59375 26.953125 
Q 35.25 24.703125 29.984375 24.703125 
Q 19.046875 24.703125 12.671875 31.3125 
Q 6.296875 37.9375 6.296875 49.421875 
Q 6.296875 60.640625 12.9375 67.421875 
Q 19.578125 74.21875 30.609375 74.21875 
Q 43.265625 74.21875 49.921875 64.515625 
Q 56.59375 54.828125 56.59375 36.375 
Q 56.59375 19.140625 48.40625 8.859375 
Q 40.234375 -1.421875 26.421875 -1.421875 
Q 22.703125 -1.421875 18.890625 -0.6875 
Q 15.09375 0.046875 10.984375 1.515625 
z
M 30.609375 32.421875 
Q 37.25 32.421875 41.125 36.953125 
Q 45.015625 41.5 45.015625 49.421875 
Q 45.015625 57.28125 41.125 61.84375 
Q 37.25 66.40625 30.609375 66.40625 
Q 23.96875 66.40625 20.09375 61.84375 
Q 16.21875 57.28125 16.21875 49.421875 
Q 16.21875 41.5 20.09375 36.953125 
Q 23.96875 32.421875 30.609375 32.421875 
z
" id="DejaVuSans-39"/>
      </defs>
      <g transform="translate(10.734375 482.044563)scale(0.1 -0.1)">
       <use xlink:href="#DejaVuSans-30"/>
       <use x="63.623047" xlink:href="#DejaVuSans-2e"/>
       <use x="95.410156" xlink:href="#DejaVuSans-39"/>
       <use x="159.033203" xlink:href="#DejaVuSans-30"/>
      </g>
     </g>
    </g>
    <g id="ytick_2">
     <g id="line2d_58">
      <g>
       <use style="stroke:#000000;stroke-width:0.8;" x="40" xlink:href="#m8ac65f6f30" y="418.032526"/>
      </g>
     </g>
     <g id="text_9">
      <!-- 0.95 -->
      <g transform="translate(10.734375 421.831745)scale(0.1 -0.1)">
       <use xlink:href="#DejaVuSans-30"/>
       <use x="63.623047" xlink:href="#DejaVuSans-2e"/>
       <use x="95.410156" xlink:href="#DejaVuSans-39"/>
       <use x="159.033203" xlink:href="#DejaVuSans-35"/>
      </g>
     </g>
    </g>
    <g id="ytick_3">
     <g id="line2d_59">
      <g>
       <use style="stroke:#000000;stroke-width:0.8;" x="40" xlink:href="#m8ac65f6f30" y="357.819709"/>
      </g>
     </g>
     <g id="text_10">
      <!-- 1.00 -->
      <g transform="translate(10.734375 361.618928)scale(0.1 -0.1)">
       <use xlink:href="#DejaVuSans-31"/>
       <use x="63.623047" xlink:href="#DejaVuSans-2e"/>
       <use x="95.410156" xlink:href="#DejaVuSans-30"/>
       <use x="159.033203" xlink:href="#DejaVuSans-30"/>
      </g>
     </g>
    </g>
    <g id="ytick_4">
     <g id="line2d_60">
      <g>
       <use style="stroke:#000000;stroke-width:0.8;" x="40" xlink:href="#m8ac65f6f30" y="297.606891"/>
      </g>
     </g>
     <g id="text_11">
      <!-- 1.05 -->
      <g transform="translate(10.734375 301.40611)scale(0.1 -0.1)">
       <use xlink:href="#DejaVuSans-31"/>
       <use x="63.623047" xlink:href="#DejaVuSans-2e"/>
       <use x="95.410156" xlink:href="#DejaVuSans-30"/>
       <use x="159.033203" xlink:href="#DejaVuSans-35"/>
      </g>
     </g>
    </g>
    <g id="ytick_5">
     <g id="line2d_61">
      <g>
       <use style="stroke:#000000;stroke-width:0.8;" x="40" xlink:href="#m8ac65f6f30" y="237.394074"/>
      </g>
     </g>
     <g id="text_12">
      <!-- 1.10 -->
      <g transform="translate(10.734375 241.193292)scale(0.1 -0.1)">
       <use xlink:href="#DejaVuSans-31"/>
       <use x="63.623047" xlink:href="#DejaVuSans-2e"/>
       <use x="95.410156" xlink:href="#DejaVuSans-31"/>
       <use x="159.033203" xlink:href="#DejaVuSans-30"/>
      </g>
     </g>
    </g>
    <g id="ytick_6">
     <g id="line2d_62">
      <g>
       <use style="stroke:#000000;stroke-width:0.8;" x="40" xlink:href="#m8ac65f6f30" y="177.181256"/>
      </g>
     </g>
     <g id="text_13">
      <!-- 1.15 -->
      <g transform="translate(10.734375 180.980475)scale(0.1 -0.1)">
       <use xlink:href="#DejaVuSans-31"/>
       <use x="63.623047" xlink:href="#DejaVuSans-2e"/>
       <use x="95.410156" xlink:href="#DejaVuSans-31"/>
       <use x="159.033203" xlink:href="#DejaVuSans-35"/>
      </g>
     </g>
    </g>
    <g id="ytick_7">
     <g id="line2d_63">
      <g>
       <use style="stroke:#000000;stroke-width:0.8;" x="40" xlink:href="#m8ac65f6f30" y="116.968438"/>
      </g>
     </g>
     <g id="text_14">
      <!-- 1.20 -->
      <g transform="translate(10.734375 120.767657)scale(0.1 -0.1)">
       <use xlink:href="#DejaVuSans-31"/>
       <use x="63.623047" xlink:href="#DejaVuSans-2e"/>
       <use x="95.410156" xlink:href="#DejaVuSans-32"/>
       <use x="159.033203" xlink:href="#DejaVuSans-30"/>
      </g>
     </g>
    </g>
    <g id="ytick_8">
     <g id="line2d_64">
      <g>
       <use style="stroke:#000000;stroke-width:0.8;" x="40" xlink:href="#m8ac65f6f30" y="56.755621"/>
      </g>
     </g>
     <g id="text_15">
      <!-- 1.25 -->
      <g transform="translate(10.734375 60.55484)scale(0.1 -0.1)">
       <use xlink:href="#DejaVuSans-31"/>
       <use x="63.623047" xlink:href="#DejaVuSans-2e"/>
       <use x="95.410156" xlink:href="#DejaVuSans-32"/>
       <use x="159.033203" xlink:href="#DejaVuSans-35"/>
      </g>
     </g>
    </g>
    <g id="ytick_9">
     <g id="line2d_65">
      <defs>
       <path d="M 0 0 
L -2 0 
" id="m44d266f1bc" style="stroke:#000000;stroke-width:0.6;"/>
      </defs>
      <g>
       <use style="stroke:#000000;stroke-width:0.6;" x="40" xlink:href="#m44d266f1bc" y="526.415598"/>
      </g>
     </g>
    </g>
    <g id="ytick_10">
     <g id="line2d_66">
      <g>
       <use style="stroke:#000000;stroke-width:0.6;" x="40" xlink:href="#m44d266f1bc" y="514.373035"/>
      </g>
     </g>
    </g>
    <g id="ytick_11">
     <g id="line2d_67">
      <g>
       <use style="stroke:#000000;stroke-width:0.6;" x="40" xlink:href="#m44d266f1bc" y="502.330471"/>
      </g>
     </g>
    </g>
    <g id="ytick_12">
     <g id="line2d_68">
      <g>
       <use style="stroke:#000000;stroke-width:0.6;" x="40" xlink:href="#m44d266f1bc" y="490.287908"/>
      </g>
     </g>
    </g>
    <g id="ytick_13">
     <g id="line2d_69">
      <g>
       <use style="stroke:#000000;stroke-width:0.6;" x="40" xlink:href="#m44d266f1bc" y="466.20278"/>
      </g>
     </g>
    </g>
    <g id="ytick_14">
     <g id="line2d_70">
      <g>
       <use style="stroke:#000000;stroke-width:0.6;" x="40" xlink:href="#m44d266f1bc" y="454.160217"/>
      </g>
     </g>
    </g>
    <g id="ytick_15">
     <g id="line2d_71">
      <g>
       <use style="stroke:#000000;stroke-width:0.6;" x="40" xlink:href="#m44d266f1bc" y="442.117653"/>
      </g>
     </g>
    </g>
    <g id="ytick_16">
     <g id="line2d_72">
      <g>
       <use style="stroke:#000000;stroke-width:0.6;" x="40" xlink:href="#m44d266f1bc" y="430.07509"/>
      </g>
     </g>
    </g>
    <g id="ytick_17">
     <g id="line2d_73">
      <g>
       <use style="stroke:#000000;stroke-width:0.6;" x="40" xlink:href="#m44d266f1bc" y="405.989963"/>
      </g>
     </g>
    </g>
    <g id="ytick_18">
     <g id="line2d_74">
      <g>
       <use style="stroke:#000000;stroke-width:0.6;" x="40" xlink:href="#m44d266f1bc" y="393.947399"/>
      </g>
     </g>
    </g>
    <g id="ytick_19">
     <g id="line2d_75">
      <g>
       <use style="stroke:#000000;stroke-width:0.6;" x="40" xlink:href="#m44d266f1bc" y="381.904836"/>
      </g>
     </g>
    </g>
    <g id="ytick_20">
     <g id="line2d_76">
      <g>
       <use style="stroke:#000000;stroke-width:0.6;" x="40" xlink:href="#m44d266f1bc" y="369.862272"/>
      </g>
     </g>
    </g>
    <g id="ytick_21">
     <g id="line2d_77">
      <g>
       <use style="stroke:#000000;stroke-width:0.6;" x="40" xlink:href="#m44d266f1bc" y="345.777145"/>
      </g>
     </g>
    </g>
    <g id="ytick_22">
     <g id="line2d_78">
      <g>
       <use style="stroke:#000000;stroke-width:0.6;" x="40" xlink:href="#m44d266f1bc" y="333.734582"/>
      </g>
     </g>
    </g>
    <g id="ytick_23">
     <g id="line2d_79">
      <g>
       <use style="stroke:#000000;stroke-width:0.6;" x="40" xlink:href="#m44d266f1bc" y="321.692018"/>
      </g>
     </g>
    </g>
    <g id="ytick_24">
     <g id="line2d_80">
      <g>
       <use style="stroke:#000000;stroke-width:0.6;" x="40" xlink:href="#m44d266f1bc" y="309.649455"/>
      </g>
     </g>
    </g>
    <g id="ytick_25">
     <g id="line2d_81">
      <g>
       <use style="stroke:#000000;stroke-width:0.6;" x="40" xlink:href="#m44d266f1bc" y="285.564328"/>
      </g>
     </g>
    </g>
    <g id="ytick_26">
     <g id="line2d_82">
      <g>
       <use style="stroke:#000000;stroke-width:0.6;" x="40" xlink:href="#m44d266f1bc" y="273.521764"/>
      </g>
     </g>
    </g>
    <g id="ytick_27">
     <g id="line2d_83">
      <g>
       <use style="stroke:#000000;stroke-width:0.6;" x="40" xlink:href="#m44d266f1bc" y="261.479201"/>
      </g>
     </g>
    </g>
    <g id="ytick_28">
     <g id="line2d_84">
      <g>
       <use style="stroke:#000000;stroke-width:0.6;" x="40" xlink:href="#m44d266f1bc" y="249.436637"/>
      </g>
     </g>
    </g>
    <g id="ytick_29">
     <g id="line2d_85">
      <g>
       <use style="stroke:#000000;stroke-width:0.6;" x="40" xlink:href="#m44d266f1bc" y="225.35151"/>
      </g>
     </g>
    </g>
    <g id="ytick_30">
     <g id="line2d_86">
      <g>
       <use style="stroke:#000000;stroke-width:0.6;" x="40" xlink:href="#m44d266f1bc" y="213.308947"/>
      </g>
     </g>
    </g>
    <g id="ytick_31">
     <g id="line2d_87">
      <g>
       <use style="stroke:#000000;stroke-width:0.6;" x="40" xlink:href="#m44d266f1bc" y="201.266383"/>
      </g>
     </g>
    </g>
    <g id="ytick_32">
     <g id="line2d_88">
      <g>
       <use style="stroke:#000000;stroke-width:0.6;" x="40" xlink:href="#m44d266f1bc" y="189.22382"/>
      </g>
     </g>
    </g>
    <g id="ytick_33">
     <g id="line2d_89">
      <g>
       <use style="stroke:#000000;stroke-width:0.6;" x="40" xlink:href="#m44d266f1bc" y="165.138693"/>
      </g>
     </g>
    </g>
    <g id="ytick_34">
     <g id="line2d_90">
      <g>
       <use style="stroke:#000000;stroke-width:0.6;" x="40" xlink:href="#m44d266f1bc" y="153.096129"/>
      </g>
     </g>
    </g>
    <g id="ytick_35">
     <g id="line2d_91">
      <g>
       <use style="stroke:#000000;stroke-width:0.6;" x="40" xlink:href="#m44d266f1bc" y="141.053566"/>
      </g>
     </g>
    </g>
    <g id="ytick_36">
     <g id="line2d_92">
      <g>
       <use style="stroke:#000000;stroke-width:0.6;" x="40" xlink:href="#m44d266f1bc" y="129.011002"/>
      </g>
     </g>
    </g>
    <g id="ytick_37">
     <g id="line2d_93">
      <g>
       <use style="stroke:#000000;stroke-width:0.6;" x="40" xlink:href="#m44d266f1bc" y="104.925875"/>
      </g>
     </g>
    </g>
    <g id="ytick_38">
     <g id="line2d_94">
      <g>
       <use style="stroke:#000000;stroke-width:0.6;" x="40" xlink:href="#m44d266f1bc" y="92.883311"/>
      </g>
     </g>
    </g>
    <g id="ytick_39">
     <g id="line2d_95">
      <g>
       <use style="stroke:#000000;stroke-width:0.6;" x="40" xlink:href="#m44d266f1bc" y="80.840748"/>
      </g>
     </g>
    </g>
    <g id="ytick_40">
     <g id="line2d_96">
      <g>
       <use style="stroke:#000000;stroke-width:0.6;" x="40" xlink:href="#m44d266f1bc" y="68.798184"/>
      </g>
     </g>
    </g>
    <g id="ytick_41">
     <g id="line2d_97">
      <g>
       <use style="stroke:#000000;stroke-width:0.6;" x="40" xlink:href="#m44d266f1bc" y="44.713057"/>
      </g>
     </g>
    </g>
    <g id="ytick_42">
     <g id="line2d_98">
      <g>
       <use style="stroke:#000000;stroke-width:0.6;" x="40" xlink:href="#m44d266f1bc" y="32.670494"/>
      </g>
     </g>
    </g>
   </g>
   <g id="line2d_99">
    <path clip-path="url(#p6e3b0a7886)" d="M 50.692515 491.426013 
L 51.432466 491.336499 
L 51.475238 490.356903 
L 51.54795 480.385514 
L 51.582168 477.099783 
L 51.642048 482.924689 
L 51.65488 483.35838 
L 51.701929 480.293093 
L 52.035548 443.080511 
L 52.249407 358.412287 
L 52.317842 365.55368 
L 52.399109 377.878749 
L 52.702788 509.563636 
L 52.758391 481.896998 
L 53.070625 48.836364 
L 53.169 153.882414 
L 53.374305 417.713705 
L 53.421354 410.491772 
L 53.498343 349.328417 
L 53.754974 60.209777 
L 53.797745 80.613965 
L 53.951724 344.496807 
L 54.041544 416.665993 
L 54.092871 390.897526 
L 54.323838 153.496488 
L 54.405105 198.456488 
L 54.683121 405.690603 
L 54.717338 401.114189 
L 54.815714 340.986219 
L 54.935474 274.88922 
L 54.986801 289.672795 
L 55.204937 440.094837 
L 55.307589 418.754367 
L 55.517171 353.58642 
L 55.581328 368.002671 
L 55.76097 442.499363 
L 55.825127 431.795708 
L 56.009046 391.191295 
L 56.064649 393.637628 
L 56.128807 396.313182 
L 56.18441 394.354205 
L 56.278508 389.762655 
L 56.329834 391.931553 
L 56.505198 414.08493 
L 56.573633 404.53501 
L 56.74472 356.810428 
L 56.813155 366.639421 
L 56.958579 393.375374 
L 57.009905 389.61494 
L 57.266536 360.232855 
L 57.326416 361.064415 
L 57.583047 366.933329 
L 57.63865 366.203216 
L 57.741303 359.729714 
L 57.903835 348.189555 
L 57.955161 349.570295 
L 58.156189 362.520442 
L 58.237455 359.354578 
L 58.438482 344.483135 
L 58.506917 347.229232 
L 58.690836 359.5375 
L 58.754994 358.074262 
L 59.024456 349.273776 
L 59.067228 349.682189 
L 59.16988 354.225446 
L 59.319581 360.579085 
L 59.36663 359.851153 
L 59.567657 353.311489 
L 59.648924 354.478177 
L 60.003929 363.123295 
L 60.072364 361.977979 
L 60.243451 355.764342 
L 60.307609 357.357022 
L 60.517191 368.816406 
L 60.598457 366.570287 
L 60.765267 360.352974 
L 60.816593 361.029171 
L 61.086055 369.397983 
L 61.18443 368.012757 
L 61.376903 364.050375 
L 61.432506 364.549421 
L 61.586485 369.474072 
L 61.680583 371.134968 
L 61.731909 370.633332 
L 61.928659 366.222364 
L 62.005648 367.281788 
L 62.236616 372.714358 
L 62.300773 372.263542 
L 62.493246 369.777779 
L 62.557404 370.238224 
L 62.788372 373.806185 
L 62.873915 373.223383 
L 63.040725 371.877125 
L 63.087774 371.996108 
L 63.348682 373.224567 
L 63.429948 373.084279 
L 63.810617 372.315313 
L 63.943209 372.477053 
L 64.058693 372.596146 
L 64.101465 372.53648 
L 64.345264 371.790953 
L 64.447916 372.000406 
L 64.580509 372.189801 
L 64.619003 372.156955 
L 64.995395 371.856741 
L 65.119433 372.031624 
L 65.247748 372.176103 
L 65.286243 372.134243 
L 65.478716 371.824606 
L 65.542874 371.917518 
L 65.696852 372.152523 
L 65.743901 372.09335 
L 65.962037 371.661906 
L 66.030472 371.746445 
L 66.167341 371.895852 
L 66.210113 371.842597 
L 66.432526 371.40637 
L 66.500961 371.510944 
L 66.701989 371.819554 
L 66.740483 371.789427 
L 66.885907 371.713708 
L 66.915847 371.757432 
L 67.061271 372.285594 
L 67.326456 372.963369 
L 67.467603 373.439752 
L 68.160506 376.421715 
L 68.494126 377.214831 
L 68.80636 377.733672 
L 69.272572 377.538224 
L 70.564279 375.394978 
L 71.103204 375.58843 
L 72.240933 377.557571 
L 72.844015 378.500302 
L 73.44282 379.06174 
L 74.272592 379.465863 
L 76.111778 380.011519 
L 76.873115 380.530994 
L 78.036508 381.291325 
L 78.742242 381.475984 
L 83.489908 381.91067 
L 84.888545 381.906287 
L 86.783335 381.937215 
L 97.8655 380.93522 
L 103.960478 380.280145 
L 110.406183 379.670161 
L 117.557623 379.143452 
L 127.47212 378.635019 
L 139.726232 378.252039 
L 157.16856 377.951841 
L 182.408182 377.762023 
L 226.830942 377.670605 
L 264.542812 377.655795 
L 264.542812 377.655795 
" style="fill:none;stroke:#000000;stroke-linecap:square;stroke-width:1.5;"/>
   </g>
   <g id="line2d_100">
    <path clip-path="url(#p6e3b0a7886)" d="M 50.692515 370.233852 
L 52.523147 370.345069 
L 56.402546 370.779478 
L 61.91155 372.144824 
L 63.707965 373.091064 
L 65.080938 373.992693 
L 65.876493 374.206386 
L 66.898739 373.9941 
L 67.300793 373.795061 
L 67.47188 373.749917 
L 67.724234 373.555983 
L 67.767006 373.619941 
L 68.062131 374.011416 
L 68.083517 373.99981 
L 68.250327 374.027448 
L 68.378642 374.419032 
L 68.678044 375.465214 
L 68.712262 375.446528 
L 68.827745 375.423414 
L 68.853409 375.469466 
L 68.968892 376.031619 
L 69.306789 377.622633 
L 69.56342 377.675827 
L 69.721675 378.701756 
L 69.948366 379.661726 
L 69.95692 379.659067 
L 70.046741 379.481213 
L 70.337589 378.96699 
L 70.538616 379.029059 
L 70.696872 378.987772 
L 70.906454 378.60576 
L 71.898759 376.156116 
L 73.489868 372.369069 
L 73.665233 372.377852 
L 73.891923 372.362815 
L 74.071565 372.011981 
L 74.221266 371.717723 
L 74.264038 371.777256 
L 74.392353 372.368793 
L 74.691755 373.85038 
L 74.721695 373.836703 
L 74.905614 373.777081 
L 74.931277 373.825945 
L 75.06387 374.443275 
L 75.371826 375.962227 
L 75.406044 375.946277 
L 75.534359 375.921139 
L 75.560022 375.965239 
L 75.701169 376.544869 
L 75.970631 377.380563 
L 76.325637 377.578839 
L 76.496724 377.805397 
L 76.526664 377.78428 
L 76.903056 377.567388 
L 77.082697 377.554616 
L 77.501861 377.239817 
L 78.228981 377.095483 
L 79.195623 377.347308 
L 81.573733 378.745347 
L 82.424891 379.087376 
L 85.307709 379.732389 
L 90.247848 380.49377 
L 97.993816 380.718591 
L 102.386477 380.474112 
L 131.612427 378.600855 
L 144.127447 378.220366 
L 161.219047 377.939197 
L 187.117354 377.754607 
L 235.937052 377.666478 
L 264.542812 377.658271 
L 264.542812 377.658271 
" style="fill:none;stroke:#1f77b4;stroke-linecap:square;stroke-width:1.5;"/>
   </g>
   <g id="patch_3">
    <path d="M 40 532.6 
L 40 25.8 
" style="fill:none;stroke:#000000;stroke-linecap:square;stroke-linejoin:miter;stroke-width:0.8;"/>
   </g>
   <g id="patch_4">
    <path d="M 275.235327 532.6 
L 275.235327 25.8 
" style="fill:none;stroke:#000000;stroke-linecap:square;stroke-linejoin:miter;stroke-width:0.8;"/>
   </g>
   <g id="patch_5">
    <path d="M 40 532.6 
L 275.235327 532.6 
" style="fill:none;stroke:#000000;stroke-linecap:square;stroke-linejoin:miter;stroke-width:0.8;"/>
   </g>
   <g id="patch_6">
    <path d="M 40 25.8 
L 275.235327 25.8 
" style="fill:none;stroke:#000000;stroke-linecap:square;stroke-linejoin:miter;stroke-width:0.8;"/>
   </g>
   <g id="text_16">
    <!-- AIRFOIL -->
    <defs>
     <path d="M 34.1875 63.1875 
L 20.796875 26.90625 
L 47.609375 26.90625 
z
M 28.609375 72.90625 
L 39.796875 72.90625 
L 67.578125 0 
L 57.328125 0 
L 50.6875 18.703125 
L 17.828125 18.703125 
L 11.1875 0 
L 0.78125 0 
z
" id="DejaVuSans-41"/>
     <path d="M 9.8125 72.90625 
L 19.671875 72.90625 
L 19.671875 0 
L 9.8125 0 
z
" id="DejaVuSans-49"/>
     <path d="M 44.390625 34.1875 
Q 47.5625 33.109375 50.5625 29.59375 
Q 53.5625 26.078125 56.59375 19.921875 
L 66.609375 0 
L 56 0 
L 46.6875 18.703125 
Q 43.0625 26.03125 39.671875 28.421875 
Q 36.28125 30.8125 30.421875 30.8125 
L 19.671875 30.8125 
L 19.671875 0 
L 9.8125 0 
L 9.8125 72.90625 
L 32.078125 72.90625 
Q 44.578125 72.90625 50.734375 67.671875 
Q 56.890625 62.453125 56.890625 51.90625 
Q 56.890625 45.015625 53.6875 40.46875 
Q 50.484375 35.9375 44.390625 34.1875 
z
M 19.671875 64.796875 
L 19.671875 38.921875 
L 32.078125 38.921875 
Q 39.203125 38.921875 42.84375 42.21875 
Q 46.484375 45.515625 46.484375 51.90625 
Q 46.484375 58.296875 42.84375 61.546875 
Q 39.203125 64.796875 32.078125 64.796875 
z
" id="DejaVuSans-52"/>
     <path d="M 9.8125 72.90625 
L 51.703125 72.90625 
L 51.703125 64.59375 
L 19.671875 64.59375 
L 19.671875 43.109375 
L 48.578125 43.109375 
L 48.578125 34.8125 
L 19.671875 34.8125 
L 19.671875 0 
L 9.8125 0 
z
" id="DejaVuSans-46"/>
     <path d="M 39.40625 66.21875 
Q 28.65625 66.21875 22.328125 58.203125 
Q 16.015625 50.203125 16.015625 36.375 
Q 16.015625 22.609375 22.328125 14.59375 
Q 28.65625 6.59375 39.40625 6.59375 
Q 50.140625 6.59375 56.421875 14.59375 
Q 62.703125 22.609375 62.703125 36.375 
Q 62.703125 50.203125 56.421875 58.203125 
Q 50.140625 66.21875 39.40625 66.21875 
z
M 39.40625 74.21875 
Q 54.734375 74.21875 63.90625 63.9375 
Q 73.09375 53.65625 73.09375 36.375 
Q 73.09375 19.140625 63.90625 8.859375 
Q 54.734375 -1.421875 39.40625 -1.421875 
Q 24.03125 -1.421875 14.8125 8.828125 
Q 5.609375 19.09375 5.609375 36.375 
Q 5.609375 53.65625 14.8125 63.9375 
Q 24.03125 74.21875 39.40625 74.21875 
z
" id="DejaVuSans-4f"/>
     <path d="M 9.8125 72.90625 
L 19.671875 72.90625 
L 19.671875 8.296875 
L 55.171875 8.296875 
L 55.171875 0 
L 9.8125 0 
z
" id="DejaVuSans-4c"/>
    </defs>
    <g transform="translate(134.287039 19.8)scale(0.12 -0.12)">
     <use xlink:href="#DejaVuSans-41"/>
     <use x="68.408203" xlink:href="#DejaVuSans-49"/>
     <use x="97.900391" xlink:href="#DejaVuSans-52"/>
     <use x="167.382812" xlink:href="#DejaVuSans-46"/>
     <use x="224.902344" xlink:href="#DejaVuSans-4f"/>
     <use x="303.613281" xlink:href="#DejaVuSans-49"/>
     <use x="333.105469" xlink:href="#DejaVuSans-4c"/>
    </g>
   </g>
   <g id="legend_1">
    <g id="patch_7">
     <path d="M 179.56189 63.15625 
L 268.235327 63.15625 
Q 270.235327 63.15625 270.235327 61.15625 
L 270.235327 32.8 
Q 270.235327 30.8 268.235327 30.8 
L 179.56189 30.8 
Q 177.56189 30.8 177.56189 32.8 
L 177.56189 61.15625 
Q 177.56189 63.15625 179.56189 63.15625 
z
" style="fill:#ffffff;opacity:0.8;stroke:#cccccc;stroke-linejoin:miter;"/>
    </g>
    <g id="line2d_101">
     <path d="M 181.56189 38.898437 
L 201.56189 38.898437 
" style="fill:none;stroke:#000000;stroke-linecap:square;stroke-width:1.5;"/>
    </g>
    <g id="line2d_102"/>
    <g id="text_17">
     <!-- CL -->
     <defs>
      <path d="M 64.40625 67.28125 
L 64.40625 56.890625 
Q 59.421875 61.53125 53.78125 63.8125 
Q 48.140625 66.109375 41.796875 66.109375 
Q 29.296875 66.109375 22.65625 58.46875 
Q 16.015625 50.828125 16.015625 36.375 
Q 16.015625 21.96875 22.65625 14.328125 
Q 29.296875 6.6875 41.796875 6.6875 
Q 48.140625 6.6875 53.78125 8.984375 
Q 59.421875 11.28125 64.40625 15.921875 
L 64.40625 5.609375 
Q 59.234375 2.09375 53.4375 0.328125 
Q 47.65625 -1.421875 41.21875 -1.421875 
Q 24.65625 -1.421875 15.125 8.703125 
Q 5.609375 18.84375 5.609375 36.375 
Q 5.609375 53.953125 15.125 64.078125 
Q 24.65625 74.21875 41.21875 74.21875 
Q 47.75 74.21875 53.53125 72.484375 
Q 59.328125 70.75 64.40625 67.28125 
z
" id="DejaVuSans-43"/>
     </defs>
     <g transform="translate(209.56189 42.398437)scale(0.1 -0.1)">
      <use xlink:href="#DejaVuSans-43"/>
      <use x="69.824219" xlink:href="#DejaVuSans-4c"/>
     </g>
    </g>
    <g id="line2d_103">
     <path d="M 181.56189 53.576562 
L 201.56189 53.576562 
" style="fill:none;stroke:#1f77b4;stroke-linecap:square;stroke-width:1.5;"/>
    </g>
    <g id="line2d_104"/>
    <g id="text_18">
     <!-- average CL -->
     <defs>
      <path d="M 2.984375 54.6875 
L 12.5 54.6875 
L 29.59375 8.796875 
L 46.6875 54.6875 
L 56.203125 54.6875 
L 35.6875 0 
L 23.484375 0 
z
" id="DejaVuSans-76"/>
      <path d="M 45.40625 27.984375 
Q 45.40625 37.75 41.375 43.109375 
Q 37.359375 48.484375 30.078125 48.484375 
Q 22.859375 48.484375 18.828125 43.109375 
Q 14.796875 37.75 14.796875 27.984375 
Q 14.796875 18.265625 18.828125 12.890625 
Q 22.859375 7.515625 30.078125 7.515625 
Q 37.359375 7.515625 41.375 12.890625 
Q 45.40625 18.265625 45.40625 27.984375 
z
M 54.390625 6.78125 
Q 54.390625 -7.171875 48.1875 -13.984375 
Q 42 -20.796875 29.203125 -20.796875 
Q 24.46875 -20.796875 20.265625 -20.09375 
Q 16.0625 -19.390625 12.109375 -17.921875 
L 12.109375 -9.1875 
Q 16.0625 -11.328125 19.921875 -12.34375 
Q 23.78125 -13.375 27.78125 -13.375 
Q 36.625 -13.375 41.015625 -8.765625 
Q 45.40625 -4.15625 45.40625 5.171875 
L 45.40625 9.625 
Q 42.625 4.78125 38.28125 2.390625 
Q 33.9375 0 27.875 0 
Q 17.828125 0 11.671875 7.65625 
Q 5.515625 15.328125 5.515625 27.984375 
Q 5.515625 40.671875 11.671875 48.328125 
Q 17.828125 56 27.875 56 
Q 33.9375 56 38.28125 53.609375 
Q 42.625 51.21875 45.40625 46.390625 
L 45.40625 54.6875 
L 54.390625 54.6875 
z
" id="DejaVuSans-67"/>
      <path id="DejaVuSans-20"/>
     </defs>
     <g transform="translate(209.56189 57.076562)scale(0.1 -0.1)">
      <use xlink:href="#DejaVuSans-61"/>
      <use x="61.279297" xlink:href="#DejaVuSans-76"/>
      <use x="120.458984" xlink:href="#DejaVuSans-65"/>
      <use x="181.982422" xlink:href="#DejaVuSans-72"/>
      <use x="223.095703" xlink:href="#DejaVuSans-61"/>
      <use x="284.375" xlink:href="#DejaVuSans-67"/>
      <use x="347.851562" xlink:href="#DejaVuSans-65"/>
      <use x="409.375" xlink:href="#DejaVuSans-20"/>
      <use x="441.162109" xlink:href="#DejaVuSans-43"/>
      <use x="510.986328" xlink:href="#DejaVuSans-4c"/>
     </g>
    </g>
   </g>
  </g>
  <g id="axes_2">
   <g id="patch_8">
    <path d="M 323.430435 532.6 
L 558.665762 532.6 
L 558.665762 25.8 
L 323.430435 25.8 
z
" style="fill:#ffffff;"/>
   </g>
   <g id="matplotlib.axis_3">
    <g id="xtick_29">
     <g id="line2d_105">
      <path clip-path="url(#pba01fc4fc4)" d="M 334.122949 532.6 
L 334.122949 25.8 
" style="fill:none;stroke:#b0b0b0;stroke-linecap:square;stroke-width:0.8;"/>
     </g>
     <g id="line2d_106">
      <g>
       <use style="stroke:#000000;stroke-width:0.8;" x="334.122949" xlink:href="#mbec904e1b8" y="532.6"/>
      </g>
     </g>
     <g id="text_19">
      <!-- 0 -->
      <g transform="translate(330.941699 547.198437)scale(0.1 -0.1)">
       <use xlink:href="#DejaVuSans-30"/>
      </g>
     </g>
    </g>
    <g id="xtick_30">
     <g id="line2d_107">
      <path clip-path="url(#pba01fc4fc4)" d="M 376.89472 532.6 
L 376.89472 25.8 
" style="fill:none;stroke:#b0b0b0;stroke-linecap:square;stroke-width:0.8;"/>
     </g>
     <g id="line2d_108">
      <g>
       <use style="stroke:#000000;stroke-width:0.8;" x="376.89472" xlink:href="#mbec904e1b8" y="532.6"/>
      </g>
     </g>
     <g id="text_20">
      <!-- 10000 -->
      <g transform="translate(360.98847 547.198437)scale(0.1 -0.1)">
       <use xlink:href="#DejaVuSans-31"/>
       <use x="63.623047" xlink:href="#DejaVuSans-30"/>
       <use x="127.246094" xlink:href="#DejaVuSans-30"/>
       <use x="190.869141" xlink:href="#DejaVuSans-30"/>
       <use x="254.492188" xlink:href="#DejaVuSans-30"/>
      </g>
     </g>
    </g>
    <g id="xtick_31">
     <g id="line2d_109">
      <path clip-path="url(#pba01fc4fc4)" d="M 419.66649 532.6 
L 419.66649 25.8 
" style="fill:none;stroke:#b0b0b0;stroke-linecap:square;stroke-width:0.8;"/>
     </g>
     <g id="line2d_110">
      <g>
       <use style="stroke:#000000;stroke-width:0.8;" x="419.66649" xlink:href="#mbec904e1b8" y="532.6"/>
      </g>
     </g>
     <g id="text_21">
      <!-- 20000 -->
      <g transform="translate(403.76024 547.198437)scale(0.1 -0.1)">
       <use xlink:href="#DejaVuSans-32"/>
       <use x="63.623047" xlink:href="#DejaVuSans-30"/>
       <use x="127.246094" xlink:href="#DejaVuSans-30"/>
       <use x="190.869141" xlink:href="#DejaVuSans-30"/>
       <use x="254.492188" xlink:href="#DejaVuSans-30"/>
      </g>
     </g>
    </g>
    <g id="xtick_32">
     <g id="line2d_111">
      <path clip-path="url(#pba01fc4fc4)" d="M 462.43826 532.6 
L 462.43826 25.8 
" style="fill:none;stroke:#b0b0b0;stroke-linecap:square;stroke-width:0.8;"/>
     </g>
     <g id="line2d_112">
      <g>
       <use style="stroke:#000000;stroke-width:0.8;" x="462.43826" xlink:href="#mbec904e1b8" y="532.6"/>
      </g>
     </g>
     <g id="text_22">
      <!-- 30000 -->
      <g transform="translate(446.53201 547.198437)scale(0.1 -0.1)">
       <use xlink:href="#DejaVuSans-33"/>
       <use x="63.623047" xlink:href="#DejaVuSans-30"/>
       <use x="127.246094" xlink:href="#DejaVuSans-30"/>
       <use x="190.869141" xlink:href="#DejaVuSans-30"/>
       <use x="254.492188" xlink:href="#DejaVuSans-30"/>
      </g>
     </g>
    </g>
    <g id="xtick_33">
     <g id="line2d_113">
      <path clip-path="url(#pba01fc4fc4)" d="M 505.210031 532.6 
L 505.210031 25.8 
" style="fill:none;stroke:#b0b0b0;stroke-linecap:square;stroke-width:0.8;"/>
     </g>
     <g id="line2d_114">
      <g>
       <use style="stroke:#000000;stroke-width:0.8;" x="505.210031" xlink:href="#mbec904e1b8" y="532.6"/>
      </g>
     </g>
     <g id="text_23">
      <!-- 40000 -->
      <g transform="translate(489.303781 547.198437)scale(0.1 -0.1)">
       <use xlink:href="#DejaVuSans-34"/>
       <use x="63.623047" xlink:href="#DejaVuSans-30"/>
       <use x="127.246094" xlink:href="#DejaVuSans-30"/>
       <use x="190.869141" xlink:href="#DejaVuSans-30"/>
       <use x="254.492188" xlink:href="#DejaVuSans-30"/>
      </g>
     </g>
    </g>
    <g id="xtick_34">
     <g id="line2d_115">
      <path clip-path="url(#pba01fc4fc4)" d="M 547.981801 532.6 
L 547.981801 25.8 
" style="fill:none;stroke:#b0b0b0;stroke-linecap:square;stroke-width:0.8;"/>
     </g>
     <g id="line2d_116">
      <g>
       <use style="stroke:#000000;stroke-width:0.8;" x="547.981801" xlink:href="#mbec904e1b8" y="532.6"/>
      </g>
     </g>
     <g id="text_24">
      <!-- 50000 -->
      <g transform="translate(532.075551 547.198437)scale(0.1 -0.1)">
       <use xlink:href="#DejaVuSans-35"/>
       <use x="63.623047" xlink:href="#DejaVuSans-30"/>
       <use x="127.246094" xlink:href="#DejaVuSans-30"/>
       <use x="190.869141" xlink:href="#DejaVuSans-30"/>
       <use x="254.492188" xlink:href="#DejaVuSans-30"/>
      </g>
     </g>
    </g>
    <g id="xtick_35">
     <g id="line2d_117">
      <path clip-path="url(#pba01fc4fc4)" d="M 325.568595 532.6 
L 325.568595 25.8 
" style="fill:none;stroke:#b0b0b0;stroke-dasharray:0.8,1.32;stroke-dashoffset:0;stroke-width:0.8;"/>
     </g>
     <g id="line2d_118">
      <g>
       <use style="stroke:#000000;stroke-width:0.6;" x="325.568595" xlink:href="#m22ddb1a112" y="532.6"/>
      </g>
     </g>
    </g>
    <g id="xtick_36">
     <g id="line2d_119">
      <path clip-path="url(#pba01fc4fc4)" d="M 342.677304 532.6 
L 342.677304 25.8 
" style="fill:none;stroke:#b0b0b0;stroke-dasharray:0.8,1.32;stroke-dashoffset:0;stroke-width:0.8;"/>
     </g>
     <g id="line2d_120">
      <g>
       <use style="stroke:#000000;stroke-width:0.6;" x="342.677304" xlink:href="#m22ddb1a112" y="532.6"/>
      </g>
     </g>
    </g>
    <g id="xtick_37">
     <g id="line2d_121">
      <path clip-path="url(#pba01fc4fc4)" d="M 351.231658 532.6 
L 351.231658 25.8 
" style="fill:none;stroke:#b0b0b0;stroke-dasharray:0.8,1.32;stroke-dashoffset:0;stroke-width:0.8;"/>
     </g>
     <g id="line2d_122">
      <g>
       <use style="stroke:#000000;stroke-width:0.6;" x="351.231658" xlink:href="#m22ddb1a112" y="532.6"/>
      </g>
     </g>
    </g>
    <g id="xtick_38">
     <g id="line2d_123">
      <path clip-path="url(#pba01fc4fc4)" d="M 359.786012 532.6 
L 359.786012 25.8 
" style="fill:none;stroke:#b0b0b0;stroke-dasharray:0.8,1.32;stroke-dashoffset:0;stroke-width:0.8;"/>
     </g>
     <g id="line2d_124">
      <g>
       <use style="stroke:#000000;stroke-width:0.6;" x="359.786012" xlink:href="#m22ddb1a112" y="532.6"/>
      </g>
     </g>
    </g>
    <g id="xtick_39">
     <g id="line2d_125">
      <path clip-path="url(#pba01fc4fc4)" d="M 368.340366 532.6 
L 368.340366 25.8 
" style="fill:none;stroke:#b0b0b0;stroke-dasharray:0.8,1.32;stroke-dashoffset:0;stroke-width:0.8;"/>
     </g>
     <g id="line2d_126">
      <g>
       <use style="stroke:#000000;stroke-width:0.6;" x="368.340366" xlink:href="#m22ddb1a112" y="532.6"/>
      </g>
     </g>
    </g>
    <g id="xtick_40">
     <g id="line2d_127">
      <path clip-path="url(#pba01fc4fc4)" d="M 385.449074 532.6 
L 385.449074 25.8 
" style="fill:none;stroke:#b0b0b0;stroke-dasharray:0.8,1.32;stroke-dashoffset:0;stroke-width:0.8;"/>
     </g>
     <g id="line2d_128">
      <g>
       <use style="stroke:#000000;stroke-width:0.6;" x="385.449074" xlink:href="#m22ddb1a112" y="532.6"/>
      </g>
     </g>
    </g>
    <g id="xtick_41">
     <g id="line2d_129">
      <path clip-path="url(#pba01fc4fc4)" d="M 394.003428 532.6 
L 394.003428 25.8 
" style="fill:none;stroke:#b0b0b0;stroke-dasharray:0.8,1.32;stroke-dashoffset:0;stroke-width:0.8;"/>
     </g>
     <g id="line2d_130">
      <g>
       <use style="stroke:#000000;stroke-width:0.6;" x="394.003428" xlink:href="#m22ddb1a112" y="532.6"/>
      </g>
     </g>
    </g>
    <g id="xtick_42">
     <g id="line2d_131">
      <path clip-path="url(#pba01fc4fc4)" d="M 402.557782 532.6 
L 402.557782 25.8 
" style="fill:none;stroke:#b0b0b0;stroke-dasharray:0.8,1.32;stroke-dashoffset:0;stroke-width:0.8;"/>
     </g>
     <g id="line2d_132">
      <g>
       <use style="stroke:#000000;stroke-width:0.6;" x="402.557782" xlink:href="#m22ddb1a112" y="532.6"/>
      </g>
     </g>
    </g>
    <g id="xtick_43">
     <g id="line2d_133">
      <path clip-path="url(#pba01fc4fc4)" d="M 411.112136 532.6 
L 411.112136 25.8 
" style="fill:none;stroke:#b0b0b0;stroke-dasharray:0.8,1.32;stroke-dashoffset:0;stroke-width:0.8;"/>
     </g>
     <g id="line2d_134">
      <g>
       <use style="stroke:#000000;stroke-width:0.6;" x="411.112136" xlink:href="#m22ddb1a112" y="532.6"/>
      </g>
     </g>
    </g>
    <g id="xtick_44">
     <g id="line2d_135">
      <path clip-path="url(#pba01fc4fc4)" d="M 428.220844 532.6 
L 428.220844 25.8 
" style="fill:none;stroke:#b0b0b0;stroke-dasharray:0.8,1.32;stroke-dashoffset:0;stroke-width:0.8;"/>
     </g>
     <g id="line2d_136">
      <g>
       <use style="stroke:#000000;stroke-width:0.6;" x="428.220844" xlink:href="#m22ddb1a112" y="532.6"/>
      </g>
     </g>
    </g>
    <g id="xtick_45">
     <g id="line2d_137">
      <path clip-path="url(#pba01fc4fc4)" d="M 436.775198 532.6 
L 436.775198 25.8 
" style="fill:none;stroke:#b0b0b0;stroke-dasharray:0.8,1.32;stroke-dashoffset:0;stroke-width:0.8;"/>
     </g>
     <g id="line2d_138">
      <g>
       <use style="stroke:#000000;stroke-width:0.6;" x="436.775198" xlink:href="#m22ddb1a112" y="532.6"/>
      </g>
     </g>
    </g>
    <g id="xtick_46">
     <g id="line2d_139">
      <path clip-path="url(#pba01fc4fc4)" d="M 445.329552 532.6 
L 445.329552 25.8 
" style="fill:none;stroke:#b0b0b0;stroke-dasharray:0.8,1.32;stroke-dashoffset:0;stroke-width:0.8;"/>
     </g>
     <g id="line2d_140">
      <g>
       <use style="stroke:#000000;stroke-width:0.6;" x="445.329552" xlink:href="#m22ddb1a112" y="532.6"/>
      </g>
     </g>
    </g>
    <g id="xtick_47">
     <g id="line2d_141">
      <path clip-path="url(#pba01fc4fc4)" d="M 453.883906 532.6 
L 453.883906 25.8 
" style="fill:none;stroke:#b0b0b0;stroke-dasharray:0.8,1.32;stroke-dashoffset:0;stroke-width:0.8;"/>
     </g>
     <g id="line2d_142">
      <g>
       <use style="stroke:#000000;stroke-width:0.6;" x="453.883906" xlink:href="#m22ddb1a112" y="532.6"/>
      </g>
     </g>
    </g>
    <g id="xtick_48">
     <g id="line2d_143">
      <path clip-path="url(#pba01fc4fc4)" d="M 470.992615 532.6 
L 470.992615 25.8 
" style="fill:none;stroke:#b0b0b0;stroke-dasharray:0.8,1.32;stroke-dashoffset:0;stroke-width:0.8;"/>
     </g>
     <g id="line2d_144">
      <g>
       <use style="stroke:#000000;stroke-width:0.6;" x="470.992615" xlink:href="#m22ddb1a112" y="532.6"/>
      </g>
     </g>
    </g>
    <g id="xtick_49">
     <g id="line2d_145">
      <path clip-path="url(#pba01fc4fc4)" d="M 479.546969 532.6 
L 479.546969 25.8 
" style="fill:none;stroke:#b0b0b0;stroke-dasharray:0.8,1.32;stroke-dashoffset:0;stroke-width:0.8;"/>
     </g>
     <g id="line2d_146">
      <g>
       <use style="stroke:#000000;stroke-width:0.6;" x="479.546969" xlink:href="#m22ddb1a112" y="532.6"/>
      </g>
     </g>
    </g>
    <g id="xtick_50">
     <g id="line2d_147">
      <path clip-path="url(#pba01fc4fc4)" d="M 488.101323 532.6 
L 488.101323 25.8 
" style="fill:none;stroke:#b0b0b0;stroke-dasharray:0.8,1.32;stroke-dashoffset:0;stroke-width:0.8;"/>
     </g>
     <g id="line2d_148">
      <g>
       <use style="stroke:#000000;stroke-width:0.6;" x="488.101323" xlink:href="#m22ddb1a112" y="532.6"/>
      </g>
     </g>
    </g>
    <g id="xtick_51">
     <g id="line2d_149">
      <path clip-path="url(#pba01fc4fc4)" d="M 496.655677 532.6 
L 496.655677 25.8 
" style="fill:none;stroke:#b0b0b0;stroke-dasharray:0.8,1.32;stroke-dashoffset:0;stroke-width:0.8;"/>
     </g>
     <g id="line2d_150">
      <g>
       <use style="stroke:#000000;stroke-width:0.6;" x="496.655677" xlink:href="#m22ddb1a112" y="532.6"/>
      </g>
     </g>
    </g>
    <g id="xtick_52">
     <g id="line2d_151">
      <path clip-path="url(#pba01fc4fc4)" d="M 513.764385 532.6 
L 513.764385 25.8 
" style="fill:none;stroke:#b0b0b0;stroke-dasharray:0.8,1.32;stroke-dashoffset:0;stroke-width:0.8;"/>
     </g>
     <g id="line2d_152">
      <g>
       <use style="stroke:#000000;stroke-width:0.6;" x="513.764385" xlink:href="#m22ddb1a112" y="532.6"/>
      </g>
     </g>
    </g>
    <g id="xtick_53">
     <g id="line2d_153">
      <path clip-path="url(#pba01fc4fc4)" d="M 522.318739 532.6 
L 522.318739 25.8 
" style="fill:none;stroke:#b0b0b0;stroke-dasharray:0.8,1.32;stroke-dashoffset:0;stroke-width:0.8;"/>
     </g>
     <g id="line2d_154">
      <g>
       <use style="stroke:#000000;stroke-width:0.6;" x="522.318739" xlink:href="#m22ddb1a112" y="532.6"/>
      </g>
     </g>
    </g>
    <g id="xtick_54">
     <g id="line2d_155">
      <path clip-path="url(#pba01fc4fc4)" d="M 530.873093 532.6 
L 530.873093 25.8 
" style="fill:none;stroke:#b0b0b0;stroke-dasharray:0.8,1.32;stroke-dashoffset:0;stroke-width:0.8;"/>
     </g>
     <g id="line2d_156">
      <g>
       <use style="stroke:#000000;stroke-width:0.6;" x="530.873093" xlink:href="#m22ddb1a112" y="532.6"/>
      </g>
     </g>
    </g>
    <g id="xtick_55">
     <g id="line2d_157">
      <path clip-path="url(#pba01fc4fc4)" d="M 539.427447 532.6 
L 539.427447 25.8 
" style="fill:none;stroke:#b0b0b0;stroke-dasharray:0.8,1.32;stroke-dashoffset:0;stroke-width:0.8;"/>
     </g>
     <g id="line2d_158">
      <g>
       <use style="stroke:#000000;stroke-width:0.6;" x="539.427447" xlink:href="#m22ddb1a112" y="532.6"/>
      </g>
     </g>
    </g>
    <g id="xtick_56">
     <g id="line2d_159">
      <path clip-path="url(#pba01fc4fc4)" d="M 556.536155 532.6 
L 556.536155 25.8 
" style="fill:none;stroke:#b0b0b0;stroke-dasharray:0.8,1.32;stroke-dashoffset:0;stroke-width:0.8;"/>
     </g>
     <g id="line2d_160">
      <g>
       <use style="stroke:#000000;stroke-width:0.6;" x="556.536155" xlink:href="#m22ddb1a112" y="532.6"/>
      </g>
     </g>
    </g>
    <g id="text_25">
     <!-- iteration -->
     <g transform="translate(419.925442 560.876562)scale(0.1 -0.1)">
      <use xlink:href="#DejaVuSans-69"/>
      <use x="27.783203" xlink:href="#DejaVuSans-74"/>
      <use x="66.992188" xlink:href="#DejaVuSans-65"/>
      <use x="128.515625" xlink:href="#DejaVuSans-72"/>
      <use x="169.628906" xlink:href="#DejaVuSans-61"/>
      <use x="230.908203" xlink:href="#DejaVuSans-74"/>
      <use x="270.117188" xlink:href="#DejaVuSans-69"/>
      <use x="297.900391" xlink:href="#DejaVuSans-6f"/>
      <use x="359.082031" xlink:href="#DejaVuSans-6e"/>
     </g>
    </g>
   </g>
   <g id="matplotlib.axis_4">
    <g id="ytick_43">
     <g id="line2d_161">
      <g>
       <use style="stroke:#000000;stroke-width:0.8;" x="323.430435" xlink:href="#m8ac65f6f30" y="523.446452"/>
      </g>
     </g>
     <g id="text_26">
      <!-- $\mathdefault{10^{-6}}$ -->
      <defs>
       <path d="M 10.59375 35.5 
L 73.1875 35.5 
L 73.1875 27.203125 
L 10.59375 27.203125 
z
" id="DejaVuSans-2212"/>
       <path d="M 33.015625 40.375 
Q 26.375 40.375 22.484375 35.828125 
Q 18.609375 31.296875 18.609375 23.390625 
Q 18.609375 15.53125 22.484375 10.953125 
Q 26.375 6.390625 33.015625 6.390625 
Q 39.65625 6.390625 43.53125 10.953125 
Q 47.40625 15.53125 47.40625 23.390625 
Q 47.40625 31.296875 43.53125 35.828125 
Q 39.65625 40.375 33.015625 40.375 
z
M 52.59375 71.296875 
L 52.59375 62.3125 
Q 48.875 64.0625 45.09375 64.984375 
Q 41.3125 65.921875 37.59375 65.921875 
Q 27.828125 65.921875 22.671875 59.328125 
Q 17.53125 52.734375 16.796875 39.40625 
Q 19.671875 43.65625 24.015625 45.921875 
Q 28.375 48.1875 33.59375 48.1875 
Q 44.578125 48.1875 50.953125 41.515625 
Q 57.328125 34.859375 57.328125 23.390625 
Q 57.328125 12.15625 50.6875 5.359375 
Q 44.046875 -1.421875 33.015625 -1.421875 
Q 20.359375 -1.421875 13.671875 8.265625 
Q 6.984375 17.96875 6.984375 36.375 
Q 6.984375 53.65625 15.1875 63.9375 
Q 23.390625 74.21875 37.203125 74.21875 
Q 40.921875 74.21875 44.703125 73.484375 
Q 48.484375 72.75 52.59375 71.296875 
z
" id="DejaVuSans-36"/>
      </defs>
      <g transform="translate(292.930435 527.245671)scale(0.1 -0.1)">
       <use transform="translate(0 0.765625)" xlink:href="#DejaVuSans-31"/>
       <use transform="translate(63.623047 0.765625)" xlink:href="#DejaVuSans-30"/>
       <use transform="translate(128.203125 39.046875)scale(0.7)" xlink:href="#DejaVuSans-2212"/>
       <use transform="translate(186.855469 39.046875)scale(0.7)" xlink:href="#DejaVuSans-36"/>
      </g>
     </g>
    </g>
    <g id="ytick_44">
     <g id="line2d_162">
      <g>
       <use style="stroke:#000000;stroke-width:0.8;" x="323.430435" xlink:href="#m8ac65f6f30" y="422.514314"/>
      </g>
     </g>
     <g id="text_27">
      <!-- $\mathdefault{10^{-5}}$ -->
      <g transform="translate(292.930435 426.313533)scale(0.1 -0.1)">
       <use transform="translate(0 0.684375)" xlink:href="#DejaVuSans-31"/>
       <use transform="translate(63.623047 0.684375)" xlink:href="#DejaVuSans-30"/>
       <use transform="translate(128.203125 38.965625)scale(0.7)" xlink:href="#DejaVuSans-2212"/>
       <use transform="translate(186.855469 38.965625)scale(0.7)" xlink:href="#DejaVuSans-35"/>
      </g>
     </g>
    </g>
    <g id="ytick_45">
     <g id="line2d_163">
      <g>
       <use style="stroke:#000000;stroke-width:0.8;" x="323.430435" xlink:href="#m8ac65f6f30" y="321.582177"/>
      </g>
     </g>
     <g id="text_28">
      <!-- $\mathdefault{10^{-4}}$ -->
      <g transform="translate(292.930435 325.381395)scale(0.1 -0.1)">
       <use transform="translate(0 0.684375)" xlink:href="#DejaVuSans-31"/>
       <use transform="translate(63.623047 0.684375)" xlink:href="#DejaVuSans-30"/>
       <use transform="translate(128.203125 38.965625)scale(0.7)" xlink:href="#DejaVuSans-2212"/>
       <use transform="translate(186.855469 38.965625)scale(0.7)" xlink:href="#DejaVuSans-34"/>
      </g>
     </g>
    </g>
    <g id="ytick_46">
     <g id="line2d_164">
      <g>
       <use style="stroke:#000000;stroke-width:0.8;" x="323.430435" xlink:href="#m8ac65f6f30" y="220.650039"/>
      </g>
     </g>
     <g id="text_29">
      <!-- $\mathdefault{10^{-3}}$ -->
      <g transform="translate(292.930435 224.449258)scale(0.1 -0.1)">
       <use transform="translate(0 0.765625)" xlink:href="#DejaVuSans-31"/>
       <use transform="translate(63.623047 0.765625)" xlink:href="#DejaVuSans-30"/>
       <use transform="translate(128.203125 39.046875)scale(0.7)" xlink:href="#DejaVuSans-2212"/>
       <use transform="translate(186.855469 39.046875)scale(0.7)" xlink:href="#DejaVuSans-33"/>
      </g>
     </g>
    </g>
    <g id="ytick_47">
     <g id="line2d_165">
      <g>
       <use style="stroke:#000000;stroke-width:0.8;" x="323.430435" xlink:href="#m8ac65f6f30" y="119.717901"/>
      </g>
     </g>
     <g id="text_30">
      <!-- $\mathdefault{10^{-2}}$ -->
      <g transform="translate(292.930435 123.51712)scale(0.1 -0.1)">
       <use transform="translate(0 0.765625)" xlink:href="#DejaVuSans-31"/>
       <use transform="translate(63.623047 0.765625)" xlink:href="#DejaVuSans-30"/>
       <use transform="translate(128.203125 39.046875)scale(0.7)" xlink:href="#DejaVuSans-2212"/>
       <use transform="translate(186.855469 39.046875)scale(0.7)" xlink:href="#DejaVuSans-32"/>
      </g>
     </g>
    </g>
    <g id="ytick_48">
     <g id="line2d_166">
      <g>
       <use style="stroke:#000000;stroke-width:0.6;" x="323.430435" xlink:href="#m44d266f1bc" y="528.064853"/>
      </g>
     </g>
    </g>
    <g id="ytick_49">
     <g id="line2d_167">
      <g>
       <use style="stroke:#000000;stroke-width:0.6;" x="323.430435" xlink:href="#m44d266f1bc" y="493.062851"/>
      </g>
     </g>
    </g>
    <g id="ytick_50">
     <g id="line2d_168">
      <g>
       <use style="stroke:#000000;stroke-width:0.6;" x="323.430435" xlink:href="#m44d266f1bc" y="475.289584"/>
      </g>
     </g>
    </g>
    <g id="ytick_51">
     <g id="line2d_169">
      <g>
       <use style="stroke:#000000;stroke-width:0.6;" x="323.430435" xlink:href="#m44d266f1bc" y="462.67925"/>
      </g>
     </g>
    </g>
    <g id="ytick_52">
     <g id="line2d_170">
      <g>
       <use style="stroke:#000000;stroke-width:0.6;" x="323.430435" xlink:href="#m44d266f1bc" y="452.897915"/>
      </g>
     </g>
    </g>
    <g id="ytick_53">
     <g id="line2d_171">
      <g>
       <use style="stroke:#000000;stroke-width:0.6;" x="323.430435" xlink:href="#m44d266f1bc" y="444.905983"/>
      </g>
     </g>
    </g>
    <g id="ytick_54">
     <g id="line2d_172">
      <g>
       <use style="stroke:#000000;stroke-width:0.6;" x="323.430435" xlink:href="#m44d266f1bc" y="438.1489"/>
      </g>
     </g>
    </g>
    <g id="ytick_55">
     <g id="line2d_173">
      <g>
       <use style="stroke:#000000;stroke-width:0.6;" x="323.430435" xlink:href="#m44d266f1bc" y="432.295649"/>
      </g>
     </g>
    </g>
    <g id="ytick_56">
     <g id="line2d_174">
      <g>
       <use style="stroke:#000000;stroke-width:0.6;" x="323.430435" xlink:href="#m44d266f1bc" y="427.132716"/>
      </g>
     </g>
    </g>
    <g id="ytick_57">
     <g id="line2d_175">
      <g>
       <use style="stroke:#000000;stroke-width:0.6;" x="323.430435" xlink:href="#m44d266f1bc" y="392.130713"/>
      </g>
     </g>
    </g>
    <g id="ytick_58">
     <g id="line2d_176">
      <g>
       <use style="stroke:#000000;stroke-width:0.6;" x="323.430435" xlink:href="#m44d266f1bc" y="374.357446"/>
      </g>
     </g>
    </g>
    <g id="ytick_59">
     <g id="line2d_177">
      <g>
       <use style="stroke:#000000;stroke-width:0.6;" x="323.430435" xlink:href="#m44d266f1bc" y="361.747112"/>
      </g>
     </g>
    </g>
    <g id="ytick_60">
     <g id="line2d_178">
      <g>
       <use style="stroke:#000000;stroke-width:0.6;" x="323.430435" xlink:href="#m44d266f1bc" y="351.965778"/>
      </g>
     </g>
    </g>
    <g id="ytick_61">
     <g id="line2d_179">
      <g>
       <use style="stroke:#000000;stroke-width:0.6;" x="323.430435" xlink:href="#m44d266f1bc" y="343.973845"/>
      </g>
     </g>
    </g>
    <g id="ytick_62">
     <g id="line2d_180">
      <g>
       <use style="stroke:#000000;stroke-width:0.6;" x="323.430435" xlink:href="#m44d266f1bc" y="337.216763"/>
      </g>
     </g>
    </g>
    <g id="ytick_63">
     <g id="line2d_181">
      <g>
       <use style="stroke:#000000;stroke-width:0.6;" x="323.430435" xlink:href="#m44d266f1bc" y="331.363511"/>
      </g>
     </g>
    </g>
    <g id="ytick_64">
     <g id="line2d_182">
      <g>
       <use style="stroke:#000000;stroke-width:0.6;" x="323.430435" xlink:href="#m44d266f1bc" y="326.200578"/>
      </g>
     </g>
    </g>
    <g id="ytick_65">
     <g id="line2d_183">
      <g>
       <use style="stroke:#000000;stroke-width:0.6;" x="323.430435" xlink:href="#m44d266f1bc" y="291.198576"/>
      </g>
     </g>
    </g>
    <g id="ytick_66">
     <g id="line2d_184">
      <g>
       <use style="stroke:#000000;stroke-width:0.6;" x="323.430435" xlink:href="#m44d266f1bc" y="273.425309"/>
      </g>
     </g>
    </g>
    <g id="ytick_67">
     <g id="line2d_185">
      <g>
       <use style="stroke:#000000;stroke-width:0.6;" x="323.430435" xlink:href="#m44d266f1bc" y="260.814975"/>
      </g>
     </g>
    </g>
    <g id="ytick_68">
     <g id="line2d_186">
      <g>
       <use style="stroke:#000000;stroke-width:0.6;" x="323.430435" xlink:href="#m44d266f1bc" y="251.03364"/>
      </g>
     </g>
    </g>
    <g id="ytick_69">
     <g id="line2d_187">
      <g>
       <use style="stroke:#000000;stroke-width:0.6;" x="323.430435" xlink:href="#m44d266f1bc" y="243.041708"/>
      </g>
     </g>
    </g>
    <g id="ytick_70">
     <g id="line2d_188">
      <g>
       <use style="stroke:#000000;stroke-width:0.6;" x="323.430435" xlink:href="#m44d266f1bc" y="236.284625"/>
      </g>
     </g>
    </g>
    <g id="ytick_71">
     <g id="line2d_189">
      <g>
       <use style="stroke:#000000;stroke-width:0.6;" x="323.430435" xlink:href="#m44d266f1bc" y="230.431374"/>
      </g>
     </g>
    </g>
    <g id="ytick_72">
     <g id="line2d_190">
      <g>
       <use style="stroke:#000000;stroke-width:0.6;" x="323.430435" xlink:href="#m44d266f1bc" y="225.26844"/>
      </g>
     </g>
    </g>
    <g id="ytick_73">
     <g id="line2d_191">
      <g>
       <use style="stroke:#000000;stroke-width:0.6;" x="323.430435" xlink:href="#m44d266f1bc" y="190.266438"/>
      </g>
     </g>
    </g>
    <g id="ytick_74">
     <g id="line2d_192">
      <g>
       <use style="stroke:#000000;stroke-width:0.6;" x="323.430435" xlink:href="#m44d266f1bc" y="172.493171"/>
      </g>
     </g>
    </g>
    <g id="ytick_75">
     <g id="line2d_193">
      <g>
       <use style="stroke:#000000;stroke-width:0.6;" x="323.430435" xlink:href="#m44d266f1bc" y="159.882837"/>
      </g>
     </g>
    </g>
    <g id="ytick_76">
     <g id="line2d_194">
      <g>
       <use style="stroke:#000000;stroke-width:0.6;" x="323.430435" xlink:href="#m44d266f1bc" y="150.101502"/>
      </g>
     </g>
    </g>
    <g id="ytick_77">
     <g id="line2d_195">
      <g>
       <use style="stroke:#000000;stroke-width:0.6;" x="323.430435" xlink:href="#m44d266f1bc" y="142.10957"/>
      </g>
     </g>
    </g>
    <g id="ytick_78">
     <g id="line2d_196">
      <g>
       <use style="stroke:#000000;stroke-width:0.6;" x="323.430435" xlink:href="#m44d266f1bc" y="135.352487"/>
      </g>
     </g>
    </g>
    <g id="ytick_79">
     <g id="line2d_197">
      <g>
       <use style="stroke:#000000;stroke-width:0.6;" x="323.430435" xlink:href="#m44d266f1bc" y="129.499236"/>
      </g>
     </g>
    </g>
    <g id="ytick_80">
     <g id="line2d_198">
      <g>
       <use style="stroke:#000000;stroke-width:0.6;" x="323.430435" xlink:href="#m44d266f1bc" y="124.336303"/>
      </g>
     </g>
    </g>
    <g id="ytick_81">
     <g id="line2d_199">
      <g>
       <use style="stroke:#000000;stroke-width:0.6;" x="323.430435" xlink:href="#m44d266f1bc" y="89.334301"/>
      </g>
     </g>
    </g>
    <g id="ytick_82">
     <g id="line2d_200">
      <g>
       <use style="stroke:#000000;stroke-width:0.6;" x="323.430435" xlink:href="#m44d266f1bc" y="71.561033"/>
      </g>
     </g>
    </g>
    <g id="ytick_83">
     <g id="line2d_201">
      <g>
       <use style="stroke:#000000;stroke-width:0.6;" x="323.430435" xlink:href="#m44d266f1bc" y="58.9507"/>
      </g>
     </g>
    </g>
    <g id="ytick_84">
     <g id="line2d_202">
      <g>
       <use style="stroke:#000000;stroke-width:0.6;" x="323.430435" xlink:href="#m44d266f1bc" y="49.169365"/>
      </g>
     </g>
    </g>
    <g id="ytick_85">
     <g id="line2d_203">
      <g>
       <use style="stroke:#000000;stroke-width:0.6;" x="323.430435" xlink:href="#m44d266f1bc" y="41.177432"/>
      </g>
     </g>
    </g>
    <g id="ytick_86">
     <g id="line2d_204">
      <g>
       <use style="stroke:#000000;stroke-width:0.6;" x="323.430435" xlink:href="#m44d266f1bc" y="34.42035"/>
      </g>
     </g>
    </g>
    <g id="ytick_87">
     <g id="line2d_205">
      <g>
       <use style="stroke:#000000;stroke-width:0.6;" x="323.430435" xlink:href="#m44d266f1bc" y="28.567099"/>
      </g>
     </g>
    </g>
   </g>
   <g id="line2d_206">
    <path clip-path="url(#pba01fc4fc4)" d="M 334.122949 48.957298 
L 344.499381 48.846045 
L 347.916845 48.908625 
L 350.889483 49.125412 
L 351.291538 49.350606 
L 351.488288 49.417449 
L 351.762028 49.553615 
L 351.890343 50.281262 
L 352.09137 50.920287 
L 352.309506 51.017418 
L 352.390773 51.64885 
L 352.72867 54.638205 
L 352.9853 54.74869 
L 353.066567 55.466784 
L 353.413018 59.153997 
L 353.502839 59.408515 
L 353.716697 59.790575 
L 354.315502 60.109277 
L 354.833041 61.464878 
L 355.872395 65.179318 
L 356.937412 68.975266 
L 357.442119 69.285926 
L 357.784293 71.171002 
L 357.912608 75.885464 
L 358.105081 79.864697 
L 358.254782 79.970653 
L 358.370266 80.132082 
L 358.447255 81.506728 
L 358.575571 88.801435 
L 358.802261 98.800115 
L 358.883527 98.92669 
L 358.999011 99.264935 
L 359.076 101.906252 
L 359.516549 121.928438 
L 359.683359 122.735673 
L 360.226561 132.930455 
L 360.324936 133.05076 
L 360.525963 134.092727 
L 360.851029 138.87581 
L 361.218866 139.713045 
L 361.342904 140.913569 
L 361.509714 141.614544 
L 362.655997 143.793789 
L 363.083715 146.149683 
L 363.220585 147.371435 
L 363.562759 150.426568 
L 363.759509 152.082128 
L 364.679102 161.552111 
L 366.00075 171.580296 
L 366.201777 173.023406 
L 366.505457 174.798744 
L 366.69793 175.687761 
L 367.065767 177.570426 
L 367.292457 178.336946 
L 367.630354 179.414848 
L 367.886985 180.097784 
L 369.662013 186.226041 
L 370.624378 191.292009 
L 371.244569 195.791408 
L 372.839956 208.817832 
L 373.246288 210.086073 
L 373.716777 210.920392 
L 374.332691 212.104691 
L 374.760408 213.609536 
L 375.230898 216.360816 
L 375.910969 222.104561 
L 376.792068 229.155026 
L 377.279666 231.426645 
L 377.703106 232.457398 
L 378.096607 232.881535 
L 378.502938 232.995195 
L 379.011922 232.870325 
L 379.734765 232.413012 
L 380.585924 231.601557 
L 381.454191 230.443338 
L 383.314763 227.855586 
L 384.704845 226.484076 
L 385.812634 225.640924 
L 386.59108 225.319721 
L 387.459347 225.217079 
L 389.289979 225.283172 
L 390.218126 225.518659 
L 391.189045 226.013931 
L 393.028232 227.260787 
L 394.384097 228.409384 
L 395.92388 230.045752 
L 397.891382 232.44616 
L 400.222443 235.701516 
L 402.510733 239.287136 
L 405.414936 244.155403 
L 410.740022 253.723473 
L 417.215668 265.920021 
L 427.459507 285.221583 
L 434.36287 297.664956 
L 445.864199 317.831662 
L 476.193662 370.582875 
L 529.748195 463.83476 
L 531.416295 467.329462 
L 534.713998 475.145358 
L 538.251223 485.01753 
L 544.572891 504.588923 
L 545.595136 506.981309 
L 546.63449 508.700057 
L 547.365888 509.379722 
L 547.708062 509.537821 
L 547.973247 509.555889 
L 547.973247 509.555889 
" style="fill:none;stroke:#ff7f0e;stroke-linecap:square;stroke-width:1.5;"/>
   </g>
   <g id="patch_9">
    <path d="M 323.430435 532.6 
L 323.430435 25.8 
" style="fill:none;stroke:#000000;stroke-linecap:square;stroke-linejoin:miter;stroke-width:0.8;"/>
   </g>
   <g id="patch_10">
    <path d="M 558.665762 532.6 
L 558.665762 25.8 
" style="fill:none;stroke:#000000;stroke-linecap:square;stroke-linejoin:miter;stroke-width:0.8;"/>
   </g>
   <g id="patch_11">
    <path d="M 323.430435 532.6 
L 558.665762 532.6 
" style="fill:none;stroke:#000000;stroke-linecap:square;stroke-linejoin:miter;stroke-width:0.8;"/>
   </g>
   <g id="patch_12">
    <path d="M 323.430435 25.8 
L 558.665762 25.8 
" style="fill:none;stroke:#000000;stroke-linecap:square;stroke-linejoin:miter;stroke-width:0.8;"/>
   </g>
   <g id="legend_2">
    <g id="patch_13">
     <path d="M 483.829824 48.478125 
L 551.665762 48.478125 
Q 553.665762 48.478125 553.665762 46.478125 
L 553.665762 32.8 
Q 553.665762 30.8 551.665762 30.8 
L 483.829824 30.8 
Q 481.829824 30.8 481.829824 32.8 
L 481.829824 46.478125 
Q 481.829824 48.478125 483.829824 48.478125 
z
" style="fill:#ffffff;opacity:0.8;stroke:#cccccc;stroke-linejoin:miter;"/>
    </g>
    <g id="line2d_207">
     <path d="M 485.829824 38.898438 
L 505.829824 38.898438 
" style="fill:none;stroke:#ff7f0e;stroke-linecap:square;stroke-width:1.5;"/>
    </g>
    <g id="line2d_208"/>
    <g id="text_31">
     <!-- std(CL) -->
     <defs>
      <path d="M 44.28125 53.078125 
L 44.28125 44.578125 
Q 40.484375 46.53125 36.375 47.5 
Q 32.28125 48.484375 27.875 48.484375 
Q 21.1875 48.484375 17.84375 46.4375 
Q 14.5 44.390625 14.5 40.28125 
Q 14.5 37.15625 16.890625 35.375 
Q 19.28125 33.59375 26.515625 31.984375 
L 29.59375 31.296875 
Q 39.15625 29.25 43.1875 25.515625 
Q 47.21875 21.78125 47.21875 15.09375 
Q 47.21875 7.46875 41.1875 3.015625 
Q 35.15625 -1.421875 24.609375 -1.421875 
Q 20.21875 -1.421875 15.453125 -0.5625 
Q 10.6875 0.296875 5.421875 2 
L 5.421875 11.28125 
Q 10.40625 8.6875 15.234375 7.390625 
Q 20.0625 6.109375 24.8125 6.109375 
Q 31.15625 6.109375 34.5625 8.28125 
Q 37.984375 10.453125 37.984375 14.40625 
Q 37.984375 18.0625 35.515625 20.015625 
Q 33.0625 21.96875 24.703125 23.78125 
L 21.578125 24.515625 
Q 13.234375 26.265625 9.515625 29.90625 
Q 5.8125 33.546875 5.8125 39.890625 
Q 5.8125 47.609375 11.28125 51.796875 
Q 16.75 56 26.8125 56 
Q 31.78125 56 36.171875 55.265625 
Q 40.578125 54.546875 44.28125 53.078125 
z
" id="DejaVuSans-73"/>
      <path d="M 45.40625 46.390625 
L 45.40625 75.984375 
L 54.390625 75.984375 
L 54.390625 0 
L 45.40625 0 
L 45.40625 8.203125 
Q 42.578125 3.328125 38.25 0.953125 
Q 33.9375 -1.421875 27.875 -1.421875 
Q 17.96875 -1.421875 11.734375 6.484375 
Q 5.515625 14.40625 5.515625 27.296875 
Q 5.515625 40.1875 11.734375 48.09375 
Q 17.96875 56 27.875 56 
Q 33.9375 56 38.25 53.625 
Q 42.578125 51.265625 45.40625 46.390625 
z
M 14.796875 27.296875 
Q 14.796875 17.390625 18.875 11.75 
Q 22.953125 6.109375 30.078125 6.109375 
Q 37.203125 6.109375 41.296875 11.75 
Q 45.40625 17.390625 45.40625 27.296875 
Q 45.40625 37.203125 41.296875 42.84375 
Q 37.203125 48.484375 30.078125 48.484375 
Q 22.953125 48.484375 18.875 42.84375 
Q 14.796875 37.203125 14.796875 27.296875 
z
" id="DejaVuSans-64"/>
      <path d="M 31 75.875 
Q 24.46875 64.65625 21.28125 53.65625 
Q 18.109375 42.671875 18.109375 31.390625 
Q 18.109375 20.125 21.3125 9.0625 
Q 24.515625 -2 31 -13.1875 
L 23.1875 -13.1875 
Q 15.875 -1.703125 12.234375 9.375 
Q 8.59375 20.453125 8.59375 31.390625 
Q 8.59375 42.28125 12.203125 53.3125 
Q 15.828125 64.359375 23.1875 75.875 
z
" id="DejaVuSans-28"/>
      <path d="M 8.015625 75.875 
L 15.828125 75.875 
Q 23.140625 64.359375 26.78125 53.3125 
Q 30.421875 42.28125 30.421875 31.390625 
Q 30.421875 20.453125 26.78125 9.375 
Q 23.140625 -1.703125 15.828125 -13.1875 
L 8.015625 -13.1875 
Q 14.5 -2 17.703125 9.0625 
Q 20.90625 20.125 20.90625 31.390625 
Q 20.90625 42.671875 17.703125 53.65625 
Q 14.5 64.65625 8.015625 75.875 
z
" id="DejaVuSans-29"/>
     </defs>
     <g transform="translate(513.829824 42.398438)scale(0.1 -0.1)">
      <use xlink:href="#DejaVuSans-73"/>
      <use x="52.099609" xlink:href="#DejaVuSans-74"/>
      <use x="91.308594" xlink:href="#DejaVuSans-64"/>
      <use x="154.785156" xlink:href="#DejaVuSans-28"/>
      <use x="193.798828" xlink:href="#DejaVuSans-43"/>
      <use x="263.623047" xlink:href="#DejaVuSans-4c"/>
      <use x="319.335938" xlink:href="#DejaVuSans-29"/>
     </g>
    </g>
   </g>
  </g>
 </g>
 <defs>
  <clipPath id="p6e3b0a7886">
   <rect height="506.8" width="235.235327" x="40" y="25.8"/>
  </clipPath>
  <clipPath id="pba01fc4fc4">
   <rect height="506.8" width="235.235327" x="323.430435" y="25.8"/>
  </clipPath>
 </defs>
</svg>
